M48
;DRILL file {KiCad 4.0.7} date Saturday, September 09, 2017 'AMt' 08:37:05 AM
;FORMAT={3:3/ absolute / metric / suppress leading zeros}
FMAT,2
METRIC,TZ
T1C0.300
T2C0.400
T3C0.635
T4C0.650
T5C0.700
T6C1.000
T7C1.016
T8C1.200
T9C3.200
%
G90
G05
M71
T1
X206000Y-71000
X206000Y-72000
X206000Y-73000
X206000Y-74000
X206000Y-75000
X206000Y-76000
X206000Y-77000
X206000Y-78000
X206000Y-79000
X206000Y-80000
X206000Y-81000
X206000Y-82000
X206000Y-83000
X206000Y-84000
X206000Y-85000
X207000Y-71000
X207000Y-72000
X207000Y-73000
X207000Y-74000
X207000Y-75000
X207000Y-76000
X207000Y-77000
X207000Y-78000
X207000Y-79000
X207000Y-80000
X207000Y-81000
X207000Y-82000
X207000Y-83000
X207000Y-84000
X207000Y-85000
X208000Y-71000
X208000Y-72000
X208000Y-73000
X208000Y-74000
X208000Y-75000
X208000Y-76000
X208000Y-77000
X208000Y-78000
X208000Y-79000
X208000Y-80000
X208000Y-81000
X208000Y-82000
X208000Y-83000
X208000Y-84000
X208000Y-85000
X209000Y-71000
X209000Y-72000
X209000Y-73000
X209000Y-74000
X209000Y-75000
X209000Y-76000
X209000Y-77000
X209000Y-78000
X209000Y-79000
X209000Y-80000
X209000Y-81000
X209000Y-82000
X209000Y-83000
X209000Y-84000
X209000Y-85000
X210000Y-71000
X210000Y-72000
X210000Y-73000
X210000Y-74000
X210000Y-75000
X210000Y-76000
X210000Y-77000
X210000Y-78000
X210000Y-79000
X210000Y-80000
X210000Y-81000
X210000Y-82000
X210000Y-83000
X210000Y-84000
X210000Y-85000
X211000Y-71000
X211000Y-72000
X211000Y-73000
X211000Y-74000
X211000Y-75000
X211000Y-76000
X211000Y-77000
X211000Y-78000
X211000Y-79000
X211000Y-80000
X211000Y-81000
X211000Y-82000
X211000Y-83000
X211000Y-84000
X211000Y-85000
X212000Y-71000
X212000Y-72000
X212000Y-73000
X212000Y-74000
X212000Y-75000
X212000Y-76000
X212000Y-77000
X212000Y-78000
X212000Y-79000
X212000Y-80000
X212000Y-81000
X212000Y-82000
X212000Y-83000
X212000Y-84000
X212000Y-85000
X213000Y-71000
X213000Y-72000
X213000Y-73000
X213000Y-74000
X213000Y-75000
X213000Y-76000
X213000Y-77000
X213000Y-78000
X213000Y-79000
X213000Y-80000
X213000Y-81000
X213000Y-82000
X213000Y-83000
X213000Y-84000
X213000Y-85000
X214000Y-71000
X214000Y-72000
X214000Y-73000
X214000Y-74000
X214000Y-75000
X214000Y-76000
X214000Y-77000
X214000Y-78000
X214000Y-79000
X214000Y-80000
X214000Y-81000
X214000Y-82000
X214000Y-83000
X214000Y-84000
X214000Y-85000
X215000Y-71000
X215000Y-72000
X215000Y-73000
X215000Y-74000
X215000Y-75000
X215000Y-76000
X215000Y-77000
X215000Y-78000
X215000Y-79000
X215000Y-80000
X215000Y-81000
X215000Y-82000
X215000Y-83000
X215000Y-84000
X215000Y-85000
X216000Y-71000
X216000Y-72000
X216000Y-73000
X216000Y-74000
X216000Y-75000
X216000Y-76000
X216000Y-77000
X216000Y-78000
X216000Y-79000
X216000Y-80000
X216000Y-81000
X216000Y-82000
X216000Y-83000
X216000Y-84000
X216000Y-85000
X217000Y-71000
X217000Y-72000
X217000Y-73000
X217000Y-74000
X217000Y-75000
X217000Y-76000
X217000Y-77000
X217000Y-78000
X217000Y-79000
X217000Y-80000
X217000Y-81000
X217000Y-82000
X217000Y-83000
X217000Y-84000
X217000Y-85000
X218000Y-71000
X218000Y-72000
X218000Y-73000
X218000Y-74000
X218000Y-75000
X218000Y-76000
X218000Y-77000
X218000Y-78000
X218000Y-79000
X218000Y-80000
X218000Y-81000
X218000Y-82000
X218000Y-83000
X218000Y-84000
X218000Y-85000
X219000Y-71000
X219000Y-72000
X219000Y-73000
X219000Y-74000
X219000Y-75000
X219000Y-76000
X219000Y-77000
X219000Y-78000
X219000Y-79000
X219000Y-80000
X219000Y-81000
X219000Y-82000
X219000Y-83000
X219000Y-84000
X219000Y-85000
X220000Y-71000
X220000Y-72000
X220000Y-73000
X220000Y-74000
X220000Y-75000
X220000Y-76000
X220000Y-77000
X220000Y-78000
X220000Y-79000
X220000Y-80000
X220000Y-81000
X220000Y-82000
X220000Y-83000
X220000Y-84000
X220000Y-85000
T2
X169000Y-71500
X177000Y-97500
X178000Y-97500
X178500Y-86000
X179000Y-88280
X179000Y-97500
X181350Y-73750
X181350Y-74750
X181350Y-75550
X181350Y-76450
X181350Y-77500
X181350Y-78550
X181350Y-79450
X181350Y-80350
X181350Y-81250
X182150Y-75550
X182150Y-76450
X182150Y-77500
X182150Y-78550
X182150Y-79450
X182250Y-73750
X182250Y-74650
X182250Y-80350
X182250Y-81250
X183000Y-60000
X183000Y-85000
X183150Y-73750
X183150Y-74650
X183150Y-80350
X183150Y-81250
X183500Y-64500
X183500Y-68748
X183500Y-69500
X184050Y-73750
X184050Y-74650
X184050Y-80350
X184050Y-81250
X184500Y-69000
X184950Y-73750
X184950Y-74650
X184950Y-80350
X184950Y-81250
X185000Y-57500
X185500Y-88500
X185500Y-89500
X185850Y-73750
X185850Y-74650
X185850Y-80350
X185850Y-81250
X186750Y-73750
X186750Y-74650
X186750Y-80350
X186750Y-81250
X187500Y-67000
X188000Y-57000
X189500Y-71000
X190000Y-57000
X191500Y-42000
X191500Y-57000
X192000Y-97500
X193000Y-97500
X193500Y-42000
X194000Y-97500
X196215Y-51435
X197500Y-57000
X198500Y-59000
X199475Y-53860
X199500Y-56000
X200000Y-57785
X201295Y-52070
X201610Y-53660
X202000Y-42500
X202000Y-43500
X202000Y-44500
X203315Y-52590
X206500Y-42500
X206500Y-43500
X206500Y-44500
X207000Y-98000
X208000Y-98000
X208500Y-67000
X208500Y-68000
X209448Y-99000
X209500Y-69000
X209550Y-89535
X210500Y-62000
X210500Y-92500
X211500Y-64000
X212000Y-97000
X212000Y-99000
X212067Y-68165
X212267Y-66615
X212500Y-59000
X212500Y-62000
X212584Y-67465
X213500Y-63500
X214000Y-65000
X214000Y-94500
X214500Y-62000
X215500Y-92587
X216000Y-65000
X216500Y-67000
X216500Y-68000
X216500Y-68752
X216500Y-69505
X216535Y-89535
X217500Y-63500
X218032Y-64032
X218500Y-69500
X222000Y-54000
X222000Y-55000
X222000Y-56000
X222000Y-57000
X222000Y-58000
X222000Y-59000
X222000Y-60000
X222000Y-61000
X222000Y-62000
X222000Y-63000
X222500Y-53500
X222500Y-54500
X222500Y-55500
X222500Y-56500
X222500Y-57500
X222500Y-58500
X222500Y-59500
X222500Y-60500
X222500Y-61500
X222500Y-62500
X222500Y-63500
X222500Y-68000
X223000Y-53000
X223000Y-64000
X223500Y-53500
X223500Y-63500
X223500Y-65000
X224000Y-53000
X224000Y-64000
X224500Y-53500
X224500Y-63500
X224500Y-65000
X225000Y-53000
X225000Y-64000
X225000Y-65500
X225000Y-66500
X225000Y-68000
X225500Y-53500
X225500Y-63500
X225500Y-65000
X225500Y-81000
X225500Y-82000
X225500Y-83000
X225500Y-84000
X226000Y-53000
X226000Y-64000
X226009Y-63003
X226037Y-54000
X226500Y-53500
X226500Y-54500
X226500Y-56500
X226500Y-57500
X226500Y-59000
X226500Y-60000
X226500Y-62500
X226500Y-63500
X226500Y-65000
X227000Y-55000
X227000Y-62000
X227500Y-54500
X227500Y-62500
X228000Y-55000
X228000Y-62000
X228500Y-54500
X228500Y-62500
X228500Y-69000
X229000Y-55000
X229000Y-62000
X229500Y-55500
X229500Y-61500
X230000Y-56000
X230000Y-61000
X230000Y-67000
X230500Y-54500
X230500Y-55500
X230500Y-61500
X230500Y-81000
X230500Y-82000
X230500Y-83000
X230500Y-84000
X231000Y-56000
X231500Y-56500
X231602Y-57496
X232000Y-57000
X232000Y-58000
X232000Y-59000
X232000Y-60000
X232000Y-64500
X233000Y-75500
X234000Y-75500
X234500Y-43000
X234500Y-63500
X234500Y-67000
X235000Y-75500
X235032Y-62968
X235460Y-60040
X235500Y-61000
X235500Y-66000
X235500Y-81000
X235500Y-82000
X236000Y-49000
X236000Y-77500
X236560Y-56500
X237000Y-77500
X237500Y-51900
X238000Y-77500
X238500Y-51900
X238648Y-55247
X239000Y-49000
X239000Y-77500
X240425Y-83000
X240500Y-84000
X240560Y-70500
X241360Y-70500
X242500Y-48000
X244000Y-49500
X244000Y-52500
X244500Y-95500
X244701Y-50500
X245500Y-48000
X245500Y-80500
X245500Y-81500
X245500Y-83000
X245500Y-84000
X246000Y-61970
X246000Y-62770
X246500Y-95000
X247500Y-71500
X248000Y-96500
X248000Y-98500
X248000Y-99500
X249300Y-91500
X249500Y-49500
X249500Y-65000
X249500Y-75500
X249500Y-76500
X249909Y-102620
X250000Y-56000
X250000Y-71500
X250500Y-42000
X250500Y-47500
X251000Y-67000
X251000Y-92500
X251000Y-93500
X251000Y-96000
X251500Y-55000
X251500Y-94500
X252000Y-90500
X252500Y-66000
X252602Y-64000
X252965Y-94414
X253000Y-98074
X253000Y-93500
X253000Y-100500
X253147Y-99147
X253173Y-97271
X253319Y-95078
X253498Y-101500
X255999Y-63498
X256000Y-66000
X256000Y-68500
X256000Y-71000
X256000Y-73500
X256000Y-76162
X257000Y-79000
T3
X238760Y-44450
T6
X194000Y-71500
X197380Y-95000
X197380Y-97540
X199000Y-71500
X199920Y-95000
X199920Y-97540
X202460Y-95000
X202460Y-97540
X205000Y-95000
X205000Y-97540
X222380Y-95000
X222380Y-97540
X224920Y-95000
X224920Y-97540
X227460Y-95000
X227460Y-97540
X230000Y-95000
X230000Y-97540
X256500Y-52000
X256500Y-54540
X256500Y-57080
X256500Y-62160
X256500Y-64700
X256500Y-67240
X256500Y-69780
X256500Y-74860
X256500Y-77400
T7
X212725Y-44450
X212725Y-46990
X215265Y-44450
X215265Y-46990
X217805Y-44450
X217805Y-46990
X220345Y-44450
X220345Y-46990
X222885Y-44450
X222885Y-46990
T8
X177800Y-106500
X178500Y-46000
X181300Y-106500
X182000Y-46000
X184800Y-106500
X188300Y-106500
X192800Y-106500
X196300Y-106500
X199800Y-106500
X203300Y-106500
X207800Y-106500
X211300Y-106500
X214800Y-106500
X218300Y-106500
X222800Y-106500
X226300Y-106500
X229800Y-106500
X233300Y-106500
X237800Y-106500
X241300Y-106500
X244800Y-106500
X248300Y-106500
T9
X171500Y-44500
X171500Y-107500
X254500Y-44500
X254500Y-107500
T4
X241575Y-46425G85X241575Y-46825
G05
X246425Y-46425G85X246425Y-46825
G05
T5
X241275Y-43375G85X241275Y-43875
G05
X246725Y-43375G85X246725Y-43875
G05
T0
M30
