<?xml version="1.0" standalone="no"?>
 <!DOCTYPE svg PUBLIC "-//W3C//DTD SVG 1.1//EN" 
 "http://www.w3.org/Graphics/SVG/1.1/DTD/svg11.dtd"> 
<svg xmlns="http://www.w3.org/2000/svg" version="1.1" 
    width="29.7002cm" height="21.0007cm" viewBox="0 0 116930 82680 ">
<title>SVG Picture created as power-board-F.SilkS.svg date 2017/10/07 19:36:04 </title>
  <desc>Picture generated by PCBNEW </desc>
<g style="fill:#000000; fill-opacity:1;stroke:#000000; stroke-opacity:1;
stroke-linecap:round; stroke-linejoin:round; "
 transform="translate(0 0) scale(1 1)">
</g>
<g style="fill:#000000; fill-opacity:0.0; 
stroke:#000000; stroke-width:-0.000393701; stroke-opacity:1; 
stroke-linecap:round; stroke-linejoin:round;">
</g>
<g style="fill:#000000; fill-opacity:0.0; 
stroke:#000000; stroke-width:39.3701; stroke-opacity:1; 
stroke-linecap:round; stroke-linejoin:round;">
</g>
<g style="fill:#000000; fill-opacity:0.0; 
stroke:#000000; stroke-width:59.0551; stroke-opacity:1; 
stroke-linecap:round; stroke-linejoin:round;">
<rect x="69685.9" y="65357.2" width="42519.7" height="12598.4" rx="0" />
</g>
<g style="fill:#000000; fill-opacity:0.0; 
stroke:#000000; stroke-width:39.3701; stroke-opacity:1; 
stroke-linecap:round; stroke-linejoin:round;">
</g>
<g style="fill:#000000; fill-opacity:0.0; 
stroke:#000000; stroke-width:59.0551; stroke-opacity:1; 
stroke-linecap:round; stroke-linejoin:round;">
<rect x="3937.01" y="3937.01" width="109056" height="74806" rx="0" />
</g>
<g style="fill:#000000; fill-opacity:0.0; 
stroke:#000000; stroke-width:39.3701; stroke-opacity:1; 
stroke-linecap:round; stroke-linejoin:round;">
</g>
<g style="fill:#000000; fill-opacity:0.0; 
stroke:#000000; stroke-width:59.0551; stroke-opacity:1; 
stroke-linecap:round; stroke-linejoin:round;">
<rect x="4724.41" y="4724.41" width="107481" height="73231.2" rx="0" />
</g>
<g style="fill:#000000; fill-opacity:0.0; 
stroke:#000000; stroke-width:39.3701; stroke-opacity:1; 
stroke-linecap:round; stroke-linejoin:round;">
</g>
<g style="fill:#000000; fill-opacity:0.0; 
stroke:#000000; stroke-width:59.0551; stroke-opacity:1; 
stroke-linecap:round; stroke-linejoin:round;">
<path d="M23622 4724
L23622 3937
" />
</g>
<g style="fill:#000000; fill-opacity:0.0; 
stroke:#000000; stroke-width:39.3701; stroke-opacity:1; 
stroke-linecap:round; stroke-linejoin:round;">
</g>
<g style="fill:#000000; fill-opacity:0.0; 
stroke:#000000; stroke-width:59.0551; stroke-opacity:1; 
stroke-linecap:round; stroke-linejoin:round;">
<path d="M43307 4724
L43307 3937
" />
</g>
<g style="fill:#000000; fill-opacity:0.0; 
stroke:#000000; stroke-width:39.3701; stroke-opacity:1; 
stroke-linecap:round; stroke-linejoin:round;">
</g>
<g style="fill:#000000; fill-opacity:0.0; 
stroke:#000000; stroke-width:59.0551; stroke-opacity:1; 
stroke-linecap:round; stroke-linejoin:round;">
<path d="M62992 4724
L62992 3937
" />
</g>
<g style="fill:#000000; fill-opacity:0.0; 
stroke:#000000; stroke-width:39.3701; stroke-opacity:1; 
stroke-linecap:round; stroke-linejoin:round;">
</g>
<g style="fill:#000000; fill-opacity:0.0; 
stroke:#000000; stroke-width:59.0551; stroke-opacity:1; 
stroke-linecap:round; stroke-linejoin:round;">
<path d="M82677 4724
L82677 3937
" />
</g>
<g style="fill:#000000; fill-opacity:0.0; 
stroke:#000000; stroke-width:39.3701; stroke-opacity:1; 
stroke-linecap:round; stroke-linejoin:round;">
</g>
<g style="fill:#000000; fill-opacity:0.0; 
stroke:#000000; stroke-width:59.0551; stroke-opacity:1; 
stroke-linecap:round; stroke-linejoin:round;">
<path d="M102362 4724
L102362 3937
" />
</g>
<g style="fill:#000000; fill-opacity:0.0; 
stroke:#000000; stroke-width:39.3701; stroke-opacity:1; 
stroke-linecap:round; stroke-linejoin:round;">
</g>
<g style="fill:#000000; fill-opacity:0.0; 
stroke:#000000; stroke-width:59.0551; stroke-opacity:1; 
stroke-linecap:round; stroke-linejoin:round;">
<path d="M14169 4562
L13877 4562
" />
<path d="M14023 4562
L14023 4050
L13974 4123
L13925 4172
L13877 4196
" />
</g>
<g style="fill:#000000; fill-opacity:0.0; 
stroke:#000000; stroke-width:39.3701; stroke-opacity:1; 
stroke-linecap:round; stroke-linejoin:round;">
</g>
<g style="fill:#000000; fill-opacity:0.0; 
stroke:#000000; stroke-width:59.0551; stroke-opacity:1; 
stroke-linecap:round; stroke-linejoin:round;">
<path d="M33562 4099
L33586 4074
L33635 4050
L33757 4050
L33805 4074
L33830 4099
L33854 4147
L33854 4196
L33830 4269
L33537 4562
L33854 4562
" />
</g>
<g style="fill:#000000; fill-opacity:0.0; 
stroke:#000000; stroke-width:39.3701; stroke-opacity:1; 
stroke-linecap:round; stroke-linejoin:round;">
</g>
<g style="fill:#000000; fill-opacity:0.0; 
stroke:#000000; stroke-width:59.0551; stroke-opacity:1; 
stroke-linecap:round; stroke-linejoin:round;">
<path d="M53222 4050
L53539 4050
L53368 4245
L53442 4245
L53490 4269
L53515 4294
L53539 4342
L53539 4464
L53515 4513
L53490 4537
L53442 4562
L53295 4562
L53247 4537
L53222 4513
" />
</g>
<g style="fill:#000000; fill-opacity:0.0; 
stroke:#000000; stroke-width:39.3701; stroke-opacity:1; 
stroke-linecap:round; stroke-linejoin:round;">
</g>
<g style="fill:#000000; fill-opacity:0.0; 
stroke:#000000; stroke-width:59.0551; stroke-opacity:1; 
stroke-linecap:round; stroke-linejoin:round;">
<path d="M73175 4221
L73175 4562
" />
<path d="M73053 4026
L72932 4391
L73248 4391
" />
</g>
<g style="fill:#000000; fill-opacity:0.0; 
stroke:#000000; stroke-width:39.3701; stroke-opacity:1; 
stroke-linecap:round; stroke-linejoin:round;">
</g>
<g style="fill:#000000; fill-opacity:0.0; 
stroke:#000000; stroke-width:59.0551; stroke-opacity:1; 
stroke-linecap:round; stroke-linejoin:round;">
<path d="M92885 4050
L92641 4050
L92617 4294
L92641 4269
L92690 4245
L92812 4245
L92860 4269
L92885 4294
L92909 4342
L92909 4464
L92885 4513
L92860 4537
L92812 4562
L92690 4562
L92641 4537
L92617 4513
" />
</g>
<g style="fill:#000000; fill-opacity:0.0; 
stroke:#000000; stroke-width:39.3701; stroke-opacity:1; 
stroke-linecap:round; stroke-linejoin:round;">
</g>
<g style="fill:#000000; fill-opacity:0.0; 
stroke:#000000; stroke-width:59.0551; stroke-opacity:1; 
stroke-linecap:round; stroke-linejoin:round;">
<path d="M112545 4050
L112448 4050
L112399 4074
L112375 4099
L112326 4172
L112302 4269
L112302 4464
L112326 4513
L112350 4537
L112399 4562
L112497 4562
L112545 4537
L112570 4513
L112594 4464
L112594 4342
L112570 4294
L112545 4269
L112497 4245
L112399 4245
L112350 4269
L112326 4294
L112302 4342
" />
</g>
<g style="fill:#000000; fill-opacity:0.0; 
stroke:#000000; stroke-width:39.3701; stroke-opacity:1; 
stroke-linecap:round; stroke-linejoin:round;">
</g>
<g style="fill:#000000; fill-opacity:0.0; 
stroke:#000000; stroke-width:59.0551; stroke-opacity:1; 
stroke-linecap:round; stroke-linejoin:round;">
<path d="M23622 77955
L23622 78742
" />
</g>
<g style="fill:#000000; fill-opacity:0.0; 
stroke:#000000; stroke-width:39.3701; stroke-opacity:1; 
stroke-linecap:round; stroke-linejoin:round;">
</g>
<g style="fill:#000000; fill-opacity:0.0; 
stroke:#000000; stroke-width:59.0551; stroke-opacity:1; 
stroke-linecap:round; stroke-linejoin:round;">
<path d="M43307 77955
L43307 78742
" />
</g>
<g style="fill:#000000; fill-opacity:0.0; 
stroke:#000000; stroke-width:39.3701; stroke-opacity:1; 
stroke-linecap:round; stroke-linejoin:round;">
</g>
<g style="fill:#000000; fill-opacity:0.0; 
stroke:#000000; stroke-width:59.0551; stroke-opacity:1; 
stroke-linecap:round; stroke-linejoin:round;">
<path d="M62992 77955
L62992 78742
" />
</g>
<g style="fill:#000000; fill-opacity:0.0; 
stroke:#000000; stroke-width:39.3701; stroke-opacity:1; 
stroke-linecap:round; stroke-linejoin:round;">
</g>
<g style="fill:#000000; fill-opacity:0.0; 
stroke:#000000; stroke-width:59.0551; stroke-opacity:1; 
stroke-linecap:round; stroke-linejoin:round;">
<path d="M82677 77955
L82677 78742
" />
</g>
<g style="fill:#000000; fill-opacity:0.0; 
stroke:#000000; stroke-width:39.3701; stroke-opacity:1; 
stroke-linecap:round; stroke-linejoin:round;">
</g>
<g style="fill:#000000; fill-opacity:0.0; 
stroke:#000000; stroke-width:59.0551; stroke-opacity:1; 
stroke-linecap:round; stroke-linejoin:round;">
<path d="M102362 77955
L102362 78742
" />
</g>
<g style="fill:#000000; fill-opacity:0.0; 
stroke:#000000; stroke-width:39.3701; stroke-opacity:1; 
stroke-linecap:round; stroke-linejoin:round;">
</g>
<g style="fill:#000000; fill-opacity:0.0; 
stroke:#000000; stroke-width:59.0551; stroke-opacity:1; 
stroke-linecap:round; stroke-linejoin:round;">
<path d="M14169 78580
L13877 78580
" />
<path d="M14023 78580
L14023 78069
L13974 78142
L13925 78190
L13877 78215
" />
</g>
<g style="fill:#000000; fill-opacity:0.0; 
stroke:#000000; stroke-width:39.3701; stroke-opacity:1; 
stroke-linecap:round; stroke-linejoin:round;">
</g>
<g style="fill:#000000; fill-opacity:0.0; 
stroke:#000000; stroke-width:59.0551; stroke-opacity:1; 
stroke-linecap:round; stroke-linejoin:round;">
<path d="M33562 78117
L33586 78093
L33635 78069
L33757 78069
L33805 78093
L33830 78117
L33854 78166
L33854 78215
L33830 78288
L33537 78580
L33854 78580
" />
</g>
<g style="fill:#000000; fill-opacity:0.0; 
stroke:#000000; stroke-width:39.3701; stroke-opacity:1; 
stroke-linecap:round; stroke-linejoin:round;">
</g>
<g style="fill:#000000; fill-opacity:0.0; 
stroke:#000000; stroke-width:59.0551; stroke-opacity:1; 
stroke-linecap:round; stroke-linejoin:round;">
<path d="M53222 78069
L53539 78069
L53368 78263
L53442 78263
L53490 78288
L53515 78312
L53539 78361
L53539 78483
L53515 78532
L53490 78556
L53442 78580
L53295 78580
L53247 78556
L53222 78532
" />
</g>
<g style="fill:#000000; fill-opacity:0.0; 
stroke:#000000; stroke-width:39.3701; stroke-opacity:1; 
stroke-linecap:round; stroke-linejoin:round;">
</g>
<g style="fill:#000000; fill-opacity:0.0; 
stroke:#000000; stroke-width:59.0551; stroke-opacity:1; 
stroke-linecap:round; stroke-linejoin:round;">
<path d="M73175 78239
L73175 78580
" />
<path d="M73053 78044
L72932 78410
L73248 78410
" />
</g>
<g style="fill:#000000; fill-opacity:0.0; 
stroke:#000000; stroke-width:39.3701; stroke-opacity:1; 
stroke-linecap:round; stroke-linejoin:round;">
</g>
<g style="fill:#000000; fill-opacity:0.0; 
stroke:#000000; stroke-width:59.0551; stroke-opacity:1; 
stroke-linecap:round; stroke-linejoin:round;">
<path d="M92885 78069
L92641 78069
L92617 78312
L92641 78288
L92690 78263
L92812 78263
L92860 78288
L92885 78312
L92909 78361
L92909 78483
L92885 78532
L92860 78556
L92812 78580
L92690 78580
L92641 78556
L92617 78532
" />
</g>
<g style="fill:#000000; fill-opacity:0.0; 
stroke:#000000; stroke-width:39.3701; stroke-opacity:1; 
stroke-linecap:round; stroke-linejoin:round;">
</g>
<g style="fill:#000000; fill-opacity:0.0; 
stroke:#000000; stroke-width:59.0551; stroke-opacity:1; 
stroke-linecap:round; stroke-linejoin:round;">
<path d="M112545 78069
L112448 78069
L112399 78093
L112375 78117
L112326 78190
L112302 78288
L112302 78483
L112326 78532
L112350 78556
L112399 78580
L112497 78580
L112545 78556
L112570 78532
L112594 78483
L112594 78361
L112570 78312
L112545 78288
L112497 78263
L112399 78263
L112350 78288
L112326 78312
L112302 78361
" />
</g>
<g style="fill:#000000; fill-opacity:0.0; 
stroke:#000000; stroke-width:39.3701; stroke-opacity:1; 
stroke-linecap:round; stroke-linejoin:round;">
</g>
<g style="fill:#000000; fill-opacity:0.0; 
stroke:#000000; stroke-width:59.0551; stroke-opacity:1; 
stroke-linecap:round; stroke-linejoin:round;">
<path d="M3937 23622
L4724 23622
" />
</g>
<g style="fill:#000000; fill-opacity:0.0; 
stroke:#000000; stroke-width:39.3701; stroke-opacity:1; 
stroke-linecap:round; stroke-linejoin:round;">
</g>
<g style="fill:#000000; fill-opacity:0.0; 
stroke:#000000; stroke-width:59.0551; stroke-opacity:1; 
stroke-linecap:round; stroke-linejoin:round;">
<path d="M3937 43307
L4724 43307
" />
</g>
<g style="fill:#000000; fill-opacity:0.0; 
stroke:#000000; stroke-width:39.3701; stroke-opacity:1; 
stroke-linecap:round; stroke-linejoin:round;">
</g>
<g style="fill:#000000; fill-opacity:0.0; 
stroke:#000000; stroke-width:59.0551; stroke-opacity:1; 
stroke-linecap:round; stroke-linejoin:round;">
<path d="M3937 62992
L4724 62992
" />
</g>
<g style="fill:#000000; fill-opacity:0.0; 
stroke:#000000; stroke-width:39.3701; stroke-opacity:1; 
stroke-linecap:round; stroke-linejoin:round;">
</g>
<g style="fill:#000000; fill-opacity:0.0; 
stroke:#000000; stroke-width:59.0551; stroke-opacity:1; 
stroke-linecap:round; stroke-linejoin:round;">
<path d="M4208 13864
L4452 13864
" />
<path d="M4160 14011
L4330 13499
L4501 14011
" />
</g>
<g style="fill:#000000; fill-opacity:0.0; 
stroke:#000000; stroke-width:39.3701; stroke-opacity:1; 
stroke-linecap:round; stroke-linejoin:round;">
</g>
<g style="fill:#000000; fill-opacity:0.0; 
stroke:#000000; stroke-width:59.0551; stroke-opacity:1; 
stroke-linecap:round; stroke-linejoin:round;">
<path d="M4367 33428
L4440 33452
L4464 33476
L4489 33525
L4489 33598
L4464 33647
L4440 33671
L4391 33696
L4196 33696
L4196 33184
L4367 33184
L4416 33208
L4440 33233
L4464 33281
L4464 33330
L4440 33379
L4416 33403
L4367 33428
L4196 33428
" />
</g>
<g style="fill:#000000; fill-opacity:0.0; 
stroke:#000000; stroke-width:39.3701; stroke-opacity:1; 
stroke-linecap:round; stroke-linejoin:round;">
</g>
<g style="fill:#000000; fill-opacity:0.0; 
stroke:#000000; stroke-width:59.0551; stroke-opacity:1; 
stroke-linecap:round; stroke-linejoin:round;">
<path d="M4489 53332
L4464 53356
L4391 53381
L4342 53381
L4269 53356
L4221 53308
L4196 53259
L4172 53161
L4172 53088
L4196 52991
L4221 52942
L4269 52893
L4342 52869
L4391 52869
L4464 52893
L4489 52918
" />
</g>
<g style="fill:#000000; fill-opacity:0.0; 
stroke:#000000; stroke-width:39.3701; stroke-opacity:1; 
stroke-linecap:round; stroke-linejoin:round;">
</g>
<g style="fill:#000000; fill-opacity:0.0; 
stroke:#000000; stroke-width:59.0551; stroke-opacity:1; 
stroke-linecap:round; stroke-linejoin:round;">
<path d="M4196 73066
L4196 72554
L4318 72554
L4391 72578
L4440 72627
L4464 72676
L4489 72773
L4489 72846
L4464 72944
L4440 72993
L4391 73041
L4318 73066
L4196 73066
" />
</g>
<g style="fill:#000000; fill-opacity:0.0; 
stroke:#000000; stroke-width:39.3701; stroke-opacity:1; 
stroke-linecap:round; stroke-linejoin:round;">
</g>
<g style="fill:#000000; fill-opacity:0.0; 
stroke:#000000; stroke-width:59.0551; stroke-opacity:1; 
stroke-linecap:round; stroke-linejoin:round;">
<path d="M112992 23622
L112205 23622
" />
</g>
<g style="fill:#000000; fill-opacity:0.0; 
stroke:#000000; stroke-width:39.3701; stroke-opacity:1; 
stroke-linecap:round; stroke-linejoin:round;">
</g>
<g style="fill:#000000; fill-opacity:0.0; 
stroke:#000000; stroke-width:59.0551; stroke-opacity:1; 
stroke-linecap:round; stroke-linejoin:round;">
<path d="M112992 43307
L112205 43307
" />
</g>
<g style="fill:#000000; fill-opacity:0.0; 
stroke:#000000; stroke-width:39.3701; stroke-opacity:1; 
stroke-linecap:round; stroke-linejoin:round;">
</g>
<g style="fill:#000000; fill-opacity:0.0; 
stroke:#000000; stroke-width:59.0551; stroke-opacity:1; 
stroke-linecap:round; stroke-linejoin:round;">
<path d="M112992 62992
L112205 62992
" />
</g>
<g style="fill:#000000; fill-opacity:0.0; 
stroke:#000000; stroke-width:39.3701; stroke-opacity:1; 
stroke-linecap:round; stroke-linejoin:round;">
</g>
<g style="fill:#000000; fill-opacity:0.0; 
stroke:#000000; stroke-width:59.0551; stroke-opacity:1; 
stroke-linecap:round; stroke-linejoin:round;">
<path d="M112477 13864
L112721 13864
" />
<path d="M112428 14011
L112599 13499
L112769 14011
" />
</g>
<g style="fill:#000000; fill-opacity:0.0; 
stroke:#000000; stroke-width:39.3701; stroke-opacity:1; 
stroke-linecap:round; stroke-linejoin:round;">
</g>
<g style="fill:#000000; fill-opacity:0.0; 
stroke:#000000; stroke-width:59.0551; stroke-opacity:1; 
stroke-linecap:round; stroke-linejoin:round;">
<path d="M112635 33428
L112708 33452
L112733 33476
L112757 33525
L112757 33598
L112733 33647
L112708 33671
L112660 33696
L112465 33696
L112465 33184
L112635 33184
L112684 33208
L112708 33233
L112733 33281
L112733 33330
L112708 33379
L112684 33403
L112635 33428
L112465 33428
" />
</g>
<g style="fill:#000000; fill-opacity:0.0; 
stroke:#000000; stroke-width:39.3701; stroke-opacity:1; 
stroke-linecap:round; stroke-linejoin:round;">
</g>
<g style="fill:#000000; fill-opacity:0.0; 
stroke:#000000; stroke-width:59.0551; stroke-opacity:1; 
stroke-linecap:round; stroke-linejoin:round;">
<path d="M112757 53332
L112733 53356
L112660 53381
L112611 53381
L112538 53356
L112489 53308
L112465 53259
L112440 53161
L112440 53088
L112465 52991
L112489 52942
L112538 52893
L112611 52869
L112660 52869
L112733 52893
L112757 52918
" />
</g>
<g style="fill:#000000; fill-opacity:0.0; 
stroke:#000000; stroke-width:39.3701; stroke-opacity:1; 
stroke-linecap:round; stroke-linejoin:round;">
</g>
<g style="fill:#000000; fill-opacity:0.0; 
stroke:#000000; stroke-width:59.0551; stroke-opacity:1; 
stroke-linecap:round; stroke-linejoin:round;">
<path d="M112465 73066
L112465 72554
L112587 72554
L112660 72578
L112708 72627
L112733 72676
L112757 72773
L112757 72846
L112733 72944
L112708 72993
L112660 73041
L112587 73066
L112465 73066
" />
</g>
<g style="fill:#000000; fill-opacity:0.0; 
stroke:#000000; stroke-width:39.3701; stroke-opacity:1; 
stroke-linecap:round; stroke-linejoin:round;">
</g>
<g style="fill:#000000; fill-opacity:0.0; 
stroke:#000000; stroke-width:59.0551; stroke-opacity:1; 
stroke-linecap:round; stroke-linejoin:round;">
<path d="M78881 76293
L78881 75703
L79022 75703
L79106 75731
L79162 75787
L79190 75843
L79219 75956
L79219 76040
L79190 76153
L79162 76209
L79106 76265
L79022 76293
L78881 76293
" />
<path d="M79725 76293
L79725 75984
L79697 75928
L79640 75899
L79528 75899
L79472 75928
" />
<path d="M79725 76265
L79669 76293
L79528 76293
L79472 76265
L79444 76209
L79444 76153
L79472 76096
L79528 76068
L79669 76068
L79725 76040
" />
<path d="M79922 75899
L80147 75899
" />
<path d="M80006 75703
L80006 76209
L80034 76265
L80090 76293
L80147 76293
" />
<path d="M80568 76265
L80512 76293
L80400 76293
L80343 76265
L80315 76209
L80315 75984
L80343 75928
L80400 75899
L80512 75899
L80568 75928
L80597 75984
L80597 76040
L80315 76096
" />
<path d="M80850 76237
L80878 76265
L80850 76293
L80822 76265
L80850 76237
L80850 76293
" />
<path d="M80850 75928
L80878 75956
L80850 75984
L80822 75956
L80850 75928
L80850 75984
" />
</g>
<g style="fill:#000000; fill-opacity:0.0; 
stroke:#000000; stroke-width:39.3701; stroke-opacity:1; 
stroke-linecap:round; stroke-linejoin:round;">
</g>
<g style="fill:#000000; fill-opacity:0.0; 
stroke:#000000; stroke-width:59.0551; stroke-opacity:1; 
stroke-linecap:round; stroke-linejoin:round;">
<path d="M69685 76577
L112205 76577
" />
</g>
<g style="fill:#000000; fill-opacity:0.0; 
stroke:#000000; stroke-width:39.3701; stroke-opacity:1; 
stroke-linecap:round; stroke-linejoin:round;">
</g>
<g style="fill:#000000; fill-opacity:0.0; 
stroke:#000000; stroke-width:59.0551; stroke-opacity:1; 
stroke-linecap:round; stroke-linejoin:round;">
<path d="M70220 77395
L70220 76805
" />
<path d="M70557 77395
L70304 77058
" />
<path d="M70557 76805
L70220 77142
" />
<path d="M70810 77395
L70810 77002
" />
<path d="M70810 76805
L70782 76833
L70810 76861
L70838 76833
L70810 76805
L70810 76861
" />
<path d="M71429 77339
L71401 77367
L71316 77395
L71260 77395
L71176 77367
L71120 77311
L71091 77255
L71063 77142
L71063 77058
L71091 76946
L71120 76889
L71176 76833
L71260 76805
L71316 76805
L71401 76833
L71429 76861
" />
<path d="M71935 77395
L71935 77086
L71907 77030
L71851 77002
L71738 77002
L71682 77030
" />
<path d="M71935 77367
L71879 77395
L71738 77395
L71682 77367
L71654 77311
L71654 77255
L71682 77199
L71738 77171
L71879 77171
L71935 77142
" />
<path d="M72469 77395
L72469 76805
" />
<path d="M72469 77367
L72413 77395
L72301 77395
L72244 77367
L72216 77339
L72188 77283
L72188 77114
L72216 77058
L72244 77030
L72301 77002
L72413 77002
L72469 77030
" />
<path d="M73201 77086
L73397 77086
" />
<path d="M73482 77395
L73201 77395
L73201 76805
L73482 76805
" />
<path d="M73735 77339
L73763 77367
L73735 77395
L73707 77367
L73735 77339
L73735 77395
" />
<path d="M74016 77395
L74016 76805
L74157 76805
L74241 76833
L74297 76889
L74325 76946
L74354 77058
L74354 77142
L74325 77255
L74297 77311
L74241 77367
L74157 77395
L74016 77395
" />
<path d="M74607 77339
L74635 77367
L74607 77395
L74579 77367
L74607 77339
L74607 77395
" />
<path d="M74860 77227
L75141 77227
" />
<path d="M74804 77395
L75000 76805
L75197 77395
" />
<path d="M75394 77339
L75422 77367
L75394 77395
L75366 77367
L75394 77339
L75394 77395
" />
<path d="M76575 77395
L76575 76805
" />
<path d="M76631 77171
L76800 77395
" />
<path d="M76800 77002
L76575 77227
" />
<path d="M77053 77395
L77053 77002
" />
<path d="M77053 76805
L77025 76833
L77053 76861
L77081 76833
L77053 76805
L77053 76861
" />
<path d="M77588 77367
L77531 77395
L77419 77395
L77363 77367
L77334 77339
L77306 77283
L77306 77114
L77334 77058
L77363 77030
L77419 77002
L77531 77002
L77588 77030
" />
<path d="M78094 77395
L78094 77086
L78066 77030
L78009 77002
L77897 77002
L77841 77030
" />
<path d="M78094 77367
L78037 77395
L77897 77395
L77841 77367
L77813 77311
L77813 77255
L77841 77199
L77897 77171
L78037 77171
L78094 77142
" />
<path d="M78628 77395
L78628 76805
" />
<path d="M78628 77367
L78572 77395
L78459 77395
L78403 77367
L78375 77339
L78347 77283
L78347 77114
L78375 77058
L78403 77030
L78459 77002
L78572 77002
L78628 77030
" />
<path d="M79612 77002
L79612 77395
" />
<path d="M79472 76777
L79331 77199
L79697 77199
" />
<path d="M79922 77339
L79950 77367
L79922 77395
L79894 77367
L79922 77339
L79922 77395
" />
<path d="M80315 76805
L80372 76805
L80428 76833
L80456 76861
L80484 76917
L80512 77030
L80512 77171
L80484 77283
L80456 77339
L80428 77367
L80372 77395
L80315 77395
L80259 77367
L80231 77339
L80203 77283
L80175 77171
L80175 77030
L80203 76917
L80231 76861
L80259 76833
L80315 76805
" />
<path d="M80765 77339
L80793 77367
L80765 77395
L80737 77367
L80765 77339
L80765 77395
" />
<path d="M80990 76805
L81384 76805
L81131 77395
" />
</g>
<g style="fill:#000000; fill-opacity:0.0; 
stroke:#000000; stroke-width:39.3701; stroke-opacity:1; 
stroke-linecap:round; stroke-linejoin:round;">
</g>
<g style="fill:#000000; fill-opacity:0.0; 
stroke:#000000; stroke-width:59.0551; stroke-opacity:1; 
stroke-linecap:round; stroke-linejoin:round;">
<path d="M69685 75396
L112205 75396
" />
</g>
<g style="fill:#000000; fill-opacity:0.0; 
stroke:#000000; stroke-width:39.3701; stroke-opacity:1; 
stroke-linecap:round; stroke-linejoin:round;">
</g>
<g style="fill:#000000; fill-opacity:0.0; 
stroke:#000000; stroke-width:118.11; stroke-opacity:1; 
stroke-linecap:round; stroke-linejoin:round;">
<path d="M104022 76293
L103825 76012
" />
<path d="M103684 76293
L103684 75703
L103909 75703
L103965 75731
L103994 75759
L104022 75815
L104022 75899
L103994 75956
L103965 75984
L103909 76012
L103684 76012
" />
<path d="M104500 76265
L104444 76293
L104331 76293
L104275 76265
L104247 76209
L104247 75984
L104275 75928
L104331 75899
L104444 75899
L104500 75928
L104528 75984
L104528 76040
L104247 76096
" />
<path d="M104725 75899
L104865 76293
L105006 75899
" />
<path d="M105231 76237
L105259 76265
L105231 76293
L105203 76265
L105231 76237
L105231 76293
" />
<path d="M105231 75928
L105259 75956
L105231 75984
L105203 75956
L105231 75928
L105231 75984
" />
</g>
<g style="fill:#000000; fill-opacity:0.0; 
stroke:#000000; stroke-width:39.3701; stroke-opacity:1; 
stroke-linecap:round; stroke-linejoin:round;">
</g>
<g style="fill:#000000; fill-opacity:0.0; 
stroke:#000000; stroke-width:59.0551; stroke-opacity:1; 
stroke-linecap:round; stroke-linejoin:round;">
<path d="M70192 76265
L70276 76293
L70417 76293
L70473 76265
L70501 76237
L70529 76181
L70529 76124
L70501 76068
L70473 76040
L70417 76012
L70304 75984
L70248 75956
L70220 75928
L70192 75871
L70192 75815
L70220 75759
L70248 75731
L70304 75703
L70445 75703
L70529 75731
" />
<path d="M70782 76293
L70782 75899
" />
<path d="M70782 75703
L70754 75731
L70782 75759
L70810 75731
L70782 75703
L70782 75759
" />
<path d="M71007 75899
L71316 75899
L71007 76293
L71316 76293
" />
<path d="M71766 76265
L71710 76293
L71598 76293
L71541 76265
L71513 76209
L71513 75984
L71541 75928
L71598 75899
L71710 75899
L71766 75928
L71795 75984
L71795 76040
L71513 76096
" />
<path d="M72048 76237
L72076 76265
L72048 76293
L72019 76265
L72048 76237
L72048 76293
" />
<path d="M72048 75928
L72076 75956
L72048 75984
L72019 75956
L72048 75928
L72048 75984
" />
<path d="M72751 76124
L73032 76124
" />
<path d="M72694 76293
L72891 75703
L73088 76293
" />
<path d="M73538 75899
L73538 76293
" />
<path d="M73397 75674
L73257 76096
L73622 76096
" />
</g>
<g style="fill:#000000; fill-opacity:0.0; 
stroke:#000000; stroke-width:39.3701; stroke-opacity:1; 
stroke-linecap:round; stroke-linejoin:round;">
</g>
<g style="fill:#000000; fill-opacity:0.0; 
stroke:#000000; stroke-width:59.0551; stroke-opacity:1; 
stroke-linecap:round; stroke-linejoin:round;">
<path d="M103684 77395
L103684 76805
" />
<path d="M104219 77395
L104219 76805
" />
<path d="M104219 77367
L104162 77395
L104050 77395
L103994 77367
L103965 77339
L103937 77283
L103937 77114
L103965 77058
L103994 77030
L104050 77002
L104162 77002
L104219 77030
" />
<path d="M104500 77339
L104528 77367
L104500 77395
L104472 77367
L104500 77339
L104500 77395
" />
<path d="M104500 77030
L104528 77058
L104500 77086
L104472 77058
L104500 77030
L104500 77086
" />
<path d="M105540 77395
L105203 77395
" />
<path d="M105372 77395
L105372 76805
L105315 76889
L105259 76946
L105203 76974
" />
<path d="M106215 76777
L105709 77536
" />
<path d="M106721 77395
L106384 77395
" />
<path d="M106553 77395
L106553 76805
L106496 76889
L106440 76946
L106384 76974
" />
</g>
<g style="fill:#000000; fill-opacity:0.0; 
stroke:#000000; stroke-width:39.3701; stroke-opacity:1; 
stroke-linecap:round; stroke-linejoin:round;">
</g>
<g style="fill:#000000; fill-opacity:0.0; 
stroke:#000000; stroke-width:59.0551; stroke-opacity:1; 
stroke-linecap:round; stroke-linejoin:round;">
<path d="M69685 73821
L112205 73821
" />
</g>
<g style="fill:#000000; fill-opacity:0.0; 
stroke:#000000; stroke-width:39.3701; stroke-opacity:1; 
stroke-linecap:round; stroke-linejoin:round;">
</g>
<g style="fill:#000000; fill-opacity:0.0; 
stroke:#000000; stroke-width:157.48; stroke-opacity:1; 
stroke-linecap:round; stroke-linejoin:round;">
<path d="M70257 74099
L70707 74099
" />
<path d="M70384 74886
L70482 74099
" />
<path d="M70871 74886
L70937 74361
" />
<path d="M70970 74099
L70927 74136
L70960 74174
L71002 74136
L70970 74099
L70960 74174
" />
<path d="M71199 74361
L71499 74361
" />
<path d="M71345 74099
L71260 74774
L71288 74849
L71359 74886
L71434 74886
" />
<path d="M71809 74886
L71738 74849
L71710 74774
L71795 74099
" />
<path d="M72413 74849
L72334 74886
L72184 74886
L72113 74849
L72085 74774
L72123 74474
L72169 74399
L72249 74361
L72399 74361
L72469 74399
L72498 74474
L72488 74549
L72104 74624
" />
<path d="M72793 74811
L72826 74849
L72783 74886
L72751 74849
L72793 74811
L72783 74886
" />
<path d="M72844 74399
L72877 74436
L72835 74474
L72802 74436
L72844 74399
L72835 74474
" />
</g>
<g style="fill:#000000; fill-opacity:0.0; 
stroke:#000000; stroke-width:39.3701; stroke-opacity:1; 
stroke-linecap:round; stroke-linejoin:round;">
</g>
<g style="fill:#000000; fill-opacity:0.0; 
stroke:#000000; stroke-width:59.0551; stroke-opacity:1; 
stroke-linecap:round; stroke-linejoin:round;">
<path d="M70417 73070
L70220 73070
" />
<path d="M70220 73380
L70220 72789
L70501 72789
" />
<path d="M70726 73380
L70726 72986
" />
<path d="M70726 72789
L70698 72817
L70726 72845
L70754 72817
L70726 72789
L70726 72845
" />
<path d="M71091 73380
L71035 73352
L71007 73295
L71007 72789
" />
<path d="M71541 73352
L71485 73380
L71373 73380
L71316 73352
L71288 73295
L71288 73070
L71316 73014
L71373 72986
L71485 72986
L71541 73014
L71570 73070
L71570 73127
L71288 73183
" />
<path d="M71823 73323
L71851 73352
L71823 73380
L71795 73352
L71823 73323
L71823 73380
" />
<path d="M71823 73014
L71851 73042
L71823 73070
L71795 73042
L71823 73014
L71823 73070
" />
<path d="M72554 72986
L72554 73577
" />
<path d="M72554 73014
L72610 72986
L72723 72986
L72779 73014
L72807 73042
L72835 73099
L72835 73267
L72807 73323
L72779 73352
L72723 73380
L72610 73380
L72554 73352
" />
<path d="M73172 73380
L73116 73352
L73088 73323
L73060 73267
L73060 73099
L73088 73042
L73116 73014
L73172 72986
L73257 72986
L73313 73014
L73341 73042
L73369 73099
L73369 73267
L73341 73323
L73313 73352
L73257 73380
L73172 73380
" />
<path d="M73566 72986
L73679 73380
L73791 73099
L73904 73380
L74016 72986
" />
<path d="M74466 73352
L74410 73380
L74297 73380
L74241 73352
L74213 73295
L74213 73070
L74241 73014
L74297 72986
L74410 72986
L74466 73014
L74494 73070
L74494 73127
L74213 73183
" />
<path d="M74747 73380
L74747 72986
" />
<path d="M74747 73099
L74775 73042
L74804 73014
L74860 72986
L74916 72986
" />
<path d="M75113 73155
L75563 73155
" />
<path d="M75844 73380
L75844 72789
" />
<path d="M75844 73014
L75900 72986
L76013 72986
L76069 73014
L76097 73042
L76125 73099
L76125 73267
L76097 73323
L76069 73352
L76013 73380
L75900 73380
L75844 73352
" />
<path d="M76463 73380
L76406 73352
L76378 73323
L76350 73267
L76350 73099
L76378 73042
L76406 73014
L76463 72986
L76547 72986
L76603 73014
L76631 73042
L76660 73099
L76660 73267
L76631 73323
L76603 73352
L76547 73380
L76463 73380
" />
<path d="M77166 73380
L77166 73070
L77138 73014
L77081 72986
L76969 72986
L76913 73014
" />
<path d="M77166 73352
L77109 73380
L76969 73380
L76913 73352
L76885 73295
L76885 73239
L76913 73183
L76969 73155
L77109 73155
L77166 73127
" />
<path d="M77447 73380
L77447 72986
" />
<path d="M77447 73099
L77475 73042
L77503 73014
L77559 72986
L77616 72986
" />
<path d="M78066 73380
L78066 72789
" />
<path d="M78066 73352
L78009 73380
L77897 73380
L77841 73352
L77813 73323
L77784 73267
L77784 73099
L77813 73042
L77841 73014
L77897 72986
L78009 72986
L78066 73014
" />
<path d="M78347 73323
L78375 73352
L78347 73380
L78319 73352
L78347 73323
L78347 73380
" />
<path d="M78628 73380
L78628 72789
" />
<path d="M78684 73155
L78853 73380
" />
<path d="M78853 72986
L78628 73211
" />
<path d="M79106 73380
L79106 72986
" />
<path d="M79106 72789
L79078 72817
L79106 72845
L79134 72817
L79106 72789
L79106 72845
" />
<path d="M79640 73352
L79584 73380
L79472 73380
L79415 73352
L79387 73323
L79359 73267
L79359 73099
L79387 73042
L79415 73014
L79472 72986
L79584 72986
L79640 73014
" />
<path d="M80147 73380
L80147 73070
L80118 73014
L80062 72986
L79950 72986
L79894 73014
" />
<path d="M80147 73352
L80090 73380
L79950 73380
L79894 73352
L79865 73295
L79865 73239
L79894 73183
L79950 73155
L80090 73155
L80147 73127
" />
<path d="M80681 73380
L80681 72789
" />
<path d="M80681 73352
L80625 73380
L80512 73380
L80456 73352
L80428 73323
L80400 73267
L80400 73099
L80428 73042
L80456 73014
L80512 72986
L80625 72986
L80681 73014
" />
<path d="M80822 73436
L81271 73436
" />
<path d="M81412 72986
L81412 73577
" />
<path d="M81412 73014
L81468 72986
L81581 72986
L81637 73014
L81665 73042
L81693 73099
L81693 73267
L81665 73323
L81637 73352
L81581 73380
L81468 73380
L81412 73352
" />
<path d="M82199 73352
L82143 73380
L82031 73380
L81974 73352
L81946 73323
L81918 73267
L81918 73099
L81946 73042
L81974 73014
L82031 72986
L82143 72986
L82199 73014
" />
<path d="M82453 73380
L82453 72789
" />
<path d="M82453 73014
L82509 72986
L82621 72986
L82678 73014
L82706 73042
L82734 73099
L82734 73267
L82706 73323
L82678 73352
L82621 73380
L82509 73380
L82453 73352
" />
</g>
<g style="fill:#000000; fill-opacity:0.0; 
stroke:#000000; stroke-width:39.3701; stroke-opacity:1; 
stroke-linecap:round; stroke-linejoin:round;">
</g>
<g style="fill:#000000; fill-opacity:0.0; 
stroke:#000000; stroke-width:59.0551; stroke-opacity:1; 
stroke-linecap:round; stroke-linejoin:round;">
<path d="M69685 71459
L112205 71459
" />
</g>
<g style="fill:#000000; fill-opacity:0.0; 
stroke:#000000; stroke-width:39.3701; stroke-opacity:1; 
stroke-linecap:round; stroke-linejoin:round;">
</g>
<g style="fill:#000000; fill-opacity:0.0; 
stroke:#000000; stroke-width:59.0551; stroke-opacity:1; 
stroke-linecap:round; stroke-linejoin:round;">
<path d="M70192 72289
L70276 72317
L70417 72317
L70473 72289
L70501 72260
L70529 72204
L70529 72148
L70501 72092
L70473 72064
L70417 72036
L70304 72007
L70248 71979
L70220 71951
L70192 71895
L70192 71839
L70220 71782
L70248 71754
L70304 71726
L70445 71726
L70529 71754
" />
<path d="M70782 72317
L70782 71726
" />
<path d="M71035 72317
L71035 72007
L71007 71951
L70951 71923
L70867 71923
L70810 71951
L70782 71979
" />
<path d="M71541 72289
L71485 72317
L71373 72317
L71316 72289
L71288 72232
L71288 72007
L71316 71951
L71373 71923
L71485 71923
L71541 71951
L71570 72007
L71570 72064
L71288 72120
" />
<path d="M72048 72289
L71991 72317
L71879 72317
L71823 72289
L71795 72232
L71795 72007
L71823 71951
L71879 71923
L71991 71923
L72048 71951
L72076 72007
L72076 72064
L71795 72120
" />
<path d="M72244 71923
L72469 71923
" />
<path d="M72329 71726
L72329 72232
L72357 72289
L72413 72317
L72469 72317
" />
<path d="M72666 72260
L72694 72289
L72666 72317
L72638 72289
L72666 72260
L72666 72317
" />
<path d="M72666 71951
L72694 71979
L72666 72007
L72638 71979
L72666 71951
L72666 72007
" />
</g>
<g style="fill:#000000; fill-opacity:0.0; 
stroke:#000000; stroke-width:39.3701; stroke-opacity:1; 
stroke-linecap:round; stroke-linejoin:round;">
</g>
<g style="fill:#000000; fill-opacity:0.0; 
stroke:#000000; stroke-width:59.0551; stroke-opacity:1; 
stroke-linecap:round; stroke-linejoin:round;">
<path d="M77559 75396
L77559 76577
" />
</g>
<g style="fill:#000000; fill-opacity:0.0; 
stroke:#000000; stroke-width:39.3701; stroke-opacity:1; 
stroke-linecap:round; stroke-linejoin:round;">
</g>
<g style="fill:#000000; fill-opacity:0.0; 
stroke:#000000; stroke-width:59.0551; stroke-opacity:1; 
stroke-linecap:round; stroke-linejoin:round;">
<path d="M102756 75396
L102756 77955
" />
</g>
<g style="fill:#C2C200; fill-opacity:0.0; 
stroke:#C2C200; stroke-width:59.0551; stroke-opacity:1; 
stroke-linecap:round; stroke-linejoin:round;">
<path d="M67519.7 16141.7 A1377.95 1377.95 0.0 0 0 66141.7 17519.7 " />
<path d="M100196 16141
L67519 16141
" />
<path d="M66141 42322
L66141 17519
" />
<path d="M66141.7 42322.8 A1377.95 1377.95 0.0 0 0 67519.7 43700.8 " />
<path d="M100196 43700
L67519 43700
" />
<path d="M101574 17519
L101574 42322
" />
<path d="M101575 17519.7 A1377.95 1377.95 0.0 0 0 100197 16141.7 " />
<path d="M100197 43700.8 A1377.95 1377.95 0.0 0 0 101575 42322.8 " />
<path d="M93415 24784
L93415 25103
L93434 25140
L93453 25159
L93490 25178
L93565 25178
L93603 25159
L93621 25140
L93640 25103
L93640 24784
" />
<path d="M93996 24784
L93921 24784
L93884 24803
L93865 24821
L93828 24878
L93809 24953
L93809 25103
L93828 25140
L93846 25159
L93884 25178
L93959 25178
L93996 25159
L94015 25140
L94034 25103
L94034 25009
L94015 24971
L93996 24953
L93959 24934
L93884 24934
L93846 24953
L93828 24971
L93809 25009
" />
<path d="M94278 24784
L94315 24784
L94353 24803
L94371 24821
L94390 24859
L94409 24934
L94409 25028
L94390 25103
L94371 25140
L94353 25159
L94315 25178
L94278 25178
L94240 25159
L94221 25140
L94203 25103
L94184 25028
L94184 24934
L94203 24859
L94221 24821
L94240 24803
L94278 24784
" />
<path d="M94784 25178
L94559 25178
" />
<path d="M94671 25178
L94671 24784
L94634 24840
L94596 24878
L94559 24896
" />
<path d="M83183 26752
L83183 27071
L83202 27109
L83220 27127
L83258 27146
L83333 27146
L83370 27127
L83389 27109
L83408 27071
L83408 26752
" />
<path d="M83558 26752
L83820 26752
L83652 27146
" />
<path d="M84045 26752
L84083 26752
L84120 26771
L84139 26790
L84158 26827
L84176 26902
L84176 26996
L84158 27071
L84139 27109
L84120 27127
L84083 27146
L84045 27146
L84008 27127
L83989 27109
L83970 27071
L83952 26996
L83952 26902
L83970 26827
L83989 26790
L84008 26771
L84045 26752
" />
<path d="M84551 27146
L84326 27146
" />
<path d="M84439 27146
L84439 26752
L84401 26809
L84364 26846
L84326 26865
" />
<path d="M76921 25904
L76902 25923
L76846 25941
L76809 25941
L76752 25923
L76715 25885
L76696 25848
L76677 25773
L76677 25716
L76696 25641
L76715 25604
L76752 25566
L76809 25548
L76846 25548
L76902 25566
L76921 25585
" />
<path d="M77052 25548
L77296 25548
L77165 25698
L77221 25698
L77259 25716
L77277 25735
L77296 25773
L77296 25866
L77277 25904
L77259 25923
L77221 25941
L77109 25941
L77071 25923
L77052 25904
" />
<path d="M77540 25548
L77577 25548
L77615 25566
L77634 25585
L77652 25623
L77671 25698
L77671 25791
L77652 25866
L77634 25904
L77615 25923
L77577 25941
L77540 25941
L77502 25923
L77484 25904
L77465 25866
L77446 25791
L77446 25698
L77465 25623
L77484 25585
L77502 25566
L77540 25548
" />
<path d="M78046 25941
L77821 25941
" />
<path d="M77934 25941
L77934 25548
L77896 25604
L77859 25641
L77821 25660
" />
<path d="M74983 27999
L75001 28018
L75020 28074
L75020 28112
L75001 28168
L74964 28205
L74926 28224
L74851 28243
L74795 28243
L74720 28224
L74683 28205
L74645 28168
L74626 28112
L74626 28074
L74645 28018
L74664 27999
" />
<path d="M74626 27868
L74626 27624
L74776 27755
L74776 27699
L74795 27662
L74814 27643
L74851 27624
L74945 27624
L74983 27643
L75001 27662
L75020 27699
L75020 27812
L75001 27849
L74983 27868
" />
<path d="M74626 27380
L74626 27343
L74645 27305
L74664 27287
L74701 27268
L74776 27249
L74870 27249
L74945 27268
L74983 27287
L75001 27305
L75020 27343
L75020 27380
L75001 27418
L74983 27437
L74945 27455
L74870 27474
L74776 27474
L74701 27455
L74664 27437
L74645 27418
L74626 27380
" />
<path d="M74664 27099
L74645 27080
L74626 27043
L74626 26949
L74645 26912
L74664 26893
L74701 26874
L74739 26874
L74795 26893
L75020 27118
L75020 26874
" />
<path d="M66634 28421
L66241 28421
L66241 28327
L66259 28271
L66297 28233
L66334 28215
L66409 28196
L66466 28196
L66541 28215
L66578 28233
L66616 28271
L66634 28327
L66634 28421
" />
<path d="M66241 28065
L66241 27821
L66391 27952
L66391 27896
L66409 27859
L66428 27840
L66466 27821
L66559 27821
L66597 27840
L66616 27859
L66634 27896
L66634 28008
L66616 28046
L66597 28065
" />
<path d="M66241 27577
L66241 27540
L66259 27502
L66278 27484
L66316 27465
L66391 27446
L66484 27446
L66559 27465
L66597 27484
L66616 27502
L66634 27540
L66634 27577
L66616 27615
L66597 27634
L66559 27652
L66484 27671
L66391 27671
L66316 27652
L66278 27634
L66259 27615
L66241 27577
" />
<path d="M66634 27071
L66634 27296
" />
<path d="M66634 27184
L66241 27184
L66297 27221
L66334 27259
L66353 27296
" />
<path d="M67530 23143
L67530 23275
" />
<path d="M67737 23275
L67343 23275
L67343 23087
" />
<path d="M67343 22975
L67343 22731
L67493 22862
L67493 22806
L67512 22769
L67530 22750
L67568 22731
L67662 22731
L67699 22750
L67718 22769
L67737 22806
L67737 22919
L67718 22956
L67699 22975
" />
<path d="M67343 22487
L67343 22450
L67362 22412
L67380 22394
L67418 22375
L67493 22356
L67587 22356
L67662 22375
L67699 22394
L67718 22412
L67737 22450
L67737 22487
L67718 22525
L67699 22544
L67662 22562
L67587 22581
L67493 22581
L67418 22562
L67380 22544
L67362 22525
L67343 22487
" />
<path d="M67737 21981
L67737 22206
" />
<path d="M67737 22094
L67343 22094
L67399 22131
L67437 22169
L67455 22206
" />
<path d="M70399 16989
L70399 17270
L70380 17326
L70343 17364
L70286 17382
L70249 17382
" />
<path d="M70549 16989
L70793 16989
L70661 17139
L70718 17139
L70755 17157
L70774 17176
L70793 17214
L70793 17307
L70774 17345
L70755 17364
L70718 17382
L70605 17382
L70568 17364
L70549 17345
" />
<path d="M71036 16989
L71074 16989
L71111 17007
L71130 17026
L71149 17064
L71167 17139
L71167 17232
L71149 17307
L71130 17345
L71111 17364
L71074 17382
L71036 17382
L70999 17364
L70980 17345
L70961 17307
L70943 17232
L70943 17139
L70961 17064
L70980 17026
L70999 17007
L71036 16989
" />
<path d="M71542 17382
L71317 17382
" />
<path d="M71430 17382
L71430 16989
L71392 17045
L71355 17082
L71317 17101
" />
</g>
<g style="fill:#008484; fill-opacity:0.0; 
stroke:#008484; stroke-width:59.0551; stroke-opacity:1; 
stroke-linecap:round; stroke-linejoin:round;">
<path d="M93307 21059
L93307 20666
L93457 20666
L93494 20685
L93513 20703
L93532 20741
L93532 20797
L93513 20835
L93494 20853
L93457 20872
L93307 20872
" />
<path d="M93700 21059
L93700 20666
L93794 20666
L93850 20685
L93888 20722
L93907 20760
L93925 20835
L93925 20891
L93907 20966
L93888 21003
L93850 21041
L93794 21059
L93700 21059
" />
<path d="M94094 21059
L94094 20666
" />
</g>
<g style="fill:#C2C200; fill-opacity:0.0; 
stroke:#C2C200; stroke-width:59.0551; stroke-opacity:1; 
stroke-linecap:round; stroke-linejoin:round;">
<path d="M85243 15284
L85243 15565
L85225 15621
L85187 15659
L85131 15678
L85093 15678
" />
<path d="M85487 15453
L85450 15434
L85431 15415
L85412 15378
L85412 15359
L85431 15321
L85450 15303
L85487 15284
L85562 15284
L85600 15303
L85618 15321
L85637 15359
L85637 15378
L85618 15415
L85600 15434
L85562 15453
L85487 15453
L85450 15471
L85431 15490
L85412 15528
L85412 15603
L85431 15640
L85450 15659
L85487 15678
L85562 15678
L85600 15659
L85618 15640
L85637 15603
L85637 15528
L85618 15490
L85600 15471
L85562 15453
" />
<path d="M85881 15284
L85918 15284
L85956 15303
L85974 15321
L85993 15359
L86012 15434
L86012 15528
L85993 15603
L85974 15640
L85956 15659
L85918 15678
L85881 15678
L85843 15659
L85824 15640
L85806 15603
L85787 15528
L85787 15434
L85806 15359
L85824 15321
L85843 15303
L85881 15284
" />
<path d="M86387 15678
L86162 15678
" />
<path d="M86274 15678
L86274 15284
L86237 15340
L86199 15378
L86162 15396
" />
</g>
<g style="fill:#008484; fill-opacity:0.0; 
stroke:#008484; stroke-width:59.0551; stroke-opacity:1; 
stroke-linecap:round; stroke-linejoin:round;">
<path d="M100178 22553
L99784 22553
L99784 22403
L99803 22365
L99821 22347
L99859 22328
L99915 22328
L99953 22347
L99971 22365
L99990 22403
L99990 22553
" />
<path d="M100065 22178
L100065 21991
" />
<path d="M100178 22215
L99784 22084
L100178 21953
" />
<path d="M100309 21709
L100309 21803
L99746 21803
L99746 21709
" />
<path d="M99784 21372
L99784 21559
L99971 21578
L99953 21559
L99934 21522
L99934 21428
L99953 21391
L99971 21372
L100009 21353
L100103 21353
L100140 21372
L100159 21391
L100178 21428
L100178 21522
L100159 21559
L100140 21578
" />
<path d="M100140 21184
L100159 21166
L100178 21184
L100159 21203
L100140 21184
L100178 21184
" />
<path d="M100140 20997
L100159 20978
L100178 20997
L100159 21016
L100140 20997
L100178 20997
" />
<path d="M99784 20847
L99784 20584
L100178 20753
" />
<path d="M100309 20472
L100309 20378
L99746 20378
L99746 20472
" />
<path d="M100178 27109
L99784 27109
L99784 26959
L99803 26921
L99821 26902
L99859 26884
L99915 26884
L99953 26902
L99971 26921
L99990 26959
L99990 27109
" />
<path d="M99971 26584
L99990 26527
L100009 26509
L100046 26490
L100103 26490
L100140 26509
L100159 26527
L100178 26565
L100178 26715
L99784 26715
L99784 26584
L99803 26546
L99821 26527
L99859 26509
L99896 26509
L99934 26527
L99953 26546
L99971 26584
L99971 26715
" />
<path d="M100309 26209
L100309 26302
L99746 26302
L99746 26209
" />
<path d="M99784 25984
L99784 25946
L99803 25909
L99821 25890
L99859 25871
L99934 25853
L100028 25853
L100103 25871
L100140 25890
L100159 25909
L100178 25946
L100178 25984
L100159 26021
L100140 26040
L100103 26059
L100028 26077
L99934 26077
L99859 26059
L99821 26040
L99803 26021
L99784 25984
" />
<path d="M100140 25684
L100159 25665
L100178 25684
L100159 25703
L100140 25684
L100178 25684
" />
<path d="M100140 25496
L100159 25478
L100178 25496
L100159 25515
L100140 25496
L100178 25496
" />
<path d="M99784 25346
L99784 25103
L99934 25234
L99934 25178
L99953 25140
L99971 25121
L100009 25103
L100103 25103
L100140 25121
L100159 25140
L100178 25178
L100178 25290
L100159 25328
L100140 25346
" />
<path d="M100309 24971
L100309 24878
L99746 24878
L99746 24971
" />
</g>
<g style="fill:#C2C200; fill-opacity:0.0; 
stroke:#C2C200; stroke-width:59.0551; stroke-opacity:1; 
stroke-linecap:round; stroke-linejoin:round;">
<path d="M69835 31595
L69703 31407
" />
<path d="M69610 31595
L69610 31201
L69760 31201
L69797 31220
L69816 31239
L69835 31276
L69835 31332
L69816 31370
L69797 31389
L69760 31407
L69610 31407
" />
<path d="M69966 31201
L70209 31201
L70078 31351
L70134 31351
L70172 31370
L70191 31389
L70209 31426
L70209 31520
L70191 31557
L70172 31576
L70134 31595
L70022 31595
L69985 31576
L69966 31557
" />
<path d="M70453 31201
L70491 31201
L70528 31220
L70547 31239
L70566 31276
L70584 31351
L70584 31445
L70566 31520
L70547 31557
L70528 31576
L70491 31595
L70453 31595
L70416 31576
L70397 31557
L70378 31520
L70359 31445
L70359 31351
L70378 31276
L70397 31239
L70416 31220
L70453 31201
" />
<path d="M70959 31595
L70734 31595
" />
<path d="M70847 31595
L70847 31201
L70809 31257
L70772 31295
L70734 31314
" />
<path d="M71016 24823
L70884 24636
" />
<path d="M70791 24823
L70791 24430
L70941 24430
L70978 24448
L70997 24467
L71016 24505
L71016 24561
L70997 24598
L70978 24617
L70941 24636
L70791 24636
" />
<path d="M71147 24430
L71391 24430
L71259 24580
L71316 24580
L71353 24598
L71372 24617
L71391 24655
L71391 24748
L71372 24786
L71353 24805
L71316 24823
L71203 24823
L71166 24805
L71147 24786
" />
<path d="M71634 24430
L71672 24430
L71709 24448
L71728 24467
L71747 24505
L71766 24580
L71766 24673
L71747 24748
L71728 24786
L71709 24805
L71672 24823
L71634 24823
L71597 24805
L71578 24786
L71559 24748
L71541 24673
L71541 24580
L71559 24505
L71578 24467
L71597 24448
L71634 24430
" />
<path d="M71916 24467
L71934 24448
L71972 24430
L72065 24430
L72103 24448
L72122 24467
L72140 24505
L72140 24542
L72122 24598
L71897 24823
L72140 24823
" />
<path d="M71035 25729
L70904 25541
" />
<path d="M70810 25729
L70810 25335
L70960 25335
L70998 25354
L71017 25373
L71035 25410
L71035 25466
L71017 25504
L70998 25523
L70960 25541
L70810 25541
" />
<path d="M71167 25335
L71410 25335
L71279 25485
L71335 25485
L71373 25504
L71392 25523
L71410 25560
L71410 25654
L71392 25691
L71373 25710
L71335 25729
L71223 25729
L71185 25710
L71167 25691
" />
<path d="M71654 25335
L71691 25335
L71729 25354
L71748 25373
L71766 25410
L71785 25485
L71785 25579
L71766 25654
L71748 25691
L71729 25710
L71691 25729
L71654 25729
L71616 25710
L71598 25691
L71579 25654
L71560 25579
L71560 25485
L71579 25410
L71598 25373
L71616 25354
L71654 25335
" />
<path d="M71916 25335
L72160 25335
L72029 25485
L72085 25485
L72123 25504
L72141 25523
L72160 25560
L72160 25654
L72141 25691
L72123 25710
L72085 25729
L71973 25729
L71935 25710
L71916 25691
" />
<path d="M72590 25729
L72459 25541
" />
<path d="M72365 25729
L72365 25335
L72515 25335
L72553 25354
L72572 25373
L72590 25410
L72590 25466
L72572 25504
L72553 25523
L72515 25541
L72365 25541
" />
<path d="M72722 25335
L72965 25335
L72834 25485
L72890 25485
L72928 25504
L72947 25523
L72965 25560
L72965 25654
L72947 25691
L72928 25710
L72890 25729
L72778 25729
L72740 25710
L72722 25691
" />
<path d="M73209 25335
L73247 25335
L73284 25354
L73303 25373
L73322 25410
L73340 25485
L73340 25579
L73322 25654
L73303 25691
L73284 25710
L73247 25729
L73209 25729
L73172 25710
L73153 25691
L73134 25654
L73115 25579
L73115 25485
L73134 25410
L73153 25373
L73172 25354
L73209 25335
" />
<path d="M73678 25466
L73678 25729
" />
<path d="M73584 25316
L73490 25598
L73734 25598
" />
</g>
<g style="fill:#008484; fill-opacity:0.0; 
stroke:#008484; stroke-width:59.0551; stroke-opacity:1; 
stroke-linecap:round; stroke-linejoin:round;">
<path d="M91678 19178
L91546 18990
" />
<path d="M91453 19178
L91453 18784
L91603 18784
L91640 18803
L91659 18821
L91678 18859
L91678 18915
L91659 18953
L91640 18971
L91603 18990
L91453 18990
" />
<path d="M91846 18971
L91978 18971
" />
<path d="M92034 19178
L91846 19178
L91846 18784
L92034 18784
" />
<path d="M92184 19159
L92240 19178
L92334 19178
L92371 19159
L92390 19140
L92409 19103
L92409 19065
L92390 19028
L92371 19009
L92334 18990
L92259 18971
L92221 18953
L92203 18934
L92184 18896
L92184 18859
L92203 18821
L92221 18803
L92259 18784
L92353 18784
L92409 18803
" />
<path d="M92578 18971
L92709 18971
" />
<path d="M92765 19178
L92578 19178
L92578 18784
L92765 18784
" />
<path d="M92878 18784
L93103 18784
" />
<path d="M92990 19178
L92990 18784
" />
</g>
<g style="fill:#C2C200; fill-opacity:0.0; 
stroke:#C2C200; stroke-width:59.0551; stroke-opacity:1; 
stroke-linecap:round; stroke-linejoin:round;">
<path d="M71569 27343
L71569 27662
L71587 27699
L71606 27718
L71644 27737
L71719 27737
L71756 27718
L71775 27699
L71794 27662
L71794 27343
" />
<path d="M71944 27343
L72187 27343
L72056 27493
L72112 27493
L72150 27512
L72169 27530
L72187 27568
L72187 27662
L72169 27699
L72150 27718
L72112 27737
L72000 27737
L71962 27718
L71944 27699
" />
<path d="M72431 27343
L72469 27343
L72506 27362
L72525 27380
L72544 27418
L72562 27493
L72562 27587
L72544 27662
L72525 27699
L72506 27718
L72469 27737
L72431 27737
L72394 27718
L72375 27699
L72356 27662
L72337 27587
L72337 27493
L72356 27418
L72375 27380
L72394 27362
L72431 27343
" />
<path d="M72937 27737
L72712 27737
" />
<path d="M72825 27737
L72825 27343
L72787 27399
L72750 27437
L72712 27455
" />
</g>
<g style="fill:#008484; fill-opacity:0.0; 
stroke:#008484; stroke-width:59.0551; stroke-opacity:1; 
stroke-linecap:round; stroke-linejoin:round;">
<path d="M100178 31046
L99784 31046
L99784 30896
L99803 30858
L99821 30839
L99859 30821
L99915 30821
L99953 30839
L99971 30858
L99990 30896
L99990 31046
" />
<path d="M100140 30427
L100159 30446
L100178 30502
L100178 30539
L100159 30596
L100121 30633
L100084 30652
L100009 30671
L99953 30671
L99878 30652
L99840 30633
L99803 30596
L99784 30539
L99784 30502
L99803 30446
L99821 30427
" />
<path d="M100309 30146
L100309 30239
L99746 30239
L99746 30146
" />
<path d="M99784 29921
L99784 29883
L99803 29846
L99821 29827
L99859 29808
L99934 29790
L100028 29790
L100103 29808
L100140 29827
L100159 29846
L100178 29883
L100178 29921
L100159 29958
L100140 29977
L100103 29996
L100028 30014
L99934 30014
L99859 29996
L99821 29977
L99803 29958
L99784 29921
" />
<path d="M100140 29621
L100159 29602
L100178 29621
L100159 29640
L100140 29621
L100178 29621
" />
<path d="M100140 29433
L100159 29415
L100178 29433
L100159 29452
L100140 29433
L100178 29433
" />
<path d="M100178 29040
L100178 29265
" />
<path d="M100178 29152
L99784 29152
L99840 29190
L99878 29227
L99896 29265
" />
<path d="M100309 28908
L100309 28815
L99746 28815
L99746 28908
" />
<path d="M78017 39510
L77999 39529
L77943 39548
L77905 39548
L77849 39529
L77811 39491
L77793 39454
L77774 39379
L77774 39323
L77793 39248
L77811 39210
L77849 39173
L77905 39154
L77943 39154
L77999 39173
L78017 39191
" />
<path d="M78167 39529
L78224 39548
L78317 39548
L78355 39529
L78374 39510
L78392 39473
L78392 39435
L78374 39398
L78355 39379
L78317 39360
L78242 39341
L78205 39323
L78186 39304
L78167 39266
L78167 39229
L78186 39191
L78205 39173
L78242 39154
L78336 39154
L78392 39173
" />
<path d="M78561 39548
L78561 39154
" />
<path d="M78561 39341
L78786 39341
" />
<path d="M78786 39548
L78786 39154
" />
<path d="M78955 39435
L79142 39435
" />
<path d="M78917 39548
L79049 39154
L79180 39548
" />
<path d="M79536 39548
L79405 39360
" />
<path d="M79311 39548
L79311 39154
L79461 39154
L79499 39173
L79517 39191
L79536 39229
L79536 39285
L79517 39323
L79499 39341
L79461 39360
L79311 39360
" />
<path d="M79705 39341
L79836 39341
" />
<path d="M79892 39548
L79705 39548
L79705 39154
L79892 39154
" />
<path d="M79967 39585
L80267 39585
" />
<path d="M80361 39548
L80361 39154
" />
<path d="M80548 39548
L80548 39154
L80773 39548
L80773 39154
" />
<path d="M87511 39510
L87492 39529
L87436 39548
L87398 39548
L87342 39529
L87305 39491
L87286 39454
L87267 39379
L87267 39323
L87286 39248
L87305 39210
L87342 39173
L87398 39154
L87436 39154
L87492 39173
L87511 39191
" />
<path d="M87661 39529
L87717 39548
L87811 39548
L87848 39529
L87867 39510
L87886 39473
L87886 39435
L87867 39398
L87848 39379
L87811 39360
L87736 39341
L87698 39323
L87680 39304
L87661 39266
L87661 39229
L87680 39191
L87698 39173
L87736 39154
L87830 39154
L87886 39173
" />
<path d="M88055 39548
L88055 39154
" />
<path d="M88055 39341
L88280 39341
" />
<path d="M88280 39548
L88280 39154
" />
<path d="M88448 39435
L88636 39435
" />
<path d="M88411 39548
L88542 39154
L88673 39548
" />
<path d="M89029 39548
L88898 39360
" />
<path d="M88805 39548
L88805 39154
L88955 39154
L88992 39173
L89011 39191
L89029 39229
L89029 39285
L89011 39323
L88992 39341
L88955 39360
L88805 39360
" />
<path d="M89198 39341
L89329 39341
" />
<path d="M89386 39548
L89198 39548
L89198 39154
L89386 39154
" />
<path d="M89461 39585
L89761 39585
" />
<path d="M89929 39154
L90004 39154
L90042 39173
L90079 39210
L90098 39285
L90098 39416
L90079 39491
L90042 39529
L90004 39548
L89929 39548
L89892 39529
L89854 39491
L89836 39416
L89836 39285
L89854 39210
L89892 39173
L89929 39154
" />
<path d="M90267 39154
L90267 39473
L90286 39510
L90304 39529
L90342 39548
L90417 39548
L90454 39529
L90473 39510
L90492 39473
L90492 39154
" />
<path d="M90623 39154
L90848 39154
" />
<path d="M90736 39548
L90736 39154
" />
<path d="M92041 27064
L92267 27064
" />
<path d="M92041 22990
L92307 22990
" />
<path d="M96116 22990
L95850 22990
" />
<path d="M96116 27064
L95850 27064
" />
<path d="M92041 27064
L92041 26799
" />
<path d="M96116 27064
L96116 26799
" />
<path d="M96116 22990
L96116 23255
" />
<path d="M92041 22990
L92041 23255
" />
<path d="M92267 27064
L92267 27566
" />
<path d="M79527 32883
L78740 32883
" />
<path d="M78740 34045
L79527 34045
" />
<path d="M73641 31614
L74783 31614
" />
<path d="M73287 31614
L73385 31614
" />
<path d="M72933 31614
L73031 31614
" />
<path d="M72578 31614
L72677 31614
" />
<path d="M72244 31614
L72322 31614
" />
<path d="M71870 31614
L71968 31614
" />
<path d="M71712 31397
L71712 31496
" />
<path d="M71712 31043
L71712 31141
" />
<path d="M71633 31003
L71633 31161
" />
<path d="M71712 30629
L71712 30787
" />
<path d="M71633 30610
L71633 30807
" />
<path d="M71712 30216
L71712 30374
" />
<path d="M71633 30196
L71633 30393
" />
<path d="M71633 29842
L71633 29980
" />
<path d="M71712 29862
L71712 29980
" />
<path d="M71712 29507
L71712 29606
" />
<path d="M71988 29409
L71889 29409
" />
<path d="M72342 29409
L72244 29409
" />
<path d="M72696 29409
L72598 29409
" />
<path d="M73051 29409
L72952 29409
" />
<path d="M73405 29409
L73287 29409
" />
<path d="M74783 29409
L73641 29409
" />
<path d="M74783 29881
L74862 29881
" />
<path d="M74862 29881
L74862 29645
" />
<path d="M74862 29645
L74783 29645
" />
<path d="M74783 30393
L74862 30393
" />
<path d="M74862 30393
L74862 30157
" />
<path d="M74862 30157
L74783 30157
" />
<path d="M74783 30866
L74862 30866
" />
<path d="M74862 30866
L74862 30629
" />
<path d="M74862 30629
L74783 30629
" />
<path d="M74783 31377
L74862 31377
" />
<path d="M74862 31377
L74862 31141
" />
<path d="M74862 31141
L74783 31141
" />
<path d="M74783 29409
L74783 31614
" />
<path d="M82529 38031
L82529 37559
" />
<path d="M83218 37559
L83218 38031
" />
<path d="M82529 36653
L82529 36181
" />
<path d="M83218 36181
L83218 36653
" />
</g>
<g style="fill:#008484; fill-opacity:0.0; 
stroke:#008484; stroke-width:47.2441; stroke-opacity:1; 
stroke-linecap:round; stroke-linejoin:round;">
<path d="M82578 38582
L82578 39370
" />
<path d="M82578 39370
L84114 39370
" />
<path d="M82578 38582
L84114 38582
" />
</g>
<g style="fill:#008484; fill-opacity:0.0; 
stroke:#008484; stroke-width:59.0551; stroke-opacity:1; 
stroke-linecap:round; stroke-linejoin:round;">
<path d="M80275 34094
L80275 33818
" />
<path d="M80748 33818
L80748 34094
" />
<path d="M81545 38031
L81545 37559
" />
<path d="M82234 37559
L82234 38031
" />
<path d="M79527 30127
L78740 30127
" />
<path d="M78740 31289
L79527 31289
" />
<path d="M79527 31505
L78740 31505
" />
<path d="M78740 32667
L79527 32667
" />
<path d="M83139 24803
L83139 25196
" />
<path d="M82608 25196
L82608 24803
" />
<path d="M83927 23622
L83927 24015
" />
<path d="M83395 24015
L83395 23622
" />
<path d="M83139 23622
L83139 24015
" />
<path d="M82608 24015
L82608 23622
" />
<path d="M83927 24803
L83927 25196
" />
<path d="M83395 25196
L83395 24803
" />
<path d="M83198 26309
L83198 26377
" />
<path d="M84517 26309
L84517 26407
" />
<path d="M84517 27627
L84517 27529
" />
<path d="M83198 27627
L83198 27529
" />
<path d="M83198 26309
L84517 26309
" />
<path d="M83198 27627
L84517 27627
" />
<path d="M83198 26377
L82706 26377
" />
<path d="M84714 24803
L84714 25196
" />
<path d="M84183 25196
L84183 24803
" />
<path d="M83996 26220
L83720 26220
" />
<path d="M83720 25748
L83996 25748
" />
<path d="M84714 23622
L84714 24015
" />
<path d="M84183 24015
L84183 23622
" />
<path d="M86811 27755
L80905 27755
" />
<path d="M86811 33661
L86811 27755
" />
<path d="M80905 33661
L86811 33661
" />
<path d="M80905 27755
L80905 33661
" />
<path d="M85767 38031
L85492 38031
" />
<path d="M85492 37559
L85767 37559
" />
<path d="M85393 36663
L85866 36663
" />
<path d="M85866 37352
L85393 37352
" />
<path d="M83129 35196
L83405 35196
" />
<path d="M83405 35669
L83129 35669
" />
<path d="M85078 35688
L85078 35964
" />
<path d="M84606 35964
L84606 35688
" />
<path d="M84015 36663
L84488 36663
" />
<path d="M84488 37352
L84015 37352
" />
<path d="M92755 36200
L92755 32421
" />
<path d="M94645 36200
L94645 32421
" />
<path d="M92755 36200
L94645 36200
" />
<path d="M88818 36200
L88818 32421
" />
<path d="M90708 36200
L90708 32421
" />
<path d="M88818 36200
L90708 36200
" />
<path d="M90787 36200
L90787 32421
" />
<path d="M92677 36200
L92677 32421
" />
<path d="M90787 36200
L92677 36200
" />
<path d="M87165 34094
L87165 33818
" />
<path d="M87637 33818
L87637 34094
" />
<path d="M94724 36200
L94724 32421
" />
<path d="M96614 36200
L96614 32421
" />
<path d="M94724 36200
L96614 36200
" />
<path d="M87854 33858
L87854 34251
" />
<path d="M88523 34251
L88523 33858
" />
</g>
<g style="fill:#008484; fill-opacity:0.0; 
stroke:#008484; stroke-width:47.2441; stroke-opacity:1; 
stroke-linecap:round; stroke-linejoin:round;">
<path d="M79311.6 27685.4 A2003.94 2003.94 0.0 0 0 75412.9 27685 " />
<path d="M75412.9 28614.2 A2003.94 2003.94 0.0 0 0 79311.6 28613.9 " />
<path d="M79311.6 28613.9 A2003.94 2003.94 0.0 0 0 79311.5 27685 " />
<path d="M77362 26161
L77362 30137
" />
<path d="M77377 26161
L77377 30137
" />
<path d="M77393 26161
L77393 30137
" />
<path d="M77409 26161
L77409 30137
" />
<path d="M77425 26162
L77425 30137
" />
<path d="M77440 26162
L77440 30136
" />
<path d="M77456 26163
L77456 30135
" />
<path d="M77472 26164
L77472 30135
" />
<path d="M77488 26165
L77488 30133
" />
<path d="M77503 26166
L77503 30133
" />
<path d="M77519 26167
L77519 30131
" />
<path d="M77535 26168
L77535 30130
" />
<path d="M77551 26170
L77551 30129
" />
<path d="M77566 26171
L77566 30127
" />
<path d="M77582 26173
L77582 30125
" />
<path d="M77598 26175
L77598 30124
" />
<path d="M77614 26177
L77614 30122
" />
<path d="M77629 26179
L77629 30120
" />
<path d="M77646 26181
L77646 30117
" />
<path d="M77661 26183
L77661 30115
" />
<path d="M77677 26186
L77677 30112
" />
<path d="M77693 26188
L77693 30110
" />
<path d="M77709 26191
L77709 30107
" />
<path d="M77724 26194
L77724 30105
" />
<path d="M77740 26197
L77740 30101
" />
<path d="M77756 26200
L77756 30098
" />
<path d="M77772 26203
L77772 30095
" />
<path d="M77787 26206
L77787 30092
" />
<path d="M77803 26210
L77803 30088
" />
<path d="M77819 26213
L77819 30085
" />
<path d="M77835 26217
L77835 30081
" />
<path d="M77850 26221
L77850 30077
" />
<path d="M77866 26225
L77866 30073
" />
<path d="M77882 26229
L77882 27684
" />
<path d="M77882 28614
L77882 30069
" />
<path d="M77898 26234
L77898 27684
" />
<path d="M77898 28614
L77898 30064
" />
<path d="M77913 26238
L77913 27684
" />
<path d="M77913 28614
L77913 30060
" />
<path d="M77929 26242
L77929 27684
" />
<path d="M77929 28614
L77929 30056
" />
<path d="M77945 26247
L77945 27684
" />
<path d="M77945 28614
L77945 30051
" />
<path d="M77961 26252
L77961 27684
" />
<path d="M77961 28614
L77961 30046
" />
<path d="M77976 26257
L77976 27684
" />
<path d="M77976 28614
L77976 30041
" />
<path d="M77992 26262
L77992 27684
" />
<path d="M77992 28614
L77992 30036
" />
<path d="M78008 26268
L78008 27684
" />
<path d="M78008 28614
L78008 30031
" />
<path d="M78024 26273
L78024 27684
" />
<path d="M78024 28614
L78024 30025
" />
<path d="M78039 26279
L78039 27684
" />
<path d="M78039 28614
L78039 30020
" />
<path d="M78055 26284
L78055 27684
" />
<path d="M78055 28614
L78055 30014
" />
<path d="M78071 26290
L78071 27684
" />
<path d="M78071 28614
L78071 30008
" />
<path d="M78087 26296
L78087 27684
" />
<path d="M78087 28614
L78087 30002
" />
<path d="M78102 26302
L78102 27684
" />
<path d="M78102 28614
L78102 29996
" />
<path d="M78118 26309
L78118 27684
" />
<path d="M78118 28614
L78118 29989
" />
<path d="M78134 26315
L78134 27684
" />
<path d="M78134 28614
L78134 29983
" />
<path d="M78150 26322
L78150 27684
" />
<path d="M78150 28614
L78150 29976
" />
<path d="M78165 26329
L78165 27684
" />
<path d="M78165 28614
L78165 29970
" />
<path d="M78181 26336
L78181 27684
" />
<path d="M78181 28614
L78181 29962
" />
<path d="M78197 26343
L78197 27684
" />
<path d="M78197 28614
L78197 29955
" />
<path d="M78212 26350
L78212 27684
" />
<path d="M78212 28614
L78212 29948
" />
<path d="M78228 26358
L78228 27684
" />
<path d="M78228 28614
L78228 29940
" />
<path d="M78244 26365
L78244 27684
" />
<path d="M78244 28614
L78244 29933
" />
<path d="M78260 26373
L78260 27684
" />
<path d="M78260 28614
L78260 29925
" />
<path d="M78275 26381
L78275 27684
" />
<path d="M78275 28614
L78275 29917
" />
<path d="M78291 26389
L78291 27684
" />
<path d="M78291 28614
L78291 29909
" />
<path d="M78307 26398
L78307 27684
" />
<path d="M78307 28614
L78307 29901
" />
<path d="M78323 26406
L78323 27684
" />
<path d="M78323 28614
L78323 29892
" />
<path d="M78338 26415
L78338 27684
" />
<path d="M78338 28614
L78338 29883
" />
<path d="M78354 26424
L78354 27684
" />
<path d="M78354 28614
L78354 29875
" />
<path d="M78370 26433
L78370 27684
" />
<path d="M78370 28614
L78370 29866
" />
<path d="M78386 26442
L78386 27684
" />
<path d="M78386 28614
L78386 29856
" />
<path d="M78401 26451
L78401 27684
" />
<path d="M78401 28614
L78401 29847
" />
<path d="M78417 26461
L78417 27684
" />
<path d="M78417 28614
L78417 29837
" />
<path d="M78433 26471
L78433 27684
" />
<path d="M78433 28614
L78433 29827
" />
<path d="M78449 26481
L78449 27684
" />
<path d="M78449 28614
L78449 29817
" />
<path d="M78464 26491
L78464 27684
" />
<path d="M78464 28614
L78464 29807
" />
<path d="M78480 26501
L78480 27684
" />
<path d="M78480 28614
L78480 29797
" />
<path d="M78496 26512
L78496 27684
" />
<path d="M78496 28614
L78496 29786
" />
<path d="M78512 26523
L78512 27684
" />
<path d="M78512 28614
L78512 29775
" />
<path d="M78527 26535
L78527 27684
" />
<path d="M78527 28614
L78527 29764
" />
<path d="M78543 26546
L78543 27684
" />
<path d="M78543 28614
L78543 29752
" />
<path d="M78559 26557
L78559 27684
" />
<path d="M78559 28614
L78559 29741
" />
<path d="M78575 26569
L78575 27684
" />
<path d="M78575 28614
L78575 29729
" />
<path d="M78590 26581
L78590 27684
" />
<path d="M78590 28614
L78590 29717
" />
<path d="M78606 26594
L78606 27684
" />
<path d="M78606 28614
L78606 29705
" />
<path d="M78622 26606
L78622 27684
" />
<path d="M78622 28614
L78622 29692
" />
<path d="M78638 26619
L78638 27684
" />
<path d="M78638 28614
L78638 29679
" />
<path d="M78653 26632
L78653 27684
" />
<path d="M78653 28614
L78653 29666
" />
<path d="M78669 26646
L78669 27684
" />
<path d="M78669 28614
L78669 29653
" />
<path d="M78685 26659
L78685 27684
" />
<path d="M78685 28614
L78685 29639
" />
<path d="M78701 26674
L78701 27684
" />
<path d="M78701 28614
L78701 29625
" />
<path d="M78716 26688
L78716 27684
" />
<path d="M78716 28614
L78716 29611
" />
<path d="M78732 26702
L78732 27684
" />
<path d="M78732 28614
L78732 29596
" />
<path d="M78748 26717
L78748 27684
" />
<path d="M78748 28614
L78748 29581
" />
<path d="M78764 26733
L78764 27684
" />
<path d="M78764 28614
L78764 29566
" />
<path d="M78779 26748
L78779 27684
" />
<path d="M78779 28614
L78779 29550
" />
<path d="M78795 26764
L78795 27684
" />
<path d="M78795 28614
L78795 29534
" />
<path d="M78811 26780
L78811 29518
" />
<path d="M78827 26797
L78827 29501
" />
<path d="M78842 26814
L78842 29484
" />
<path d="M78858 26831
L78858 29467
" />
<path d="M78874 26849
L78874 29449
" />
<path d="M78890 26868
L78890 29431
" />
<path d="M78905 26887
L78905 29412
" />
<path d="M78921 26906
L78921 29392
" />
<path d="M78937 26925
L78937 29373
" />
<path d="M78953 26946
L78953 29353
" />
<path d="M78968 26966
L78968 29332
" />
<path d="M78984 26988
L78984 29310
" />
<path d="M79000 27010
L79000 29288
" />
<path d="M79016 27033
L79016 29266
" />
<path d="M79031 27056
L79031 29242
" />
<path d="M79047 27080
L79047 29218
" />
<path d="M79063 27105
L79063 29193
" />
<path d="M79079 27131
L79079 29168
" />
<path d="M79094 27157
L79094 29141
" />
<path d="M79110 27185
L79110 29113
" />
<path d="M79126 27213
L79126 29085
" />
<path d="M79142 27243
L79142 29055
" />
<path d="M79157 27274
L79157 29024
" />
<path d="M79173 27307
L79173 28992
" />
<path d="M79189 27341
L79189 28957
" />
<path d="M79205 27377
L79205 28922
" />
<path d="M79220 27414
L79220 28884
" />
<path d="M79236 27455
L79236 28843
" />
<path d="M79252 27498
L79252 28800
" />
<path d="M79268 27544
L79268 28754
" />
<path d="M79283 27595
L79283 28703
" />
<path d="M79299 27651
L79299 28647
" />
<path d="M79315 27714
L79315 28584
" />
<path d="M79331 27790
L79331 28509
" />
<path d="M79346 27885
L79346 28414
" />
<path d="M79362 28039
L79362 28259
" />
<path d="M75314 28149
L75905 28149
" />
<path d="M75610 27854
L75610 28444
" />
</g>
<g style="fill:#008484; fill-opacity:0.0; 
stroke:#008484; stroke-width:59.0551; stroke-opacity:1; 
stroke-linecap:round; stroke-linejoin:round;">
<path d="M74350 27755
L74350 27362
" />
<path d="M73681 27362
L73681 27755
" />
<path d="M69763 34637
L69763 34362
" />
<path d="M70236 34362
L70236 34637
" />
<path d="M72263 33887
L72263 33612
" />
<path d="M72736 33612
L72736 33887
" />
<path d="M72263 35137
L72263 34862
" />
<path d="M72736 34862
L72736 35137
" />
<path d="M71387 35736
L71112 35736
" />
<path d="M71112 35263
L71387 35263
" />
<path d="M79236 21362
L79236 21637
" />
<path d="M78763 21637
L78763 21362
" />
<path d="M78053 20584
L78446 20584
" />
<path d="M78446 19915
L78053 19915
" />
<path d="M76446 19915
L76053 19915
" />
<path d="M76053 20584
L76446 20584
" />
<path d="M75736 21612
L75736 21887
" />
<path d="M75263 21887
L75263 21612
" />
<path d="M77446 22915
L77053 22915
" />
<path d="M77053 23584
L77446 23584
" />
<path d="M87755 26303
L87755 26696
" />
<path d="M88425 26696
L88425 26303
" />
<path d="M93169 21614
L93444 21614
" />
<path d="M93444 22086
L93169 22086
" />
<path d="M97576 24362
L97576 24637
" />
<path d="M97104 24637
L97104 24362
" />
<path d="M94978 28486
L94702 28486
" />
<path d="M94702 28013
L94978 28013
" />
<path d="M90604 25137
L90604 24862
" />
<path d="M91076 24862
L91076 25137
" />
<path d="M88755 26303
L88755 26696
" />
<path d="M89425 26696
L89425 26303
" />
<path d="M89893 23834
L90287 23834
" />
<path d="M90287 23165
L89893 23165
" />
<path d="M89893 22834
L90287 22834
" />
<path d="M90287 22165
L89893 22165
" />
<path d="M80637 19486
L80362 19486
" />
<path d="M80362 19013
L80637 19013
" />
<path d="M80303 18834
L80696 18834
" />
<path d="M80696 18165
L80303 18165
" />
<path d="M80637 16986
L80362 16986
" />
<path d="M80362 16513
L80637 16513
" />
<path d="M80303 17834
L80696 17834
" />
<path d="M80696 17165
L80303 17165
" />
<path d="M98287 35393
L98562 35393
" />
<path d="M98562 35866
L98287 35866
" />
<path d="M100137 35866
L99862 35866
" />
<path d="M99862 35393
L100137 35393
" />
<path d="M69744 39173
L69744 39566
" />
<path d="M70413 39566
L70413 39173
" />
<path d="M75649 39173
L75649 39566
" />
<path d="M76318 39566
L76318 39173
" />
<path d="M81555 39173
L81555 39566
" />
<path d="M82224 39566
L82224 39173
" />
<path d="M88976 39822
L88582 39822
" />
<path d="M88582 40492
L88976 40492
" />
<path d="M94488 39822
L94094 39822
" />
<path d="M94094 40492
L94488 40492
" />
<path d="M96200 20511
L95925 20511
" />
<path d="M95925 20039
L96200 20039
" />
<path d="M98464 18169
L98464 18444
" />
<path d="M97992 18444
L97992 18169
" />
</g>
<g style="fill:#008484; fill-opacity:0.0; 
stroke:#008484; stroke-width:47.2441; stroke-opacity:1; 
stroke-linecap:round; stroke-linejoin:round;">
<path d="M69586 29645
L67027 29645
" />
<path d="M69586 29645
L69586 26338
" />
<path d="M67027 29645
L67027 26338
" />
<path d="M69133 22972
L69133 24271
" />
<path d="M69133 24271
L71259 24271
" />
<path d="M69133 22972
L71259 22972
" />
<path d="M75127 19299
L75494 19299
" />
<path d="M76372 19299
L76005 19299
" />
<path d="M76372 19299
L76372 18448
" />
<path d="M75127 19299
L75127 18724
" />
</g>
<g style="fill:#008484; fill-opacity:0.0; 
stroke:#008484; stroke-width:59.0551; stroke-opacity:1; 
stroke-linecap:round; stroke-linejoin:round;">
<path d="M68572 22440
L68572 22834
" />
<path d="M68041 22834
L68041 22440
" />
<path d="M88826 28094
L88354 28094
" />
<path d="M88354 27405
L88826 27405
" />
<path d="M97677 19832
L97204 19832
" />
<path d="M97204 19143
L97677 19143
" />
<path d="M70964 16496
L70964 16338
" />
<path d="M72342 16929
L69586 16929
" />
<path d="M72342 16496
L69586 16496
" />
<path d="M72342 19330
L72342 16338
" />
<path d="M69586 16338
L69586 19330
" />
<path d="M69586 19330
L72342 19330
" />
</g>
<g style="fill:#008484; fill-opacity:0.0; 
stroke:#008484; stroke-width:47.2441; stroke-opacity:1; 
stroke-linecap:round; stroke-linejoin:round;">
<path d="M92950 20381
L92950 20131
" />
<path d="M93200 20381
L92950 20381
" />
</g>
<g style="fill:#008484; fill-opacity:0.0; 
stroke:#008484; stroke-width:59.0551; stroke-opacity:1; 
stroke-linecap:round; stroke-linejoin:round;">
<path d="M81750 16208
L89750 16208
" />
<path d="M81962 16425
L89529 16425
" />
<path d="M81750 19791
L89750 19791
" />
<path d="M81962 19574
L84864 19574
" />
<path d="M86635 19574
L89529 19574
" />
<path d="M84864 19574
L84864 19791
" />
<path d="M86635 19574
L86635 19791
" />
<path d="M81750 16208
L81750 19791
" />
<path d="M81962 16425
L81962 19574
" />
<path d="M89750 16208
L89750 19791
" />
<path d="M89529 16425
L89529 19574
" />
<path d="M81750 16208
L81962 16425
" />
<path d="M89750 16208
L89529 16425
" />
<path d="M81750 19791
L81962 19574
" />
<path d="M89750 19791
L89529 19574
" />
<path d="M70688 43543
L70688 43700
" />
<path d="M72066 43543
L72066 43700
" />
<path d="M73444 43543
L73444 43700
" />
<path d="M69311 43110
L74822 43110
" />
<path d="M69311 43543
L74822 43543
" />
<path d="M69311 40708
L69311 43700
" />
<path d="M74822 43700
L74822 40708
" />
<path d="M74822 40708
L69311 40708
" />
<path d="M76594 43543
L76594 43700
" />
<path d="M77972 43543
L77972 43700
" />
<path d="M79350 43543
L79350 43700
" />
<path d="M75216 43110
L80728 43110
" />
<path d="M75216 43543
L80728 43543
" />
<path d="M75216 40708
L75216 43700
" />
<path d="M80728 43700
L80728 40708
" />
<path d="M80728 40708
L75216 40708
" />
<path d="M82500 43543
L82500 43700
" />
<path d="M83877 43543
L83877 43700
" />
<path d="M85255 43543
L85255 43700
" />
<path d="M81122 43110
L86633 43110
" />
<path d="M81122 43543
L86633 43543
" />
<path d="M81122 40708
L81122 43700
" />
<path d="M86633 43700
L86633 40708
" />
<path d="M86633 40708
L81122 40708
" />
<path d="M88405 43543
L88405 43700
" />
<path d="M89783 43543
L89783 43700
" />
<path d="M91161 43543
L91161 43700
" />
<path d="M87027 43110
L92539 43110
" />
<path d="M87027 43543
L92539 43543
" />
<path d="M87027 40708
L87027 43700
" />
<path d="M92539 43700
L92539 40708
" />
<path d="M92539 40708
L87027 40708
" />
<path d="M94311 43543
L94311 43700
" />
<path d="M95688 43543
L95688 43700
" />
<path d="M97066 43543
L97066 43700
" />
<path d="M92933 43110
L98444 43110
" />
<path d="M92933 43543
L98444 43543
" />
<path d="M92933 40708
L92933 43700
" />
<path d="M98444 43700
L98444 40708
" />
<path d="M98444 40708
L92933 40708
" />
</g>
<g style="fill:#008484; fill-opacity:0.0; 
stroke:#008484; stroke-width:47.2441; stroke-opacity:1; 
stroke-linecap:round; stroke-linejoin:round;">
<path d="M100437 20972
L100437 23019
" />
<path d="M100437 23019
L101531 23019
" />
<path d="M101531 23019
L101531 20972
" />
<path d="M101531 20972
L100437 20972
" />
<path d="M100437 20472
L100437 19925
" />
<path d="M100437 19925
L100984 19925
" />
<path d="M100437 24972
L100437 28019
" />
<path d="M100437 28019
L101531 28019
" />
<path d="M101531 28019
L101531 24972
" />
<path d="M101531 24972
L100437 24972
" />
<path d="M100437 24472
L100437 23925
" />
<path d="M100437 23925
L100984 23925
" />
</g>
<g style="fill:#008484; fill-opacity:0.0; 
stroke:#008484; stroke-width:59.0551; stroke-opacity:1; 
stroke-linecap:round; stroke-linejoin:round;">
<path d="M97637 16064
L94488 16064
" />
<path d="M97637 18946
L94488 18946
" />
<path d="M94488 18946
L94488 16064
" />
<path d="M94488 16309
L97637 16309
" />
<path d="M97637 16064
L97637 18946
" />
<path d="M73344 21513
L73344 21986
" />
<path d="M72655 21986
L72655 21513
" />
<path d="M69881 30088
L70669 30088
" />
<path d="M70669 30935
L69881 30935
" />
<path d="M71653 25659
L71259 25659
" />
<path d="M71259 25127
L71653 25127
" />
<path d="M71712 26722
L71240 26722
" />
<path d="M71240 26033
L71712 26033
" />
<path d="M73267 26722
L72795 26722
" />
<path d="M72795 26033
L73267 26033
" />
<path d="M70236 33594
L69763 33594
" />
<path d="M69763 32905
L70236 32905
" />
<path d="M71486 33594
L71013 33594
" />
<path d="M71013 32905
L71486 32905
" />
<path d="M71053 35984
L71446 35984
" />
<path d="M71446 36515
L71053 36515
" />
<path d="M74265 20303
L74265 20696
" />
<path d="M73734 20696
L73734 20303
" />
<path d="M79553 19984
L79946 19984
" />
<path d="M79946 20515
L79553 20515
" />
<path d="M79655 21736
L79655 21263
" />
<path d="M80344 21263
L80344 21736
" />
<path d="M73734 21946
L73734 21553
" />
<path d="M74265 21553
L74265 21946
" />
<path d="M79263 22405
L79736 22405
" />
<path d="M79736 23094
L79263 23094
" />
<path d="M90748 26446
L90354 26446
" />
<path d="M90354 25915
L90748 25915
" />
<path d="M90748 27234
L90354 27234
" />
<path d="M90354 26702
L90748 26702
" />
<path d="M91998 29527
L91998 29921
" />
<path d="M91466 29921
L91466 29527
" />
<path d="M91856 21303
L91856 21696
" />
<path d="M91324 21696
L91324 21303
" />
<path d="M92606 21303
L92606 21696
" />
<path d="M92074 21696
L92074 21303
" />
<path d="M82874 26250
L82480 26250
" />
<path d="M82480 25718
L82874 25718
" />
<path d="M85236 26250
L84842 26250
" />
<path d="M84842 25718
L85236 25718
" />
<path d="M92588 28346
L92588 28740
" />
<path d="M92057 28740
L92057 28346
" />
<path d="M92785 29527
L92785 29921
" />
<path d="M92253 29921
L92253 29527
" />
<path d="M93375 28346
L93375 28740
" />
<path d="M92844 28740
L92844 28346
" />
<path d="M93572 29527
L93572 29921
" />
<path d="M93041 29921
L93041 29527
" />
<path d="M94163 28346
L94163 28740
" />
<path d="M93631 28740
L93631 28346
" />
<path d="M94360 29527
L94360 29921
" />
<path d="M93828 29921
L93828 29527
" />
<path d="M96131 28346
L96131 28740
" />
<path d="M95600 28740
L95600 28346
" />
<path d="M96525 29527
L96525 29921
" />
<path d="M95994 29921
L95994 29527
" />
<path d="M97393 26984
L97787 26984
" />
<path d="M97787 27515
L97393 27515
" />
<path d="M98643 26484
L99037 26484
" />
<path d="M99037 27015
L98643 27015
" />
<path d="M97393 26234
L97787 26234
" />
<path d="M97787 26765
L97393 26765
" />
<path d="M98643 25734
L99037 25734
" />
<path d="M99037 26265
L98643 26265
" />
<path d="M97393 25484
L97787 25484
" />
<path d="M97787 26015
L97393 26015
" />
<path d="M98643 24984
L99037 24984
" />
<path d="M99037 25515
L98643 25515
" />
<path d="M91015 19303
L91015 19696
" />
<path d="M90484 19696
L90484 19303
" />
<path d="M96387 37598
L96387 37204
" />
<path d="M96919 37204
L96919 37598
" />
<path d="M95600 37598
L95600 37204
" />
<path d="M96131 37204
L96131 37598
" />
<path d="M98494 16732
L98494 17125
" />
<path d="M97962 17125
L97962 16732
" />
<path d="M93431 16318
L93431 16397
" />
<path d="M93431 18681
L93431 18602
" />
<path d="M91068 18681
L91068 18602
" />
<path d="M91068 16318
L91068 16397
" />
<path d="M91068 17027
L91068 17972
" />
<path d="M93431 17027
L93431 17972
" />
<path d="M93431 16318
L91068 16318
" />
<path d="M91068 18681
L93431 18681
" />
<circle cx="92250" cy="17500" r="669.291" /> 
<circle cx="94000" cy="17500" r="316.228" /> 
<path d="M71584 26899
L71584 26988
" />
<path d="M72903 26899
L72903 27017
" />
<path d="M72903 28218
L72903 28100
" />
<path d="M71584 28218
L71584 28100
" />
<path d="M71584 26899
L72903 26899
" />
<path d="M71584 28218
L72903 28218
" />
<path d="M71584 26988
L71102 26988
" />
</g>
<g style="fill:#008484; fill-opacity:0.0; 
stroke:#008484; stroke-width:47.2441; stroke-opacity:1; 
stroke-linecap:round; stroke-linejoin:round;">
<path d="M70974 34956
L71722 34956
" />
<path d="M71525 34043
L70974 34043
" />
</g>
<g style="fill:#008484; fill-opacity:0.0; 
stroke:#008484; stroke-width:59.0551; stroke-opacity:1; 
stroke-linecap:round; stroke-linejoin:round;">
<path d="M76610 21110
L76610 21159
" />
<path d="M77889 21110
L77889 21194
" />
<path d="M77889 22389
L77889 22305
" />
<path d="M76610 22389
L76610 22305
" />
<path d="M76610 21110
L77889 21110
" />
<path d="M76610 22389
L77889 22389
" />
<path d="M76610 21159
L76246 21159
" />
<path d="M98395 36190
L98395 36200
" />
<path d="M100029 36190
L100029 36232
" />
<path d="M100029 40187
L100029 40145
" />
<path d="M98395 40187
L98395 40145
" />
<path d="M98395 36190
L100029 36190
" />
<path d="M98395 40187
L100029 40187
" />
<path d="M98395 36200
L97854 36200
" />
<path d="M96475 19823
L95649 19823
" />
<path d="M95649 19823
L95649 19153
" />
<path d="M95649 19153
L96475 19153
" />
<path d="M96475 19153
L96475 19823
" />
</g>
<g style="fill:#008484; fill-opacity:0.0; 
stroke:#008484; stroke-width:47.2441; stroke-opacity:1; 
stroke-linecap:round; stroke-linejoin:round;">
<path d="M87631 21937
L87631 24820
" />
<path d="M87631 24820
L89049 24820
" />
<path d="M89049 24820
L89049 21937
" />
<path d="M100437 29972
L100437 31019
" />
<path d="M100437 31019
L101531 31019
" />
<path d="M101531 31019
L101531 29972
" />
<path d="M101531 29972
L100437 29972
" />
<path d="M100437 29472
L100437 28925
" />
<path d="M100437 28925
L100984 28925
" />
<path d="M80208 36854
L77161 36854
" />
<path d="M77161 36854
L77161 38948
" />
<path d="M77161 38948
L81255 38948
" />
<path d="M81255 38948
L81255 37901
" />
<path d="M81255 37901
L80208 37901
" />
<path d="M80208 37901
L80208 36854
" />
<path d="M80708 36854
L81255 36854
" />
<path d="M81255 36854
L81255 37401
" />
<path d="M90051 36854
L87003 36854
" />
<path d="M87003 36854
L87003 38948
" />
<path d="M87003 38948
L91098 38948
" />
<path d="M91098 38948
L91098 37901
" />
<path d="M91098 37901
L90051 37901
" />
<path d="M90051 37901
L90051 36854
" />
<path d="M90551 36854
L91098 36854
" />
<path d="M91098 36854
L91098 37401
" />
</g> 
</svg>
