G04 #@! TF.FileFunction,Legend,Top*
%FSLAX46Y46*%
G04 Gerber Fmt 4.6, Leading zero omitted, Abs format (unit mm)*
G04 Created by KiCad (PCBNEW 4.0.7) date Saturday, September 09, 2017 'AMt' 08:37:02 AM*
%MOMM*%
%LPD*%
G01*
G04 APERTURE LIST*
%ADD10C,0.100000*%
%ADD11C,0.150000*%
%ADD12C,0.120000*%
G04 APERTURE END LIST*
D10*
D11*
X233785000Y-68745000D02*
X234360000Y-68745000D01*
X233785000Y-58395000D02*
X234460000Y-58395000D01*
X244135000Y-58395000D02*
X243460000Y-58395000D01*
X244135000Y-68745000D02*
X243460000Y-68745000D01*
X233785000Y-68745000D02*
X233785000Y-68070000D01*
X244135000Y-68745000D02*
X244135000Y-68070000D01*
X244135000Y-58395000D02*
X244135000Y-59070000D01*
X233785000Y-58395000D02*
X233785000Y-59070000D01*
X234360000Y-68745000D02*
X234360000Y-70020000D01*
X202000000Y-83525000D02*
X200000000Y-83525000D01*
X200000000Y-86475000D02*
X202000000Y-86475000D01*
X187050000Y-80300000D02*
X189950000Y-80300000D01*
X186150000Y-80300000D02*
X186400000Y-80300000D01*
X185250000Y-80300000D02*
X185500000Y-80300000D01*
X184350000Y-80300000D02*
X184600000Y-80300000D01*
X183500000Y-80300000D02*
X183700000Y-80300000D01*
X182550000Y-80300000D02*
X182800000Y-80300000D01*
X182150000Y-79750000D02*
X182150000Y-80000000D01*
X182150000Y-78850000D02*
X182150000Y-79100000D01*
X181950000Y-78750000D02*
X181950000Y-79150000D01*
X182150000Y-77800000D02*
X182150000Y-78200000D01*
X181950000Y-77750000D02*
X181950000Y-78250000D01*
X182150000Y-76750000D02*
X182150000Y-77150000D01*
X181950000Y-76700000D02*
X181950000Y-77200000D01*
X181950000Y-75800000D02*
X181950000Y-76150000D01*
X182150000Y-75850000D02*
X182150000Y-76150000D01*
X182150000Y-74950000D02*
X182150000Y-75200000D01*
X182850000Y-74700000D02*
X182600000Y-74700000D01*
X183750000Y-74700000D02*
X183500000Y-74700000D01*
X184650000Y-74700000D02*
X184400000Y-74700000D01*
X185550000Y-74700000D02*
X185300000Y-74700000D01*
X186450000Y-74700000D02*
X186150000Y-74700000D01*
X189950000Y-74700000D02*
X187050000Y-74700000D01*
X189950000Y-75900000D02*
X190150000Y-75900000D01*
X190150000Y-75900000D02*
X190150000Y-75300000D01*
X190150000Y-75300000D02*
X189950000Y-75300000D01*
X189950000Y-77200000D02*
X190150000Y-77200000D01*
X190150000Y-77200000D02*
X190150000Y-76600000D01*
X190150000Y-76600000D02*
X189950000Y-76600000D01*
X189950000Y-78400000D02*
X190150000Y-78400000D01*
X190150000Y-78400000D02*
X190150000Y-77800000D01*
X190150000Y-77800000D02*
X189950000Y-77800000D01*
X189950000Y-79700000D02*
X190150000Y-79700000D01*
X190150000Y-79700000D02*
X190150000Y-79100000D01*
X190150000Y-79100000D02*
X189950000Y-79100000D01*
X189950000Y-74700000D02*
X189950000Y-80300000D01*
X209625000Y-96600000D02*
X209625000Y-95400000D01*
X211375000Y-95400000D02*
X211375000Y-96600000D01*
X209625000Y-93100000D02*
X209625000Y-91900000D01*
X211375000Y-91900000D02*
X211375000Y-93100000D01*
D12*
X209750000Y-98000000D02*
X209750000Y-100000000D01*
X209750000Y-100000000D02*
X213650000Y-100000000D01*
X209750000Y-98000000D02*
X213650000Y-98000000D01*
D11*
X203900000Y-86600000D02*
X203900000Y-85900000D01*
X205100000Y-85900000D02*
X205100000Y-86600000D01*
X207125000Y-96600000D02*
X207125000Y-95400000D01*
X208875000Y-95400000D02*
X208875000Y-96600000D01*
X202000000Y-76525000D02*
X200000000Y-76525000D01*
X200000000Y-79475000D02*
X202000000Y-79475000D01*
X202000000Y-80025000D02*
X200000000Y-80025000D01*
X200000000Y-82975000D02*
X202000000Y-82975000D01*
X211175000Y-63000000D02*
X211175000Y-64000000D01*
X209825000Y-64000000D02*
X209825000Y-63000000D01*
X213175000Y-60000000D02*
X213175000Y-61000000D01*
X211825000Y-61000000D02*
X211825000Y-60000000D01*
X211175000Y-60000000D02*
X211175000Y-61000000D01*
X209825000Y-61000000D02*
X209825000Y-60000000D01*
X213175000Y-63000000D02*
X213175000Y-64000000D01*
X211825000Y-64000000D02*
X211825000Y-63000000D01*
X211325000Y-66825000D02*
X211325000Y-67000000D01*
X214675000Y-66825000D02*
X214675000Y-67075000D01*
X214675000Y-70175000D02*
X214675000Y-69925000D01*
X211325000Y-70175000D02*
X211325000Y-69925000D01*
X211325000Y-66825000D02*
X214675000Y-66825000D01*
X211325000Y-70175000D02*
X214675000Y-70175000D01*
X211325000Y-67000000D02*
X210075000Y-67000000D01*
X215175000Y-63000000D02*
X215175000Y-64000000D01*
X213825000Y-64000000D02*
X213825000Y-63000000D01*
X213350000Y-66600000D02*
X212650000Y-66600000D01*
X212650000Y-65400000D02*
X213350000Y-65400000D01*
X215175000Y-60000000D02*
X215175000Y-61000000D01*
X213825000Y-61000000D02*
X213825000Y-60000000D01*
X220500000Y-70500000D02*
X205500000Y-70500000D01*
X220500000Y-85500000D02*
X220500000Y-70500000D01*
X205500000Y-85500000D02*
X220500000Y-85500000D01*
X205500000Y-70500000D02*
X205500000Y-85500000D01*
X217850000Y-96600000D02*
X217150000Y-96600000D01*
X217150000Y-95400000D02*
X217850000Y-95400000D01*
X216900000Y-93125000D02*
X218100000Y-93125000D01*
X218100000Y-94875000D02*
X216900000Y-94875000D01*
X211150000Y-89400000D02*
X211850000Y-89400000D01*
X211850000Y-90600000D02*
X211150000Y-90600000D01*
X216100000Y-90650000D02*
X216100000Y-91350000D01*
X214900000Y-91350000D02*
X214900000Y-90650000D01*
X213400000Y-93125000D02*
X214600000Y-93125000D01*
X214600000Y-94875000D02*
X213400000Y-94875000D01*
X235600000Y-91950000D02*
X235600000Y-82350000D01*
X240400000Y-91950000D02*
X240400000Y-82350000D01*
X235600000Y-91950000D02*
X240400000Y-91950000D01*
X225600000Y-91950000D02*
X225600000Y-82350000D01*
X230400000Y-91950000D02*
X230400000Y-82350000D01*
X225600000Y-91950000D02*
X230400000Y-91950000D01*
X230600000Y-91950000D02*
X230600000Y-82350000D01*
X235400000Y-91950000D02*
X235400000Y-82350000D01*
X230600000Y-91950000D02*
X235400000Y-91950000D01*
X221400000Y-86600000D02*
X221400000Y-85900000D01*
X222600000Y-85900000D02*
X222600000Y-86600000D01*
X240600000Y-91950000D02*
X240600000Y-82350000D01*
X245400000Y-91950000D02*
X245400000Y-82350000D01*
X240600000Y-91950000D02*
X245400000Y-91950000D01*
X223150000Y-86000000D02*
X223150000Y-87000000D01*
X224850000Y-87000000D02*
X224850000Y-86000000D01*
D12*
X201451525Y-70320806D02*
G75*
G03X191548667Y-70320000I-4951525J-1179194D01*
G01*
X201451525Y-72679194D02*
G75*
G02X191548667Y-72680000I-4951525J1179194D01*
G01*
X201451525Y-72679194D02*
G75*
G03X201451333Y-70320000I-4951525J1179194D01*
G01*
X196500000Y-66450000D02*
X196500000Y-76550000D01*
X196540000Y-66450000D02*
X196540000Y-76550000D01*
X196580000Y-66450000D02*
X196580000Y-76550000D01*
X196620000Y-66451000D02*
X196620000Y-76549000D01*
X196660000Y-66452000D02*
X196660000Y-76548000D01*
X196700000Y-66453000D02*
X196700000Y-76547000D01*
X196740000Y-66455000D02*
X196740000Y-76545000D01*
X196780000Y-66457000D02*
X196780000Y-76543000D01*
X196820000Y-66460000D02*
X196820000Y-76540000D01*
X196860000Y-66462000D02*
X196860000Y-76538000D01*
X196900000Y-66465000D02*
X196900000Y-76535000D01*
X196940000Y-66469000D02*
X196940000Y-76531000D01*
X196980000Y-66472000D02*
X196980000Y-76528000D01*
X197020000Y-66476000D02*
X197020000Y-76524000D01*
X197060000Y-66480000D02*
X197060000Y-76520000D01*
X197100000Y-66485000D02*
X197100000Y-76515000D01*
X197140000Y-66490000D02*
X197140000Y-76510000D01*
X197180000Y-66495000D02*
X197180000Y-76505000D01*
X197221000Y-66501000D02*
X197221000Y-76499000D01*
X197261000Y-66507000D02*
X197261000Y-76493000D01*
X197301000Y-66513000D02*
X197301000Y-76487000D01*
X197341000Y-66519000D02*
X197341000Y-76481000D01*
X197381000Y-66526000D02*
X197381000Y-76474000D01*
X197421000Y-66533000D02*
X197421000Y-76467000D01*
X197461000Y-66541000D02*
X197461000Y-76459000D01*
X197501000Y-66549000D02*
X197501000Y-76451000D01*
X197541000Y-66557000D02*
X197541000Y-76443000D01*
X197581000Y-66565000D02*
X197581000Y-76435000D01*
X197621000Y-66574000D02*
X197621000Y-76426000D01*
X197661000Y-66583000D02*
X197661000Y-76417000D01*
X197701000Y-66593000D02*
X197701000Y-76407000D01*
X197741000Y-66603000D02*
X197741000Y-76397000D01*
X197781000Y-66613000D02*
X197781000Y-76387000D01*
X197821000Y-66624000D02*
X197821000Y-70319000D01*
X197821000Y-72681000D02*
X197821000Y-76376000D01*
X197861000Y-66635000D02*
X197861000Y-70319000D01*
X197861000Y-72681000D02*
X197861000Y-76365000D01*
X197901000Y-66646000D02*
X197901000Y-70319000D01*
X197901000Y-72681000D02*
X197901000Y-76354000D01*
X197941000Y-66657000D02*
X197941000Y-70319000D01*
X197941000Y-72681000D02*
X197941000Y-76343000D01*
X197981000Y-66669000D02*
X197981000Y-70319000D01*
X197981000Y-72681000D02*
X197981000Y-76331000D01*
X198021000Y-66682000D02*
X198021000Y-70319000D01*
X198021000Y-72681000D02*
X198021000Y-76318000D01*
X198061000Y-66694000D02*
X198061000Y-70319000D01*
X198061000Y-72681000D02*
X198061000Y-76306000D01*
X198101000Y-66708000D02*
X198101000Y-70319000D01*
X198101000Y-72681000D02*
X198101000Y-76292000D01*
X198141000Y-66721000D02*
X198141000Y-70319000D01*
X198141000Y-72681000D02*
X198141000Y-76279000D01*
X198181000Y-66735000D02*
X198181000Y-70319000D01*
X198181000Y-72681000D02*
X198181000Y-76265000D01*
X198221000Y-66749000D02*
X198221000Y-70319000D01*
X198221000Y-72681000D02*
X198221000Y-76251000D01*
X198261000Y-66763000D02*
X198261000Y-70319000D01*
X198261000Y-72681000D02*
X198261000Y-76237000D01*
X198301000Y-66778000D02*
X198301000Y-70319000D01*
X198301000Y-72681000D02*
X198301000Y-76222000D01*
X198341000Y-66794000D02*
X198341000Y-70319000D01*
X198341000Y-72681000D02*
X198341000Y-76206000D01*
X198381000Y-66809000D02*
X198381000Y-70319000D01*
X198381000Y-72681000D02*
X198381000Y-76191000D01*
X198421000Y-66826000D02*
X198421000Y-70319000D01*
X198421000Y-72681000D02*
X198421000Y-76174000D01*
X198461000Y-66842000D02*
X198461000Y-70319000D01*
X198461000Y-72681000D02*
X198461000Y-76158000D01*
X198501000Y-66859000D02*
X198501000Y-70319000D01*
X198501000Y-72681000D02*
X198501000Y-76141000D01*
X198541000Y-66876000D02*
X198541000Y-70319000D01*
X198541000Y-72681000D02*
X198541000Y-76124000D01*
X198581000Y-66894000D02*
X198581000Y-70319000D01*
X198581000Y-72681000D02*
X198581000Y-76106000D01*
X198621000Y-66912000D02*
X198621000Y-70319000D01*
X198621000Y-72681000D02*
X198621000Y-76088000D01*
X198661000Y-66931000D02*
X198661000Y-70319000D01*
X198661000Y-72681000D02*
X198661000Y-76069000D01*
X198701000Y-66950000D02*
X198701000Y-70319000D01*
X198701000Y-72681000D02*
X198701000Y-76050000D01*
X198741000Y-66969000D02*
X198741000Y-70319000D01*
X198741000Y-72681000D02*
X198741000Y-76031000D01*
X198781000Y-66989000D02*
X198781000Y-70319000D01*
X198781000Y-72681000D02*
X198781000Y-76011000D01*
X198821000Y-67009000D02*
X198821000Y-70319000D01*
X198821000Y-72681000D02*
X198821000Y-75991000D01*
X198861000Y-67030000D02*
X198861000Y-70319000D01*
X198861000Y-72681000D02*
X198861000Y-75970000D01*
X198901000Y-67051000D02*
X198901000Y-70319000D01*
X198901000Y-72681000D02*
X198901000Y-75949000D01*
X198941000Y-67072000D02*
X198941000Y-70319000D01*
X198941000Y-72681000D02*
X198941000Y-75928000D01*
X198981000Y-67095000D02*
X198981000Y-70319000D01*
X198981000Y-72681000D02*
X198981000Y-75905000D01*
X199021000Y-67117000D02*
X199021000Y-70319000D01*
X199021000Y-72681000D02*
X199021000Y-75883000D01*
X199061000Y-67140000D02*
X199061000Y-70319000D01*
X199061000Y-72681000D02*
X199061000Y-75860000D01*
X199101000Y-67164000D02*
X199101000Y-70319000D01*
X199101000Y-72681000D02*
X199101000Y-75836000D01*
X199141000Y-67188000D02*
X199141000Y-70319000D01*
X199141000Y-72681000D02*
X199141000Y-75812000D01*
X199181000Y-67212000D02*
X199181000Y-70319000D01*
X199181000Y-72681000D02*
X199181000Y-75788000D01*
X199221000Y-67237000D02*
X199221000Y-70319000D01*
X199221000Y-72681000D02*
X199221000Y-75763000D01*
X199261000Y-67263000D02*
X199261000Y-70319000D01*
X199261000Y-72681000D02*
X199261000Y-75737000D01*
X199301000Y-67289000D02*
X199301000Y-70319000D01*
X199301000Y-72681000D02*
X199301000Y-75711000D01*
X199341000Y-67315000D02*
X199341000Y-70319000D01*
X199341000Y-72681000D02*
X199341000Y-75685000D01*
X199381000Y-67343000D02*
X199381000Y-70319000D01*
X199381000Y-72681000D02*
X199381000Y-75657000D01*
X199421000Y-67370000D02*
X199421000Y-70319000D01*
X199421000Y-72681000D02*
X199421000Y-75630000D01*
X199461000Y-67399000D02*
X199461000Y-70319000D01*
X199461000Y-72681000D02*
X199461000Y-75601000D01*
X199501000Y-67428000D02*
X199501000Y-70319000D01*
X199501000Y-72681000D02*
X199501000Y-75572000D01*
X199541000Y-67457000D02*
X199541000Y-70319000D01*
X199541000Y-72681000D02*
X199541000Y-75543000D01*
X199581000Y-67487000D02*
X199581000Y-70319000D01*
X199581000Y-72681000D02*
X199581000Y-75513000D01*
X199621000Y-67518000D02*
X199621000Y-70319000D01*
X199621000Y-72681000D02*
X199621000Y-75482000D01*
X199661000Y-67549000D02*
X199661000Y-70319000D01*
X199661000Y-72681000D02*
X199661000Y-75451000D01*
X199701000Y-67581000D02*
X199701000Y-70319000D01*
X199701000Y-72681000D02*
X199701000Y-75419000D01*
X199741000Y-67614000D02*
X199741000Y-70319000D01*
X199741000Y-72681000D02*
X199741000Y-75386000D01*
X199781000Y-67647000D02*
X199781000Y-70319000D01*
X199781000Y-72681000D02*
X199781000Y-75353000D01*
X199821000Y-67681000D02*
X199821000Y-70319000D01*
X199821000Y-72681000D02*
X199821000Y-75319000D01*
X199861000Y-67716000D02*
X199861000Y-70319000D01*
X199861000Y-72681000D02*
X199861000Y-75284000D01*
X199901000Y-67752000D02*
X199901000Y-70319000D01*
X199901000Y-72681000D02*
X199901000Y-75248000D01*
X199941000Y-67788000D02*
X199941000Y-70319000D01*
X199941000Y-72681000D02*
X199941000Y-75212000D01*
X199981000Y-67825000D02*
X199981000Y-70319000D01*
X199981000Y-72681000D02*
X199981000Y-75175000D01*
X200021000Y-67863000D02*
X200021000Y-70319000D01*
X200021000Y-72681000D02*
X200021000Y-75137000D01*
X200061000Y-67902000D02*
X200061000Y-70319000D01*
X200061000Y-72681000D02*
X200061000Y-75098000D01*
X200101000Y-67941000D02*
X200101000Y-70319000D01*
X200101000Y-72681000D02*
X200101000Y-75059000D01*
X200141000Y-67982000D02*
X200141000Y-70319000D01*
X200141000Y-72681000D02*
X200141000Y-75018000D01*
X200181000Y-68023000D02*
X200181000Y-74977000D01*
X200221000Y-68065000D02*
X200221000Y-74935000D01*
X200261000Y-68109000D02*
X200261000Y-74891000D01*
X200301000Y-68153000D02*
X200301000Y-74847000D01*
X200341000Y-68198000D02*
X200341000Y-74802000D01*
X200381000Y-68245000D02*
X200381000Y-74755000D01*
X200421000Y-68293000D02*
X200421000Y-74707000D01*
X200461000Y-68342000D02*
X200461000Y-74658000D01*
X200501000Y-68392000D02*
X200501000Y-74608000D01*
X200541000Y-68443000D02*
X200541000Y-74557000D01*
X200581000Y-68496000D02*
X200581000Y-74504000D01*
X200621000Y-68551000D02*
X200621000Y-74449000D01*
X200661000Y-68606000D02*
X200661000Y-74394000D01*
X200701000Y-68664000D02*
X200701000Y-74336000D01*
X200741000Y-68723000D02*
X200741000Y-74277000D01*
X200781000Y-68785000D02*
X200781000Y-74215000D01*
X200821000Y-68848000D02*
X200821000Y-74152000D01*
X200861000Y-68913000D02*
X200861000Y-74087000D01*
X200901000Y-68981000D02*
X200901000Y-74019000D01*
X200941000Y-69051000D02*
X200941000Y-73949000D01*
X200981000Y-69123000D02*
X200981000Y-73877000D01*
X201021000Y-69199000D02*
X201021000Y-73801000D01*
X201061000Y-69278000D02*
X201061000Y-73722000D01*
X201101000Y-69360000D02*
X201101000Y-73640000D01*
X201141000Y-69447000D02*
X201141000Y-73553000D01*
X201181000Y-69538000D02*
X201181000Y-73462000D01*
X201221000Y-69634000D02*
X201221000Y-73366000D01*
X201261000Y-69737000D02*
X201261000Y-73263000D01*
X201301000Y-69846000D02*
X201301000Y-73154000D01*
X201341000Y-69964000D02*
X201341000Y-73036000D01*
X201381000Y-70093000D02*
X201381000Y-72907000D01*
X201421000Y-70235000D02*
X201421000Y-72765000D01*
X201461000Y-70396000D02*
X201461000Y-72604000D01*
X201501000Y-70587000D02*
X201501000Y-72413000D01*
X201541000Y-70828000D02*
X201541000Y-72172000D01*
X201581000Y-71221000D02*
X201581000Y-71779000D01*
X191300000Y-71500000D02*
X192800000Y-71500000D01*
X192050000Y-70750000D02*
X192050000Y-72250000D01*
D11*
X188850000Y-70500000D02*
X188850000Y-69500000D01*
X187150000Y-69500000D02*
X187150000Y-70500000D01*
X177200000Y-87980000D02*
X177200000Y-87280000D01*
X178400000Y-87280000D02*
X178400000Y-87980000D01*
X183550000Y-86075000D02*
X183550000Y-85375000D01*
X184750000Y-85375000D02*
X184750000Y-86075000D01*
X183550000Y-89250000D02*
X183550000Y-88550000D01*
X184750000Y-88550000D02*
X184750000Y-89250000D01*
X181325000Y-90770000D02*
X180625000Y-90770000D01*
X180625000Y-89570000D02*
X181325000Y-89570000D01*
X201260000Y-54260000D02*
X201260000Y-54960000D01*
X200060000Y-54960000D02*
X200060000Y-54260000D01*
X198255000Y-52285000D02*
X199255000Y-52285000D01*
X199255000Y-50585000D02*
X198255000Y-50585000D01*
X194175000Y-50585000D02*
X193175000Y-50585000D01*
X193175000Y-52285000D02*
X194175000Y-52285000D01*
X192370000Y-54895000D02*
X192370000Y-55595000D01*
X191170000Y-55595000D02*
X191170000Y-54895000D01*
X196715000Y-58205000D02*
X195715000Y-58205000D01*
X195715000Y-59905000D02*
X196715000Y-59905000D01*
X222900000Y-66810000D02*
X222900000Y-67810000D01*
X224600000Y-67810000D02*
X224600000Y-66810000D01*
X236650000Y-54900000D02*
X237350000Y-54900000D01*
X237350000Y-56100000D02*
X236650000Y-56100000D01*
X247845000Y-61880000D02*
X247845000Y-62580000D01*
X246645000Y-62580000D02*
X246645000Y-61880000D01*
X241245000Y-72355000D02*
X240545000Y-72355000D01*
X240545000Y-71155000D02*
X241245000Y-71155000D01*
X230135000Y-63850000D02*
X230135000Y-63150000D01*
X231335000Y-63150000D02*
X231335000Y-63850000D01*
X225440000Y-66810000D02*
X225440000Y-67810000D01*
X227140000Y-67810000D02*
X227140000Y-66810000D01*
X228330000Y-60540000D02*
X229330000Y-60540000D01*
X229330000Y-58840000D02*
X228330000Y-58840000D01*
X228330000Y-58000000D02*
X229330000Y-58000000D01*
X229330000Y-56300000D02*
X228330000Y-56300000D01*
X204820000Y-49495000D02*
X204120000Y-49495000D01*
X204120000Y-48295000D02*
X204820000Y-48295000D01*
X203970000Y-47840000D02*
X204970000Y-47840000D01*
X204970000Y-46140000D02*
X203970000Y-46140000D01*
X204820000Y-43145000D02*
X204120000Y-43145000D01*
X204120000Y-41945000D02*
X204820000Y-41945000D01*
X203970000Y-45300000D02*
X204970000Y-45300000D01*
X204970000Y-43600000D02*
X203970000Y-43600000D01*
X249650000Y-89900000D02*
X250350000Y-89900000D01*
X250350000Y-91100000D02*
X249650000Y-91100000D01*
X254350000Y-91100000D02*
X253650000Y-91100000D01*
X253650000Y-89900000D02*
X254350000Y-89900000D01*
X177150000Y-99500000D02*
X177150000Y-100500000D01*
X178850000Y-100500000D02*
X178850000Y-99500000D01*
X192150000Y-99500000D02*
X192150000Y-100500000D01*
X193850000Y-100500000D02*
X193850000Y-99500000D01*
X207150000Y-99500000D02*
X207150000Y-100500000D01*
X208850000Y-100500000D02*
X208850000Y-99500000D01*
X226000000Y-101150000D02*
X225000000Y-101150000D01*
X225000000Y-102850000D02*
X226000000Y-102850000D01*
X240000000Y-101150000D02*
X239000000Y-101150000D01*
X239000000Y-102850000D02*
X240000000Y-102850000D01*
X244350000Y-52100000D02*
X243650000Y-52100000D01*
X243650000Y-50900000D02*
X244350000Y-50900000D01*
X250100000Y-46150000D02*
X250100000Y-46850000D01*
X248900000Y-46850000D02*
X248900000Y-46150000D01*
D12*
X176750000Y-75300000D02*
X170250000Y-75300000D01*
X176750000Y-75300000D02*
X176750000Y-66900000D01*
X170250000Y-75300000D02*
X170250000Y-66900000D01*
X175600000Y-58350000D02*
X175600000Y-61650000D01*
X175600000Y-61650000D02*
X181000000Y-61650000D01*
X175600000Y-58350000D02*
X181000000Y-58350000D01*
X190825000Y-49020000D02*
X191755000Y-49020000D01*
X193985000Y-49020000D02*
X193055000Y-49020000D01*
X193985000Y-49020000D02*
X193985000Y-46860000D01*
X190825000Y-49020000D02*
X190825000Y-47560000D01*
D11*
X174175000Y-57000000D02*
X174175000Y-58000000D01*
X172825000Y-58000000D02*
X172825000Y-57000000D01*
X225620000Y-71360000D02*
X224420000Y-71360000D01*
X224420000Y-69610000D02*
X225620000Y-69610000D01*
X248100000Y-50375000D02*
X246900000Y-50375000D01*
X246900000Y-48625000D02*
X248100000Y-48625000D01*
X180250000Y-41900000D02*
X180250000Y-41500000D01*
X183750000Y-43000000D02*
X176750000Y-43000000D01*
X183750000Y-41900000D02*
X176750000Y-41900000D01*
X183750000Y-49100000D02*
X183750000Y-41500000D01*
X176750000Y-41500000D02*
X176750000Y-49100000D01*
X176750000Y-49100000D02*
X183750000Y-49100000D01*
D12*
X236095000Y-51770000D02*
X236095000Y-51135000D01*
X236730000Y-51770000D02*
X236095000Y-51770000D01*
D11*
X207645000Y-41170000D02*
X227965000Y-41170000D01*
X208185000Y-41720000D02*
X227405000Y-41720000D01*
X207645000Y-50270000D02*
X227965000Y-50270000D01*
X208185000Y-49720000D02*
X215555000Y-49720000D01*
X220055000Y-49720000D02*
X227405000Y-49720000D01*
X215555000Y-49720000D02*
X215555000Y-50270000D01*
X220055000Y-49720000D02*
X220055000Y-50270000D01*
X207645000Y-41170000D02*
X207645000Y-50270000D01*
X208185000Y-41720000D02*
X208185000Y-49720000D01*
X227965000Y-41170000D02*
X227965000Y-50270000D01*
X227405000Y-41720000D02*
X227405000Y-49720000D01*
X207645000Y-41170000D02*
X208185000Y-41720000D01*
X227965000Y-41170000D02*
X227405000Y-41720000D01*
X207645000Y-50270000D02*
X208185000Y-49720000D01*
X227965000Y-50270000D02*
X227405000Y-49720000D01*
X179550000Y-110600000D02*
X179550000Y-111000000D01*
X183050000Y-110600000D02*
X183050000Y-111000000D01*
X186550000Y-110600000D02*
X186550000Y-111000000D01*
X176050000Y-109500000D02*
X190050000Y-109500000D01*
X176050000Y-110600000D02*
X190050000Y-110600000D01*
X176050000Y-103400000D02*
X176050000Y-111000000D01*
X190050000Y-111000000D02*
X190050000Y-103400000D01*
X190050000Y-103400000D02*
X176050000Y-103400000D01*
X194550000Y-110600000D02*
X194550000Y-111000000D01*
X198050000Y-110600000D02*
X198050000Y-111000000D01*
X201550000Y-110600000D02*
X201550000Y-111000000D01*
X191050000Y-109500000D02*
X205050000Y-109500000D01*
X191050000Y-110600000D02*
X205050000Y-110600000D01*
X191050000Y-103400000D02*
X191050000Y-111000000D01*
X205050000Y-111000000D02*
X205050000Y-103400000D01*
X205050000Y-103400000D02*
X191050000Y-103400000D01*
X209550000Y-110600000D02*
X209550000Y-111000000D01*
X213050000Y-110600000D02*
X213050000Y-111000000D01*
X216550000Y-110600000D02*
X216550000Y-111000000D01*
X206050000Y-109500000D02*
X220050000Y-109500000D01*
X206050000Y-110600000D02*
X220050000Y-110600000D01*
X206050000Y-103400000D02*
X206050000Y-111000000D01*
X220050000Y-111000000D02*
X220050000Y-103400000D01*
X220050000Y-103400000D02*
X206050000Y-103400000D01*
X224550000Y-110600000D02*
X224550000Y-111000000D01*
X228050000Y-110600000D02*
X228050000Y-111000000D01*
X231550000Y-110600000D02*
X231550000Y-111000000D01*
X221050000Y-109500000D02*
X235050000Y-109500000D01*
X221050000Y-110600000D02*
X235050000Y-110600000D01*
X221050000Y-103400000D02*
X221050000Y-111000000D01*
X235050000Y-111000000D02*
X235050000Y-103400000D01*
X235050000Y-103400000D02*
X221050000Y-103400000D01*
X239550000Y-110600000D02*
X239550000Y-111000000D01*
X243050000Y-110600000D02*
X243050000Y-111000000D01*
X246550000Y-110600000D02*
X246550000Y-111000000D01*
X236050000Y-109500000D02*
X250050000Y-109500000D01*
X236050000Y-110600000D02*
X250050000Y-110600000D01*
X236050000Y-103400000D02*
X236050000Y-111000000D01*
X250050000Y-111000000D02*
X250050000Y-103400000D01*
X250050000Y-103400000D02*
X236050000Y-103400000D01*
D12*
X255110000Y-53270000D02*
X255110000Y-58470000D01*
X255110000Y-58470000D02*
X257890000Y-58470000D01*
X257890000Y-58470000D02*
X257890000Y-53270000D01*
X257890000Y-53270000D02*
X255110000Y-53270000D01*
X255110000Y-52000000D02*
X255110000Y-50610000D01*
X255110000Y-50610000D02*
X256500000Y-50610000D01*
X255110000Y-63430000D02*
X255110000Y-71170000D01*
X255110000Y-71170000D02*
X257890000Y-71170000D01*
X257890000Y-71170000D02*
X257890000Y-63430000D01*
X257890000Y-63430000D02*
X255110000Y-63430000D01*
X255110000Y-62160000D02*
X255110000Y-60770000D01*
X255110000Y-60770000D02*
X256500000Y-60770000D01*
D11*
X248000000Y-40805000D02*
X240000000Y-40805000D01*
X248000000Y-48125000D02*
X240000000Y-48125000D01*
X240000000Y-48125000D02*
X240000000Y-40805000D01*
X240000000Y-41425000D02*
X248000000Y-41425000D01*
X248000000Y-40805000D02*
X248000000Y-48125000D01*
X186295000Y-54645000D02*
X186295000Y-55845000D01*
X184545000Y-55845000D02*
X184545000Y-54645000D01*
X177500000Y-76425000D02*
X179500000Y-76425000D01*
X179500000Y-78575000D02*
X177500000Y-78575000D01*
X182000000Y-65175000D02*
X181000000Y-65175000D01*
X181000000Y-63825000D02*
X182000000Y-63825000D01*
X182150000Y-67875000D02*
X180950000Y-67875000D01*
X180950000Y-66125000D02*
X182150000Y-66125000D01*
X186100000Y-67875000D02*
X184900000Y-67875000D01*
X184900000Y-66125000D02*
X186100000Y-66125000D01*
X178400000Y-85330000D02*
X177200000Y-85330000D01*
X177200000Y-83580000D02*
X178400000Y-83580000D01*
X181575000Y-85330000D02*
X180375000Y-85330000D01*
X180375000Y-83580000D02*
X181575000Y-83580000D01*
X180475000Y-91400000D02*
X181475000Y-91400000D01*
X181475000Y-92750000D02*
X180475000Y-92750000D01*
X188635000Y-51570000D02*
X188635000Y-52570000D01*
X187285000Y-52570000D02*
X187285000Y-51570000D01*
X202065000Y-50760000D02*
X203065000Y-50760000D01*
X203065000Y-52110000D02*
X202065000Y-52110000D01*
X202325000Y-55210000D02*
X202325000Y-54010000D01*
X204075000Y-54010000D02*
X204075000Y-55210000D01*
X187285000Y-55745000D02*
X187285000Y-54745000D01*
X188635000Y-54745000D02*
X188635000Y-55745000D01*
X201330000Y-56910000D02*
X202530000Y-56910000D01*
X202530000Y-58660000D02*
X201330000Y-58660000D01*
X230500000Y-67175000D02*
X229500000Y-67175000D01*
X229500000Y-65825000D02*
X230500000Y-65825000D01*
X230500000Y-69175000D02*
X229500000Y-69175000D01*
X229500000Y-67825000D02*
X230500000Y-67825000D01*
X233675000Y-75000000D02*
X233675000Y-76000000D01*
X232325000Y-76000000D02*
X232325000Y-75000000D01*
X233315000Y-54110000D02*
X233315000Y-55110000D01*
X231965000Y-55110000D02*
X231965000Y-54110000D01*
X235220000Y-54110000D02*
X235220000Y-55110000D01*
X233870000Y-55110000D02*
X233870000Y-54110000D01*
X210500000Y-66675000D02*
X209500000Y-66675000D01*
X209500000Y-65325000D02*
X210500000Y-65325000D01*
X216500000Y-66675000D02*
X215500000Y-66675000D01*
X215500000Y-65325000D02*
X216500000Y-65325000D01*
X235175000Y-72000000D02*
X235175000Y-73000000D01*
X233825000Y-73000000D02*
X233825000Y-72000000D01*
X235675000Y-75000000D02*
X235675000Y-76000000D01*
X234325000Y-76000000D02*
X234325000Y-75000000D01*
X237175000Y-72000000D02*
X237175000Y-73000000D01*
X235825000Y-73000000D02*
X235825000Y-72000000D01*
X237675000Y-75000000D02*
X237675000Y-76000000D01*
X236325000Y-76000000D02*
X236325000Y-75000000D01*
X239175000Y-72000000D02*
X239175000Y-73000000D01*
X237825000Y-73000000D02*
X237825000Y-72000000D01*
X239675000Y-75000000D02*
X239675000Y-76000000D01*
X238325000Y-76000000D02*
X238325000Y-75000000D01*
X244175000Y-72000000D02*
X244175000Y-73000000D01*
X242825000Y-73000000D02*
X242825000Y-72000000D01*
X245175000Y-75000000D02*
X245175000Y-76000000D01*
X243825000Y-76000000D02*
X243825000Y-75000000D01*
X247380000Y-68540000D02*
X248380000Y-68540000D01*
X248380000Y-69890000D02*
X247380000Y-69890000D01*
X250555000Y-67270000D02*
X251555000Y-67270000D01*
X251555000Y-68620000D02*
X250555000Y-68620000D01*
X247380000Y-66635000D02*
X248380000Y-66635000D01*
X248380000Y-67985000D02*
X247380000Y-67985000D01*
X250555000Y-65365000D02*
X251555000Y-65365000D01*
X251555000Y-66715000D02*
X250555000Y-66715000D01*
X247380000Y-64730000D02*
X248380000Y-64730000D01*
X248380000Y-66080000D02*
X247380000Y-66080000D01*
X250555000Y-63460000D02*
X251555000Y-63460000D01*
X251555000Y-64810000D02*
X250555000Y-64810000D01*
X231180000Y-49030000D02*
X231180000Y-50030000D01*
X229830000Y-50030000D02*
X229830000Y-49030000D01*
X244825000Y-95500000D02*
X244825000Y-94500000D01*
X246175000Y-94500000D02*
X246175000Y-95500000D01*
X242825000Y-95500000D02*
X242825000Y-94500000D01*
X244175000Y-94500000D02*
X244175000Y-95500000D01*
X250175000Y-42500000D02*
X250175000Y-43500000D01*
X248825000Y-43500000D02*
X248825000Y-42500000D01*
X237315000Y-41450000D02*
X237315000Y-41650000D01*
X237315000Y-47450000D02*
X237315000Y-47250000D01*
X231315000Y-47450000D02*
X231315000Y-47250000D01*
X231315000Y-41450000D02*
X231315000Y-41650000D01*
X231315000Y-43250000D02*
X231315000Y-45650000D01*
X237315000Y-43250000D02*
X237315000Y-45650000D01*
X237315000Y-41450000D02*
X231315000Y-41450000D01*
X231315000Y-47450000D02*
X237315000Y-47450000D01*
X236015000Y-44450000D02*
G75*
G03X236015000Y-44450000I-1700000J0D01*
G01*
X239563219Y-44450000D02*
G75*
G03X239563219Y-44450000I-803219J0D01*
G01*
X181825000Y-68325000D02*
X181825000Y-68550000D01*
X185175000Y-68325000D02*
X185175000Y-68625000D01*
X185175000Y-71675000D02*
X185175000Y-71375000D01*
X181825000Y-71675000D02*
X181825000Y-71375000D01*
X181825000Y-68325000D02*
X185175000Y-68325000D01*
X181825000Y-71675000D02*
X185175000Y-71675000D01*
X181825000Y-68550000D02*
X180600000Y-68550000D01*
D12*
X180275000Y-88790000D02*
X182175000Y-88790000D01*
X181675000Y-86470000D02*
X180275000Y-86470000D01*
D11*
X194590000Y-53620000D02*
X194590000Y-53745000D01*
X197840000Y-53620000D02*
X197840000Y-53835000D01*
X197840000Y-56870000D02*
X197840000Y-56655000D01*
X194590000Y-56870000D02*
X194590000Y-56655000D01*
X194590000Y-53620000D02*
X197840000Y-53620000D01*
X194590000Y-56870000D02*
X197840000Y-56870000D01*
X194590000Y-53745000D02*
X193665000Y-53745000D01*
X249925000Y-91925000D02*
X249925000Y-91950000D01*
X254075000Y-91925000D02*
X254075000Y-92030000D01*
X254075000Y-102075000D02*
X254075000Y-101970000D01*
X249925000Y-102075000D02*
X249925000Y-101970000D01*
X249925000Y-91925000D02*
X254075000Y-91925000D01*
X249925000Y-102075000D02*
X254075000Y-102075000D01*
X249925000Y-91950000D02*
X248550000Y-91950000D01*
X245049020Y-50350900D02*
X242950980Y-50350900D01*
X242950980Y-50350900D02*
X242950980Y-48649100D01*
X242950980Y-48649100D02*
X245049020Y-48649100D01*
X245049020Y-48649100D02*
X245049020Y-50350900D01*
D12*
X222585000Y-55720000D02*
X222585000Y-63045000D01*
X222585000Y-63045000D02*
X226185000Y-63045000D01*
X226185000Y-63045000D02*
X226185000Y-55720000D01*
X255110000Y-76130000D02*
X255110000Y-78790000D01*
X255110000Y-78790000D02*
X257890000Y-78790000D01*
X257890000Y-78790000D02*
X257890000Y-76130000D01*
X257890000Y-76130000D02*
X255110000Y-76130000D01*
X255110000Y-74860000D02*
X255110000Y-73470000D01*
X255110000Y-73470000D02*
X256500000Y-73470000D01*
X203730000Y-93610000D02*
X195990000Y-93610000D01*
X195990000Y-93610000D02*
X195990000Y-98930000D01*
X195990000Y-98930000D02*
X206390000Y-98930000D01*
X206390000Y-98930000D02*
X206390000Y-96270000D01*
X206390000Y-96270000D02*
X203730000Y-96270000D01*
X203730000Y-96270000D02*
X203730000Y-93610000D01*
X205000000Y-93610000D02*
X206390000Y-93610000D01*
X206390000Y-93610000D02*
X206390000Y-95000000D01*
X228730000Y-93610000D02*
X220990000Y-93610000D01*
X220990000Y-93610000D02*
X220990000Y-98930000D01*
X220990000Y-98930000D02*
X231390000Y-98930000D01*
X231390000Y-98930000D02*
X231390000Y-96270000D01*
X231390000Y-96270000D02*
X228730000Y-96270000D01*
X228730000Y-96270000D02*
X228730000Y-93610000D01*
X230000000Y-93610000D02*
X231390000Y-93610000D01*
X231390000Y-93610000D02*
X231390000Y-95000000D01*
D11*
X237275714Y-62952381D02*
X237275714Y-63761905D01*
X237323333Y-63857143D01*
X237370952Y-63904762D01*
X237466190Y-63952381D01*
X237656667Y-63952381D01*
X237751905Y-63904762D01*
X237799524Y-63857143D01*
X237847143Y-63761905D01*
X237847143Y-62952381D01*
X238751905Y-62952381D02*
X238561428Y-62952381D01*
X238466190Y-63000000D01*
X238418571Y-63047619D01*
X238323333Y-63190476D01*
X238275714Y-63380952D01*
X238275714Y-63761905D01*
X238323333Y-63857143D01*
X238370952Y-63904762D01*
X238466190Y-63952381D01*
X238656667Y-63952381D01*
X238751905Y-63904762D01*
X238799524Y-63857143D01*
X238847143Y-63761905D01*
X238847143Y-63523810D01*
X238799524Y-63428571D01*
X238751905Y-63380952D01*
X238656667Y-63333333D01*
X238466190Y-63333333D01*
X238370952Y-63380952D01*
X238323333Y-63428571D01*
X238275714Y-63523810D01*
X239466190Y-62952381D02*
X239561429Y-62952381D01*
X239656667Y-63000000D01*
X239704286Y-63047619D01*
X239751905Y-63142857D01*
X239799524Y-63333333D01*
X239799524Y-63571429D01*
X239751905Y-63761905D01*
X239704286Y-63857143D01*
X239656667Y-63904762D01*
X239561429Y-63952381D01*
X239466190Y-63952381D01*
X239370952Y-63904762D01*
X239323333Y-63857143D01*
X239275714Y-63761905D01*
X239228095Y-63571429D01*
X239228095Y-63333333D01*
X239275714Y-63142857D01*
X239323333Y-63047619D01*
X239370952Y-63000000D01*
X239466190Y-62952381D01*
X240751905Y-63952381D02*
X240180476Y-63952381D01*
X240466190Y-63952381D02*
X240466190Y-62952381D01*
X240370952Y-63095238D01*
X240275714Y-63190476D01*
X240180476Y-63238095D01*
X211285714Y-67952381D02*
X211285714Y-68761905D01*
X211333333Y-68857143D01*
X211380952Y-68904762D01*
X211476190Y-68952381D01*
X211666667Y-68952381D01*
X211761905Y-68904762D01*
X211809524Y-68857143D01*
X211857143Y-68761905D01*
X211857143Y-67952381D01*
X212238095Y-67952381D02*
X212904762Y-67952381D01*
X212476190Y-68952381D01*
X213476190Y-67952381D02*
X213571429Y-67952381D01*
X213666667Y-68000000D01*
X213714286Y-68047619D01*
X213761905Y-68142857D01*
X213809524Y-68333333D01*
X213809524Y-68571429D01*
X213761905Y-68761905D01*
X213714286Y-68857143D01*
X213666667Y-68904762D01*
X213571429Y-68952381D01*
X213476190Y-68952381D01*
X213380952Y-68904762D01*
X213333333Y-68857143D01*
X213285714Y-68761905D01*
X213238095Y-68571429D01*
X213238095Y-68333333D01*
X213285714Y-68142857D01*
X213333333Y-68047619D01*
X213380952Y-68000000D01*
X213476190Y-67952381D01*
X214761905Y-68952381D02*
X214190476Y-68952381D01*
X214476190Y-68952381D02*
X214476190Y-67952381D01*
X214380952Y-68095238D01*
X214285714Y-68190476D01*
X214190476Y-68238095D01*
X195380953Y-65797143D02*
X195333334Y-65844762D01*
X195190477Y-65892381D01*
X195095239Y-65892381D01*
X194952381Y-65844762D01*
X194857143Y-65749524D01*
X194809524Y-65654286D01*
X194761905Y-65463810D01*
X194761905Y-65320952D01*
X194809524Y-65130476D01*
X194857143Y-65035238D01*
X194952381Y-64940000D01*
X195095239Y-64892381D01*
X195190477Y-64892381D01*
X195333334Y-64940000D01*
X195380953Y-64987619D01*
X195714286Y-64892381D02*
X196333334Y-64892381D01*
X196000000Y-65273333D01*
X196142858Y-65273333D01*
X196238096Y-65320952D01*
X196285715Y-65368571D01*
X196333334Y-65463810D01*
X196333334Y-65701905D01*
X196285715Y-65797143D01*
X196238096Y-65844762D01*
X196142858Y-65892381D01*
X195857143Y-65892381D01*
X195761905Y-65844762D01*
X195714286Y-65797143D01*
X196952381Y-64892381D02*
X197047620Y-64892381D01*
X197142858Y-64940000D01*
X197190477Y-64987619D01*
X197238096Y-65082857D01*
X197285715Y-65273333D01*
X197285715Y-65511429D01*
X197238096Y-65701905D01*
X197190477Y-65797143D01*
X197142858Y-65844762D01*
X197047620Y-65892381D01*
X196952381Y-65892381D01*
X196857143Y-65844762D01*
X196809524Y-65797143D01*
X196761905Y-65701905D01*
X196714286Y-65511429D01*
X196714286Y-65273333D01*
X196761905Y-65082857D01*
X196809524Y-64987619D01*
X196857143Y-64940000D01*
X196952381Y-64892381D01*
X198238096Y-65892381D02*
X197666667Y-65892381D01*
X197952381Y-65892381D02*
X197952381Y-64892381D01*
X197857143Y-65035238D01*
X197761905Y-65130476D01*
X197666667Y-65178095D01*
X190457143Y-71119047D02*
X190504762Y-71166666D01*
X190552381Y-71309523D01*
X190552381Y-71404761D01*
X190504762Y-71547619D01*
X190409524Y-71642857D01*
X190314286Y-71690476D01*
X190123810Y-71738095D01*
X189980952Y-71738095D01*
X189790476Y-71690476D01*
X189695238Y-71642857D01*
X189600000Y-71547619D01*
X189552381Y-71404761D01*
X189552381Y-71309523D01*
X189600000Y-71166666D01*
X189647619Y-71119047D01*
X189552381Y-70785714D02*
X189552381Y-70166666D01*
X189933333Y-70500000D01*
X189933333Y-70357142D01*
X189980952Y-70261904D01*
X190028571Y-70214285D01*
X190123810Y-70166666D01*
X190361905Y-70166666D01*
X190457143Y-70214285D01*
X190504762Y-70261904D01*
X190552381Y-70357142D01*
X190552381Y-70642857D01*
X190504762Y-70738095D01*
X190457143Y-70785714D01*
X189552381Y-69547619D02*
X189552381Y-69452380D01*
X189600000Y-69357142D01*
X189647619Y-69309523D01*
X189742857Y-69261904D01*
X189933333Y-69214285D01*
X190171429Y-69214285D01*
X190361905Y-69261904D01*
X190457143Y-69309523D01*
X190504762Y-69357142D01*
X190552381Y-69452380D01*
X190552381Y-69547619D01*
X190504762Y-69642857D01*
X190457143Y-69690476D01*
X190361905Y-69738095D01*
X190171429Y-69785714D01*
X189933333Y-69785714D01*
X189742857Y-69738095D01*
X189647619Y-69690476D01*
X189600000Y-69642857D01*
X189552381Y-69547619D01*
X189647619Y-68833333D02*
X189600000Y-68785714D01*
X189552381Y-68690476D01*
X189552381Y-68452380D01*
X189600000Y-68357142D01*
X189647619Y-68309523D01*
X189742857Y-68261904D01*
X189838095Y-68261904D01*
X189980952Y-68309523D01*
X190552381Y-68880952D01*
X190552381Y-68261904D01*
X169252381Y-72190476D02*
X168252381Y-72190476D01*
X168252381Y-71952381D01*
X168300000Y-71809523D01*
X168395238Y-71714285D01*
X168490476Y-71666666D01*
X168680952Y-71619047D01*
X168823810Y-71619047D01*
X169014286Y-71666666D01*
X169109524Y-71714285D01*
X169204762Y-71809523D01*
X169252381Y-71952381D01*
X169252381Y-72190476D01*
X168252381Y-71285714D02*
X168252381Y-70666666D01*
X168633333Y-71000000D01*
X168633333Y-70857142D01*
X168680952Y-70761904D01*
X168728571Y-70714285D01*
X168823810Y-70666666D01*
X169061905Y-70666666D01*
X169157143Y-70714285D01*
X169204762Y-70761904D01*
X169252381Y-70857142D01*
X169252381Y-71142857D01*
X169204762Y-71238095D01*
X169157143Y-71285714D01*
X168252381Y-70047619D02*
X168252381Y-69952380D01*
X168300000Y-69857142D01*
X168347619Y-69809523D01*
X168442857Y-69761904D01*
X168633333Y-69714285D01*
X168871429Y-69714285D01*
X169061905Y-69761904D01*
X169157143Y-69809523D01*
X169204762Y-69857142D01*
X169252381Y-69952380D01*
X169252381Y-70047619D01*
X169204762Y-70142857D01*
X169157143Y-70190476D01*
X169061905Y-70238095D01*
X168871429Y-70285714D01*
X168633333Y-70285714D01*
X168442857Y-70238095D01*
X168347619Y-70190476D01*
X168300000Y-70142857D01*
X168252381Y-70047619D01*
X169252381Y-68761904D02*
X169252381Y-69333333D01*
X169252381Y-69047619D02*
X168252381Y-69047619D01*
X168395238Y-69142857D01*
X168490476Y-69238095D01*
X168538095Y-69333333D01*
X171528571Y-58785714D02*
X171528571Y-59119048D01*
X172052381Y-59119048D02*
X171052381Y-59119048D01*
X171052381Y-58642857D01*
X171052381Y-58357143D02*
X171052381Y-57738095D01*
X171433333Y-58071429D01*
X171433333Y-57928571D01*
X171480952Y-57833333D01*
X171528571Y-57785714D01*
X171623810Y-57738095D01*
X171861905Y-57738095D01*
X171957143Y-57785714D01*
X172004762Y-57833333D01*
X172052381Y-57928571D01*
X172052381Y-58214286D01*
X172004762Y-58309524D01*
X171957143Y-58357143D01*
X171052381Y-57119048D02*
X171052381Y-57023809D01*
X171100000Y-56928571D01*
X171147619Y-56880952D01*
X171242857Y-56833333D01*
X171433333Y-56785714D01*
X171671429Y-56785714D01*
X171861905Y-56833333D01*
X171957143Y-56880952D01*
X172004762Y-56928571D01*
X172052381Y-57023809D01*
X172052381Y-57119048D01*
X172004762Y-57214286D01*
X171957143Y-57261905D01*
X171861905Y-57309524D01*
X171671429Y-57357143D01*
X171433333Y-57357143D01*
X171242857Y-57309524D01*
X171147619Y-57261905D01*
X171100000Y-57214286D01*
X171052381Y-57119048D01*
X172052381Y-55833333D02*
X172052381Y-56404762D01*
X172052381Y-56119048D02*
X171052381Y-56119048D01*
X171195238Y-56214286D01*
X171290476Y-56309524D01*
X171338095Y-56404762D01*
X178814286Y-43152381D02*
X178814286Y-43866667D01*
X178766666Y-44009524D01*
X178671428Y-44104762D01*
X178528571Y-44152381D01*
X178433333Y-44152381D01*
X179195238Y-43152381D02*
X179814286Y-43152381D01*
X179480952Y-43533333D01*
X179623810Y-43533333D01*
X179719048Y-43580952D01*
X179766667Y-43628571D01*
X179814286Y-43723810D01*
X179814286Y-43961905D01*
X179766667Y-44057143D01*
X179719048Y-44104762D01*
X179623810Y-44152381D01*
X179338095Y-44152381D01*
X179242857Y-44104762D01*
X179195238Y-44057143D01*
X180433333Y-43152381D02*
X180528572Y-43152381D01*
X180623810Y-43200000D01*
X180671429Y-43247619D01*
X180719048Y-43342857D01*
X180766667Y-43533333D01*
X180766667Y-43771429D01*
X180719048Y-43961905D01*
X180671429Y-44057143D01*
X180623810Y-44104762D01*
X180528572Y-44152381D01*
X180433333Y-44152381D01*
X180338095Y-44104762D01*
X180290476Y-44057143D01*
X180242857Y-43961905D01*
X180195238Y-43771429D01*
X180195238Y-43533333D01*
X180242857Y-43342857D01*
X180290476Y-43247619D01*
X180338095Y-43200000D01*
X180433333Y-43152381D01*
X181719048Y-44152381D02*
X181147619Y-44152381D01*
X181433333Y-44152381D02*
X181433333Y-43152381D01*
X181338095Y-43295238D01*
X181242857Y-43390476D01*
X181147619Y-43438095D01*
X237000000Y-53492381D02*
X237000000Y-52492381D01*
X237380953Y-52492381D01*
X237476191Y-52540000D01*
X237523810Y-52587619D01*
X237571429Y-52682857D01*
X237571429Y-52825714D01*
X237523810Y-52920952D01*
X237476191Y-52968571D01*
X237380953Y-53016190D01*
X237000000Y-53016190D01*
X238000000Y-53492381D02*
X238000000Y-52492381D01*
X238238095Y-52492381D01*
X238380953Y-52540000D01*
X238476191Y-52635238D01*
X238523810Y-52730476D01*
X238571429Y-52920952D01*
X238571429Y-53063810D01*
X238523810Y-53254286D01*
X238476191Y-53349524D01*
X238380953Y-53444762D01*
X238238095Y-53492381D01*
X238000000Y-53492381D01*
X239000000Y-53492381D02*
X239000000Y-52492381D01*
X216519286Y-38822381D02*
X216519286Y-39536667D01*
X216471666Y-39679524D01*
X216376428Y-39774762D01*
X216233571Y-39822381D01*
X216138333Y-39822381D01*
X217138333Y-39250952D02*
X217043095Y-39203333D01*
X216995476Y-39155714D01*
X216947857Y-39060476D01*
X216947857Y-39012857D01*
X216995476Y-38917619D01*
X217043095Y-38870000D01*
X217138333Y-38822381D01*
X217328810Y-38822381D01*
X217424048Y-38870000D01*
X217471667Y-38917619D01*
X217519286Y-39012857D01*
X217519286Y-39060476D01*
X217471667Y-39155714D01*
X217424048Y-39203333D01*
X217328810Y-39250952D01*
X217138333Y-39250952D01*
X217043095Y-39298571D01*
X216995476Y-39346190D01*
X216947857Y-39441429D01*
X216947857Y-39631905D01*
X216995476Y-39727143D01*
X217043095Y-39774762D01*
X217138333Y-39822381D01*
X217328810Y-39822381D01*
X217424048Y-39774762D01*
X217471667Y-39727143D01*
X217519286Y-39631905D01*
X217519286Y-39441429D01*
X217471667Y-39346190D01*
X217424048Y-39298571D01*
X217328810Y-39250952D01*
X218138333Y-38822381D02*
X218233572Y-38822381D01*
X218328810Y-38870000D01*
X218376429Y-38917619D01*
X218424048Y-39012857D01*
X218471667Y-39203333D01*
X218471667Y-39441429D01*
X218424048Y-39631905D01*
X218376429Y-39727143D01*
X218328810Y-39774762D01*
X218233572Y-39822381D01*
X218138333Y-39822381D01*
X218043095Y-39774762D01*
X217995476Y-39727143D01*
X217947857Y-39631905D01*
X217900238Y-39441429D01*
X217900238Y-39203333D01*
X217947857Y-39012857D01*
X217995476Y-38917619D01*
X218043095Y-38870000D01*
X218138333Y-38822381D01*
X219424048Y-39822381D02*
X218852619Y-39822381D01*
X219138333Y-39822381D02*
X219138333Y-38822381D01*
X219043095Y-38965238D01*
X218947857Y-39060476D01*
X218852619Y-39108095D01*
X254452381Y-57285714D02*
X253452381Y-57285714D01*
X253452381Y-56904761D01*
X253500000Y-56809523D01*
X253547619Y-56761904D01*
X253642857Y-56714285D01*
X253785714Y-56714285D01*
X253880952Y-56761904D01*
X253928571Y-56809523D01*
X253976190Y-56904761D01*
X253976190Y-57285714D01*
X254166667Y-56333333D02*
X254166667Y-55857142D01*
X254452381Y-56428571D02*
X253452381Y-56095238D01*
X254452381Y-55761904D01*
X254785714Y-55142856D02*
X254785714Y-55380952D01*
X253357143Y-55380952D01*
X253357143Y-55142856D01*
X253452381Y-54285713D02*
X253452381Y-54761904D01*
X253928571Y-54809523D01*
X253880952Y-54761904D01*
X253833333Y-54666666D01*
X253833333Y-54428570D01*
X253880952Y-54333332D01*
X253928571Y-54285713D01*
X254023810Y-54238094D01*
X254261905Y-54238094D01*
X254357143Y-54285713D01*
X254404762Y-54333332D01*
X254452381Y-54428570D01*
X254452381Y-54666666D01*
X254404762Y-54761904D01*
X254357143Y-54809523D01*
X254357143Y-53809523D02*
X254404762Y-53761904D01*
X254452381Y-53809523D01*
X254404762Y-53857142D01*
X254357143Y-53809523D01*
X254452381Y-53809523D01*
X254357143Y-53333333D02*
X254404762Y-53285714D01*
X254452381Y-53333333D01*
X254404762Y-53380952D01*
X254357143Y-53333333D01*
X254452381Y-53333333D01*
X253452381Y-52952381D02*
X253452381Y-52285714D01*
X254452381Y-52714286D01*
X254785714Y-52000000D02*
X254785714Y-51761905D01*
X253357143Y-51761905D01*
X253357143Y-52000000D01*
X254452381Y-68857143D02*
X253452381Y-68857143D01*
X253452381Y-68476190D01*
X253500000Y-68380952D01*
X253547619Y-68333333D01*
X253642857Y-68285714D01*
X253785714Y-68285714D01*
X253880952Y-68333333D01*
X253928571Y-68380952D01*
X253976190Y-68476190D01*
X253976190Y-68857143D01*
X253928571Y-67523809D02*
X253976190Y-67380952D01*
X254023810Y-67333333D01*
X254119048Y-67285714D01*
X254261905Y-67285714D01*
X254357143Y-67333333D01*
X254404762Y-67380952D01*
X254452381Y-67476190D01*
X254452381Y-67857143D01*
X253452381Y-67857143D01*
X253452381Y-67523809D01*
X253500000Y-67428571D01*
X253547619Y-67380952D01*
X253642857Y-67333333D01*
X253738095Y-67333333D01*
X253833333Y-67380952D01*
X253880952Y-67428571D01*
X253928571Y-67523809D01*
X253928571Y-67857143D01*
X254785714Y-66571428D02*
X254785714Y-66809524D01*
X253357143Y-66809524D01*
X253357143Y-66571428D01*
X253452381Y-66000000D02*
X253452381Y-65904761D01*
X253500000Y-65809523D01*
X253547619Y-65761904D01*
X253642857Y-65714285D01*
X253833333Y-65666666D01*
X254071429Y-65666666D01*
X254261905Y-65714285D01*
X254357143Y-65761904D01*
X254404762Y-65809523D01*
X254452381Y-65904761D01*
X254452381Y-66000000D01*
X254404762Y-66095238D01*
X254357143Y-66142857D01*
X254261905Y-66190476D01*
X254071429Y-66238095D01*
X253833333Y-66238095D01*
X253642857Y-66190476D01*
X253547619Y-66142857D01*
X253500000Y-66095238D01*
X253452381Y-66000000D01*
X254357143Y-65238095D02*
X254404762Y-65190476D01*
X254452381Y-65238095D01*
X254404762Y-65285714D01*
X254357143Y-65238095D01*
X254452381Y-65238095D01*
X254357143Y-64761905D02*
X254404762Y-64714286D01*
X254452381Y-64761905D01*
X254404762Y-64809524D01*
X254357143Y-64761905D01*
X254452381Y-64761905D01*
X253452381Y-64380953D02*
X253452381Y-63761905D01*
X253833333Y-64095239D01*
X253833333Y-63952381D01*
X253880952Y-63857143D01*
X253928571Y-63809524D01*
X254023810Y-63761905D01*
X254261905Y-63761905D01*
X254357143Y-63809524D01*
X254404762Y-63857143D01*
X254452381Y-63952381D01*
X254452381Y-64238096D01*
X254404762Y-64333334D01*
X254357143Y-64380953D01*
X254785714Y-63428572D02*
X254785714Y-63190477D01*
X253357143Y-63190477D01*
X253357143Y-63428572D01*
X177380953Y-80252381D02*
X177047619Y-79776190D01*
X176809524Y-80252381D02*
X176809524Y-79252381D01*
X177190477Y-79252381D01*
X177285715Y-79300000D01*
X177333334Y-79347619D01*
X177380953Y-79442857D01*
X177380953Y-79585714D01*
X177333334Y-79680952D01*
X177285715Y-79728571D01*
X177190477Y-79776190D01*
X176809524Y-79776190D01*
X177714286Y-79252381D02*
X178333334Y-79252381D01*
X178000000Y-79633333D01*
X178142858Y-79633333D01*
X178238096Y-79680952D01*
X178285715Y-79728571D01*
X178333334Y-79823810D01*
X178333334Y-80061905D01*
X178285715Y-80157143D01*
X178238096Y-80204762D01*
X178142858Y-80252381D01*
X177857143Y-80252381D01*
X177761905Y-80204762D01*
X177714286Y-80157143D01*
X178952381Y-79252381D02*
X179047620Y-79252381D01*
X179142858Y-79300000D01*
X179190477Y-79347619D01*
X179238096Y-79442857D01*
X179285715Y-79633333D01*
X179285715Y-79871429D01*
X179238096Y-80061905D01*
X179190477Y-80157143D01*
X179142858Y-80204762D01*
X179047620Y-80252381D01*
X178952381Y-80252381D01*
X178857143Y-80204762D01*
X178809524Y-80157143D01*
X178761905Y-80061905D01*
X178714286Y-79871429D01*
X178714286Y-79633333D01*
X178761905Y-79442857D01*
X178809524Y-79347619D01*
X178857143Y-79300000D01*
X178952381Y-79252381D01*
X180238096Y-80252381D02*
X179666667Y-80252381D01*
X179952381Y-80252381D02*
X179952381Y-79252381D01*
X179857143Y-79395238D01*
X179761905Y-79490476D01*
X179666667Y-79538095D01*
X180380953Y-63052381D02*
X180047619Y-62576190D01*
X179809524Y-63052381D02*
X179809524Y-62052381D01*
X180190477Y-62052381D01*
X180285715Y-62100000D01*
X180333334Y-62147619D01*
X180380953Y-62242857D01*
X180380953Y-62385714D01*
X180333334Y-62480952D01*
X180285715Y-62528571D01*
X180190477Y-62576190D01*
X179809524Y-62576190D01*
X180714286Y-62052381D02*
X181333334Y-62052381D01*
X181000000Y-62433333D01*
X181142858Y-62433333D01*
X181238096Y-62480952D01*
X181285715Y-62528571D01*
X181333334Y-62623810D01*
X181333334Y-62861905D01*
X181285715Y-62957143D01*
X181238096Y-63004762D01*
X181142858Y-63052381D01*
X180857143Y-63052381D01*
X180761905Y-63004762D01*
X180714286Y-62957143D01*
X181952381Y-62052381D02*
X182047620Y-62052381D01*
X182142858Y-62100000D01*
X182190477Y-62147619D01*
X182238096Y-62242857D01*
X182285715Y-62433333D01*
X182285715Y-62671429D01*
X182238096Y-62861905D01*
X182190477Y-62957143D01*
X182142858Y-63004762D01*
X182047620Y-63052381D01*
X181952381Y-63052381D01*
X181857143Y-63004762D01*
X181809524Y-62957143D01*
X181761905Y-62861905D01*
X181714286Y-62671429D01*
X181714286Y-62433333D01*
X181761905Y-62242857D01*
X181809524Y-62147619D01*
X181857143Y-62100000D01*
X181952381Y-62052381D01*
X182666667Y-62147619D02*
X182714286Y-62100000D01*
X182809524Y-62052381D01*
X183047620Y-62052381D01*
X183142858Y-62100000D01*
X183190477Y-62147619D01*
X183238096Y-62242857D01*
X183238096Y-62338095D01*
X183190477Y-62480952D01*
X182619048Y-63052381D01*
X183238096Y-63052381D01*
X180430953Y-65352381D02*
X180097619Y-64876190D01*
X179859524Y-65352381D02*
X179859524Y-64352381D01*
X180240477Y-64352381D01*
X180335715Y-64400000D01*
X180383334Y-64447619D01*
X180430953Y-64542857D01*
X180430953Y-64685714D01*
X180383334Y-64780952D01*
X180335715Y-64828571D01*
X180240477Y-64876190D01*
X179859524Y-64876190D01*
X180764286Y-64352381D02*
X181383334Y-64352381D01*
X181050000Y-64733333D01*
X181192858Y-64733333D01*
X181288096Y-64780952D01*
X181335715Y-64828571D01*
X181383334Y-64923810D01*
X181383334Y-65161905D01*
X181335715Y-65257143D01*
X181288096Y-65304762D01*
X181192858Y-65352381D01*
X180907143Y-65352381D01*
X180811905Y-65304762D01*
X180764286Y-65257143D01*
X182002381Y-64352381D02*
X182097620Y-64352381D01*
X182192858Y-64400000D01*
X182240477Y-64447619D01*
X182288096Y-64542857D01*
X182335715Y-64733333D01*
X182335715Y-64971429D01*
X182288096Y-65161905D01*
X182240477Y-65257143D01*
X182192858Y-65304762D01*
X182097620Y-65352381D01*
X182002381Y-65352381D01*
X181907143Y-65304762D01*
X181859524Y-65257143D01*
X181811905Y-65161905D01*
X181764286Y-64971429D01*
X181764286Y-64733333D01*
X181811905Y-64542857D01*
X181859524Y-64447619D01*
X181907143Y-64400000D01*
X182002381Y-64352381D01*
X182669048Y-64352381D02*
X183288096Y-64352381D01*
X182954762Y-64733333D01*
X183097620Y-64733333D01*
X183192858Y-64780952D01*
X183240477Y-64828571D01*
X183288096Y-64923810D01*
X183288096Y-65161905D01*
X183240477Y-65257143D01*
X183192858Y-65304762D01*
X183097620Y-65352381D01*
X182811905Y-65352381D01*
X182716667Y-65304762D01*
X182669048Y-65257143D01*
X184380953Y-65352381D02*
X184047619Y-64876190D01*
X183809524Y-65352381D02*
X183809524Y-64352381D01*
X184190477Y-64352381D01*
X184285715Y-64400000D01*
X184333334Y-64447619D01*
X184380953Y-64542857D01*
X184380953Y-64685714D01*
X184333334Y-64780952D01*
X184285715Y-64828571D01*
X184190477Y-64876190D01*
X183809524Y-64876190D01*
X184714286Y-64352381D02*
X185333334Y-64352381D01*
X185000000Y-64733333D01*
X185142858Y-64733333D01*
X185238096Y-64780952D01*
X185285715Y-64828571D01*
X185333334Y-64923810D01*
X185333334Y-65161905D01*
X185285715Y-65257143D01*
X185238096Y-65304762D01*
X185142858Y-65352381D01*
X184857143Y-65352381D01*
X184761905Y-65304762D01*
X184714286Y-65257143D01*
X185952381Y-64352381D02*
X186047620Y-64352381D01*
X186142858Y-64400000D01*
X186190477Y-64447619D01*
X186238096Y-64542857D01*
X186285715Y-64733333D01*
X186285715Y-64971429D01*
X186238096Y-65161905D01*
X186190477Y-65257143D01*
X186142858Y-65304762D01*
X186047620Y-65352381D01*
X185952381Y-65352381D01*
X185857143Y-65304762D01*
X185809524Y-65257143D01*
X185761905Y-65161905D01*
X185714286Y-64971429D01*
X185714286Y-64733333D01*
X185761905Y-64542857D01*
X185809524Y-64447619D01*
X185857143Y-64400000D01*
X185952381Y-64352381D01*
X187142858Y-64685714D02*
X187142858Y-65352381D01*
X186904762Y-64304762D02*
X186666667Y-65019048D01*
X187285715Y-65019048D01*
X232862619Y-48712381D02*
X232529285Y-48236190D01*
X232291190Y-48712381D02*
X232291190Y-47712381D01*
X232672143Y-47712381D01*
X232767381Y-47760000D01*
X232815000Y-47807619D01*
X232862619Y-47902857D01*
X232862619Y-48045714D01*
X232815000Y-48140952D01*
X232767381Y-48188571D01*
X232672143Y-48236190D01*
X232291190Y-48236190D01*
X233291190Y-48188571D02*
X233624524Y-48188571D01*
X233767381Y-48712381D02*
X233291190Y-48712381D01*
X233291190Y-47712381D01*
X233767381Y-47712381D01*
X234148333Y-48664762D02*
X234291190Y-48712381D01*
X234529286Y-48712381D01*
X234624524Y-48664762D01*
X234672143Y-48617143D01*
X234719762Y-48521905D01*
X234719762Y-48426667D01*
X234672143Y-48331429D01*
X234624524Y-48283810D01*
X234529286Y-48236190D01*
X234338809Y-48188571D01*
X234243571Y-48140952D01*
X234195952Y-48093333D01*
X234148333Y-47998095D01*
X234148333Y-47902857D01*
X234195952Y-47807619D01*
X234243571Y-47760000D01*
X234338809Y-47712381D01*
X234576905Y-47712381D01*
X234719762Y-47760000D01*
X235148333Y-48188571D02*
X235481667Y-48188571D01*
X235624524Y-48712381D02*
X235148333Y-48712381D01*
X235148333Y-47712381D01*
X235624524Y-47712381D01*
X235910238Y-47712381D02*
X236481667Y-47712381D01*
X236195952Y-48712381D02*
X236195952Y-47712381D01*
X181785714Y-69452381D02*
X181785714Y-70261905D01*
X181833333Y-70357143D01*
X181880952Y-70404762D01*
X181976190Y-70452381D01*
X182166667Y-70452381D01*
X182261905Y-70404762D01*
X182309524Y-70357143D01*
X182357143Y-70261905D01*
X182357143Y-69452381D01*
X182738095Y-69452381D02*
X183357143Y-69452381D01*
X183023809Y-69833333D01*
X183166667Y-69833333D01*
X183261905Y-69880952D01*
X183309524Y-69928571D01*
X183357143Y-70023810D01*
X183357143Y-70261905D01*
X183309524Y-70357143D01*
X183261905Y-70404762D01*
X183166667Y-70452381D01*
X182880952Y-70452381D01*
X182785714Y-70404762D01*
X182738095Y-70357143D01*
X183976190Y-69452381D02*
X184071429Y-69452381D01*
X184166667Y-69500000D01*
X184214286Y-69547619D01*
X184261905Y-69642857D01*
X184309524Y-69833333D01*
X184309524Y-70071429D01*
X184261905Y-70261905D01*
X184214286Y-70357143D01*
X184166667Y-70404762D01*
X184071429Y-70452381D01*
X183976190Y-70452381D01*
X183880952Y-70404762D01*
X183833333Y-70357143D01*
X183785714Y-70261905D01*
X183738095Y-70071429D01*
X183738095Y-69833333D01*
X183785714Y-69642857D01*
X183833333Y-69547619D01*
X183880952Y-69500000D01*
X183976190Y-69452381D01*
X185261905Y-70452381D02*
X184690476Y-70452381D01*
X184976190Y-70452381D02*
X184976190Y-69452381D01*
X184880952Y-69595238D01*
X184785714Y-69690476D01*
X184690476Y-69738095D01*
X254452381Y-78857143D02*
X253452381Y-78857143D01*
X253452381Y-78476190D01*
X253500000Y-78380952D01*
X253547619Y-78333333D01*
X253642857Y-78285714D01*
X253785714Y-78285714D01*
X253880952Y-78333333D01*
X253928571Y-78380952D01*
X253976190Y-78476190D01*
X253976190Y-78857143D01*
X254357143Y-77285714D02*
X254404762Y-77333333D01*
X254452381Y-77476190D01*
X254452381Y-77571428D01*
X254404762Y-77714286D01*
X254309524Y-77809524D01*
X254214286Y-77857143D01*
X254023810Y-77904762D01*
X253880952Y-77904762D01*
X253690476Y-77857143D01*
X253595238Y-77809524D01*
X253500000Y-77714286D01*
X253452381Y-77571428D01*
X253452381Y-77476190D01*
X253500000Y-77333333D01*
X253547619Y-77285714D01*
X254785714Y-76571428D02*
X254785714Y-76809524D01*
X253357143Y-76809524D01*
X253357143Y-76571428D01*
X253452381Y-76000000D02*
X253452381Y-75904761D01*
X253500000Y-75809523D01*
X253547619Y-75761904D01*
X253642857Y-75714285D01*
X253833333Y-75666666D01*
X254071429Y-75666666D01*
X254261905Y-75714285D01*
X254357143Y-75761904D01*
X254404762Y-75809523D01*
X254452381Y-75904761D01*
X254452381Y-76000000D01*
X254404762Y-76095238D01*
X254357143Y-76142857D01*
X254261905Y-76190476D01*
X254071429Y-76238095D01*
X253833333Y-76238095D01*
X253642857Y-76190476D01*
X253547619Y-76142857D01*
X253500000Y-76095238D01*
X253452381Y-76000000D01*
X254357143Y-75238095D02*
X254404762Y-75190476D01*
X254452381Y-75238095D01*
X254404762Y-75285714D01*
X254357143Y-75238095D01*
X254452381Y-75238095D01*
X254357143Y-74761905D02*
X254404762Y-74714286D01*
X254452381Y-74761905D01*
X254404762Y-74809524D01*
X254357143Y-74761905D01*
X254452381Y-74761905D01*
X254452381Y-73761905D02*
X254452381Y-74333334D01*
X254452381Y-74047620D02*
X253452381Y-74047620D01*
X253595238Y-74142858D01*
X253690476Y-74238096D01*
X253738095Y-74333334D01*
X254785714Y-73428572D02*
X254785714Y-73190477D01*
X253357143Y-73190477D01*
X253357143Y-73428572D01*
X198165715Y-100357143D02*
X198118096Y-100404762D01*
X197975239Y-100452381D01*
X197880001Y-100452381D01*
X197737143Y-100404762D01*
X197641905Y-100309524D01*
X197594286Y-100214286D01*
X197546667Y-100023810D01*
X197546667Y-99880952D01*
X197594286Y-99690476D01*
X197641905Y-99595238D01*
X197737143Y-99500000D01*
X197880001Y-99452381D01*
X197975239Y-99452381D01*
X198118096Y-99500000D01*
X198165715Y-99547619D01*
X198546667Y-100404762D02*
X198689524Y-100452381D01*
X198927620Y-100452381D01*
X199022858Y-100404762D01*
X199070477Y-100357143D01*
X199118096Y-100261905D01*
X199118096Y-100166667D01*
X199070477Y-100071429D01*
X199022858Y-100023810D01*
X198927620Y-99976190D01*
X198737143Y-99928571D01*
X198641905Y-99880952D01*
X198594286Y-99833333D01*
X198546667Y-99738095D01*
X198546667Y-99642857D01*
X198594286Y-99547619D01*
X198641905Y-99500000D01*
X198737143Y-99452381D01*
X198975239Y-99452381D01*
X199118096Y-99500000D01*
X199546667Y-100452381D02*
X199546667Y-99452381D01*
X199546667Y-99928571D02*
X200118096Y-99928571D01*
X200118096Y-100452381D02*
X200118096Y-99452381D01*
X200546667Y-100166667D02*
X201022858Y-100166667D01*
X200451429Y-100452381D02*
X200784762Y-99452381D01*
X201118096Y-100452381D01*
X202022858Y-100452381D02*
X201689524Y-99976190D01*
X201451429Y-100452381D02*
X201451429Y-99452381D01*
X201832382Y-99452381D01*
X201927620Y-99500000D01*
X201975239Y-99547619D01*
X202022858Y-99642857D01*
X202022858Y-99785714D01*
X201975239Y-99880952D01*
X201927620Y-99928571D01*
X201832382Y-99976190D01*
X201451429Y-99976190D01*
X202451429Y-99928571D02*
X202784763Y-99928571D01*
X202927620Y-100452381D02*
X202451429Y-100452381D01*
X202451429Y-99452381D01*
X202927620Y-99452381D01*
X203118096Y-100547619D02*
X203880001Y-100547619D01*
X204118096Y-100452381D02*
X204118096Y-99452381D01*
X204594286Y-100452381D02*
X204594286Y-99452381D01*
X205165715Y-100452381D01*
X205165715Y-99452381D01*
X222279048Y-100357143D02*
X222231429Y-100404762D01*
X222088572Y-100452381D01*
X221993334Y-100452381D01*
X221850476Y-100404762D01*
X221755238Y-100309524D01*
X221707619Y-100214286D01*
X221660000Y-100023810D01*
X221660000Y-99880952D01*
X221707619Y-99690476D01*
X221755238Y-99595238D01*
X221850476Y-99500000D01*
X221993334Y-99452381D01*
X222088572Y-99452381D01*
X222231429Y-99500000D01*
X222279048Y-99547619D01*
X222660000Y-100404762D02*
X222802857Y-100452381D01*
X223040953Y-100452381D01*
X223136191Y-100404762D01*
X223183810Y-100357143D01*
X223231429Y-100261905D01*
X223231429Y-100166667D01*
X223183810Y-100071429D01*
X223136191Y-100023810D01*
X223040953Y-99976190D01*
X222850476Y-99928571D01*
X222755238Y-99880952D01*
X222707619Y-99833333D01*
X222660000Y-99738095D01*
X222660000Y-99642857D01*
X222707619Y-99547619D01*
X222755238Y-99500000D01*
X222850476Y-99452381D01*
X223088572Y-99452381D01*
X223231429Y-99500000D01*
X223660000Y-100452381D02*
X223660000Y-99452381D01*
X223660000Y-99928571D02*
X224231429Y-99928571D01*
X224231429Y-100452381D02*
X224231429Y-99452381D01*
X224660000Y-100166667D02*
X225136191Y-100166667D01*
X224564762Y-100452381D02*
X224898095Y-99452381D01*
X225231429Y-100452381D01*
X226136191Y-100452381D02*
X225802857Y-99976190D01*
X225564762Y-100452381D02*
X225564762Y-99452381D01*
X225945715Y-99452381D01*
X226040953Y-99500000D01*
X226088572Y-99547619D01*
X226136191Y-99642857D01*
X226136191Y-99785714D01*
X226088572Y-99880952D01*
X226040953Y-99928571D01*
X225945715Y-99976190D01*
X225564762Y-99976190D01*
X226564762Y-99928571D02*
X226898096Y-99928571D01*
X227040953Y-100452381D02*
X226564762Y-100452381D01*
X226564762Y-99452381D01*
X227040953Y-99452381D01*
X227231429Y-100547619D02*
X227993334Y-100547619D01*
X228421905Y-99452381D02*
X228612382Y-99452381D01*
X228707620Y-99500000D01*
X228802858Y-99595238D01*
X228850477Y-99785714D01*
X228850477Y-100119048D01*
X228802858Y-100309524D01*
X228707620Y-100404762D01*
X228612382Y-100452381D01*
X228421905Y-100452381D01*
X228326667Y-100404762D01*
X228231429Y-100309524D01*
X228183810Y-100119048D01*
X228183810Y-99785714D01*
X228231429Y-99595238D01*
X228326667Y-99500000D01*
X228421905Y-99452381D01*
X229279048Y-99452381D02*
X229279048Y-100261905D01*
X229326667Y-100357143D01*
X229374286Y-100404762D01*
X229469524Y-100452381D01*
X229660001Y-100452381D01*
X229755239Y-100404762D01*
X229802858Y-100357143D01*
X229850477Y-100261905D01*
X229850477Y-99452381D01*
X230183810Y-99452381D02*
X230755239Y-99452381D01*
X230469524Y-100452381D02*
X230469524Y-99452381D01*
M02*
