G04 #@! TF.FileFunction,Drawing*
%FSLAX46Y46*%
G04 Gerber Fmt 4.6, Leading zero omitted, Abs format (unit mm)*
G04 Created by KiCad (PCBNEW 4.0.7) date Monday, September 04, 2017 'PMt' 03:24:15 PM*
%MOMM*%
%LPD*%
G01*
G04 APERTURE LIST*
%ADD10C,0.100000*%
%ADD11C,0.300000*%
G04 APERTURE END LIST*
D10*
D11*
X165071429Y-70500001D02*
X165071429Y-70214287D01*
X165000000Y-70071430D01*
X164928571Y-70000001D01*
X164714286Y-69857144D01*
X164428571Y-69785715D01*
X163857143Y-69785715D01*
X163714286Y-69857144D01*
X163642857Y-69928572D01*
X163571429Y-70071430D01*
X163571429Y-70357144D01*
X163642857Y-70500001D01*
X163714286Y-70571430D01*
X163857143Y-70642858D01*
X164214286Y-70642858D01*
X164357143Y-70571430D01*
X164428571Y-70500001D01*
X164500000Y-70357144D01*
X164500000Y-70071430D01*
X164428571Y-69928572D01*
X164357143Y-69857144D01*
X164214286Y-69785715D01*
X165071429Y-71142858D02*
X165071429Y-72071429D01*
X164500000Y-71571429D01*
X164500000Y-71785715D01*
X164428571Y-71928572D01*
X164357143Y-72000001D01*
X164214286Y-72071429D01*
X163857143Y-72071429D01*
X163714286Y-72000001D01*
X163642857Y-71928572D01*
X163571429Y-71785715D01*
X163571429Y-71357143D01*
X163642857Y-71214286D01*
X163714286Y-71142858D01*
X163714286Y-72714286D02*
X163642857Y-72785714D01*
X163571429Y-72714286D01*
X163642857Y-72642857D01*
X163714286Y-72714286D01*
X163571429Y-72714286D01*
X165071429Y-73714286D02*
X165071429Y-73857143D01*
X165000000Y-74000000D01*
X164928571Y-74071429D01*
X164785714Y-74142858D01*
X164500000Y-74214286D01*
X164142857Y-74214286D01*
X163857143Y-74142858D01*
X163714286Y-74071429D01*
X163642857Y-74000000D01*
X163571429Y-73857143D01*
X163571429Y-73714286D01*
X163642857Y-73571429D01*
X163714286Y-73500000D01*
X163857143Y-73428572D01*
X164142857Y-73357143D01*
X164500000Y-73357143D01*
X164785714Y-73428572D01*
X164928571Y-73500000D01*
X165000000Y-73571429D01*
X165071429Y-73714286D01*
X165071429Y-75142857D02*
X165071429Y-75285714D01*
X165000000Y-75428571D01*
X164928571Y-75500000D01*
X164785714Y-75571429D01*
X164500000Y-75642857D01*
X164142857Y-75642857D01*
X163857143Y-75571429D01*
X163714286Y-75500000D01*
X163642857Y-75428571D01*
X163571429Y-75285714D01*
X163571429Y-75142857D01*
X163642857Y-75000000D01*
X163714286Y-74928571D01*
X163857143Y-74857143D01*
X164142857Y-74785714D01*
X164500000Y-74785714D01*
X164785714Y-74857143D01*
X164928571Y-74928571D01*
X165000000Y-75000000D01*
X165071429Y-75142857D01*
X165071429Y-76571428D02*
X165071429Y-76714285D01*
X165000000Y-76857142D01*
X164928571Y-76928571D01*
X164785714Y-77000000D01*
X164500000Y-77071428D01*
X164142857Y-77071428D01*
X163857143Y-77000000D01*
X163714286Y-76928571D01*
X163642857Y-76857142D01*
X163571429Y-76714285D01*
X163571429Y-76571428D01*
X163642857Y-76428571D01*
X163714286Y-76357142D01*
X163857143Y-76285714D01*
X164142857Y-76214285D01*
X164500000Y-76214285D01*
X164785714Y-76285714D01*
X164928571Y-76357142D01*
X165000000Y-76428571D01*
X165071429Y-76571428D01*
X163571429Y-78857142D02*
X164571429Y-78857142D01*
X164428571Y-78857142D02*
X164500000Y-78928570D01*
X164571429Y-79071428D01*
X164571429Y-79285713D01*
X164500000Y-79428570D01*
X164357143Y-79499999D01*
X163571429Y-79499999D01*
X164357143Y-79499999D02*
X164500000Y-79571428D01*
X164571429Y-79714285D01*
X164571429Y-79928570D01*
X164500000Y-80071428D01*
X164357143Y-80142856D01*
X163571429Y-80142856D01*
X163571429Y-80857142D02*
X164571429Y-80857142D01*
X164428571Y-80857142D02*
X164500000Y-80928570D01*
X164571429Y-81071428D01*
X164571429Y-81285713D01*
X164500000Y-81428570D01*
X164357143Y-81499999D01*
X163571429Y-81499999D01*
X164357143Y-81499999D02*
X164500000Y-81571428D01*
X164571429Y-81714285D01*
X164571429Y-81928570D01*
X164500000Y-82071428D01*
X164357143Y-82142856D01*
X163571429Y-82142856D01*
X165600000Y-44500000D02*
X165600000Y-107500000D01*
X171500000Y-44500000D02*
X162900000Y-44500000D01*
X171500000Y-107500000D02*
X162900000Y-107500000D01*
X165600000Y-107500000D02*
X165013579Y-106373496D01*
X165600000Y-107500000D02*
X166186421Y-106373496D01*
X165600000Y-44500000D02*
X165013579Y-45626504D01*
X165600000Y-44500000D02*
X166186421Y-45626504D01*
X207071430Y-36971429D02*
X206928572Y-36900000D01*
X206857144Y-36828571D01*
X206785715Y-36685714D01*
X206785715Y-36614286D01*
X206857144Y-36471429D01*
X206928572Y-36400000D01*
X207071430Y-36328571D01*
X207357144Y-36328571D01*
X207500001Y-36400000D01*
X207571430Y-36471429D01*
X207642858Y-36614286D01*
X207642858Y-36685714D01*
X207571430Y-36828571D01*
X207500001Y-36900000D01*
X207357144Y-36971429D01*
X207071430Y-36971429D01*
X206928572Y-37042857D01*
X206857144Y-37114286D01*
X206785715Y-37257143D01*
X206785715Y-37542857D01*
X206857144Y-37685714D01*
X206928572Y-37757143D01*
X207071430Y-37828571D01*
X207357144Y-37828571D01*
X207500001Y-37757143D01*
X207571430Y-37685714D01*
X207642858Y-37542857D01*
X207642858Y-37257143D01*
X207571430Y-37114286D01*
X207500001Y-37042857D01*
X207357144Y-36971429D01*
X208142858Y-36328571D02*
X209071429Y-36328571D01*
X208571429Y-36900000D01*
X208785715Y-36900000D01*
X208928572Y-36971429D01*
X209000001Y-37042857D01*
X209071429Y-37185714D01*
X209071429Y-37542857D01*
X209000001Y-37685714D01*
X208928572Y-37757143D01*
X208785715Y-37828571D01*
X208357143Y-37828571D01*
X208214286Y-37757143D01*
X208142858Y-37685714D01*
X209714286Y-37685714D02*
X209785714Y-37757143D01*
X209714286Y-37828571D01*
X209642857Y-37757143D01*
X209714286Y-37685714D01*
X209714286Y-37828571D01*
X210714286Y-36328571D02*
X210857143Y-36328571D01*
X211000000Y-36400000D01*
X211071429Y-36471429D01*
X211142858Y-36614286D01*
X211214286Y-36900000D01*
X211214286Y-37257143D01*
X211142858Y-37542857D01*
X211071429Y-37685714D01*
X211000000Y-37757143D01*
X210857143Y-37828571D01*
X210714286Y-37828571D01*
X210571429Y-37757143D01*
X210500000Y-37685714D01*
X210428572Y-37542857D01*
X210357143Y-37257143D01*
X210357143Y-36900000D01*
X210428572Y-36614286D01*
X210500000Y-36471429D01*
X210571429Y-36400000D01*
X210714286Y-36328571D01*
X212142857Y-36328571D02*
X212285714Y-36328571D01*
X212428571Y-36400000D01*
X212500000Y-36471429D01*
X212571429Y-36614286D01*
X212642857Y-36900000D01*
X212642857Y-37257143D01*
X212571429Y-37542857D01*
X212500000Y-37685714D01*
X212428571Y-37757143D01*
X212285714Y-37828571D01*
X212142857Y-37828571D01*
X212000000Y-37757143D01*
X211928571Y-37685714D01*
X211857143Y-37542857D01*
X211785714Y-37257143D01*
X211785714Y-36900000D01*
X211857143Y-36614286D01*
X211928571Y-36471429D01*
X212000000Y-36400000D01*
X212142857Y-36328571D01*
X213571428Y-36328571D02*
X213714285Y-36328571D01*
X213857142Y-36400000D01*
X213928571Y-36471429D01*
X214000000Y-36614286D01*
X214071428Y-36900000D01*
X214071428Y-37257143D01*
X214000000Y-37542857D01*
X213928571Y-37685714D01*
X213857142Y-37757143D01*
X213714285Y-37828571D01*
X213571428Y-37828571D01*
X213428571Y-37757143D01*
X213357142Y-37685714D01*
X213285714Y-37542857D01*
X213214285Y-37257143D01*
X213214285Y-36900000D01*
X213285714Y-36614286D01*
X213357142Y-36471429D01*
X213428571Y-36400000D01*
X213571428Y-36328571D01*
X215857142Y-37828571D02*
X215857142Y-36828571D01*
X215857142Y-36971429D02*
X215928570Y-36900000D01*
X216071428Y-36828571D01*
X216285713Y-36828571D01*
X216428570Y-36900000D01*
X216499999Y-37042857D01*
X216499999Y-37828571D01*
X216499999Y-37042857D02*
X216571428Y-36900000D01*
X216714285Y-36828571D01*
X216928570Y-36828571D01*
X217071428Y-36900000D01*
X217142856Y-37042857D01*
X217142856Y-37828571D01*
X217857142Y-37828571D02*
X217857142Y-36828571D01*
X217857142Y-36971429D02*
X217928570Y-36900000D01*
X218071428Y-36828571D01*
X218285713Y-36828571D01*
X218428570Y-36900000D01*
X218499999Y-37042857D01*
X218499999Y-37828571D01*
X218499999Y-37042857D02*
X218571428Y-36900000D01*
X218714285Y-36828571D01*
X218928570Y-36828571D01*
X219071428Y-36900000D01*
X219142856Y-37042857D01*
X219142856Y-37828571D01*
X171500000Y-38500000D02*
X254500000Y-38500000D01*
X171500000Y-44500000D02*
X171500000Y-35800000D01*
X254500000Y-44500000D02*
X254500000Y-35800000D01*
X254500000Y-38500000D02*
X253373496Y-39086421D01*
X254500000Y-38500000D02*
X253373496Y-37913579D01*
X171500000Y-38500000D02*
X172626504Y-39086421D01*
X171500000Y-38500000D02*
X172626504Y-37913579D01*
X206714287Y-112228571D02*
X207714287Y-112228571D01*
X207071430Y-113728571D01*
X208928572Y-112228571D02*
X208642858Y-112228571D01*
X208500001Y-112300000D01*
X208428572Y-112371429D01*
X208285715Y-112585714D01*
X208214286Y-112871429D01*
X208214286Y-113442857D01*
X208285715Y-113585714D01*
X208357143Y-113657143D01*
X208500001Y-113728571D01*
X208785715Y-113728571D01*
X208928572Y-113657143D01*
X209000001Y-113585714D01*
X209071429Y-113442857D01*
X209071429Y-113085714D01*
X209000001Y-112942857D01*
X208928572Y-112871429D01*
X208785715Y-112800000D01*
X208500001Y-112800000D01*
X208357143Y-112871429D01*
X208285715Y-112942857D01*
X208214286Y-113085714D01*
X209714286Y-113585714D02*
X209785714Y-113657143D01*
X209714286Y-113728571D01*
X209642857Y-113657143D01*
X209714286Y-113585714D01*
X209714286Y-113728571D01*
X210714286Y-112228571D02*
X210857143Y-112228571D01*
X211000000Y-112300000D01*
X211071429Y-112371429D01*
X211142858Y-112514286D01*
X211214286Y-112800000D01*
X211214286Y-113157143D01*
X211142858Y-113442857D01*
X211071429Y-113585714D01*
X211000000Y-113657143D01*
X210857143Y-113728571D01*
X210714286Y-113728571D01*
X210571429Y-113657143D01*
X210500000Y-113585714D01*
X210428572Y-113442857D01*
X210357143Y-113157143D01*
X210357143Y-112800000D01*
X210428572Y-112514286D01*
X210500000Y-112371429D01*
X210571429Y-112300000D01*
X210714286Y-112228571D01*
X212142857Y-112228571D02*
X212285714Y-112228571D01*
X212428571Y-112300000D01*
X212500000Y-112371429D01*
X212571429Y-112514286D01*
X212642857Y-112800000D01*
X212642857Y-113157143D01*
X212571429Y-113442857D01*
X212500000Y-113585714D01*
X212428571Y-113657143D01*
X212285714Y-113728571D01*
X212142857Y-113728571D01*
X212000000Y-113657143D01*
X211928571Y-113585714D01*
X211857143Y-113442857D01*
X211785714Y-113157143D01*
X211785714Y-112800000D01*
X211857143Y-112514286D01*
X211928571Y-112371429D01*
X212000000Y-112300000D01*
X212142857Y-112228571D01*
X213571428Y-112228571D02*
X213714285Y-112228571D01*
X213857142Y-112300000D01*
X213928571Y-112371429D01*
X214000000Y-112514286D01*
X214071428Y-112800000D01*
X214071428Y-113157143D01*
X214000000Y-113442857D01*
X213928571Y-113585714D01*
X213857142Y-113657143D01*
X213714285Y-113728571D01*
X213571428Y-113728571D01*
X213428571Y-113657143D01*
X213357142Y-113585714D01*
X213285714Y-113442857D01*
X213214285Y-113157143D01*
X213214285Y-112800000D01*
X213285714Y-112514286D01*
X213357142Y-112371429D01*
X213428571Y-112300000D01*
X213571428Y-112228571D01*
X215857142Y-113728571D02*
X215857142Y-112728571D01*
X215857142Y-112871429D02*
X215928570Y-112800000D01*
X216071428Y-112728571D01*
X216285713Y-112728571D01*
X216428570Y-112800000D01*
X216499999Y-112942857D01*
X216499999Y-113728571D01*
X216499999Y-112942857D02*
X216571428Y-112800000D01*
X216714285Y-112728571D01*
X216928570Y-112728571D01*
X217071428Y-112800000D01*
X217142856Y-112942857D01*
X217142856Y-113728571D01*
X217857142Y-113728571D02*
X217857142Y-112728571D01*
X217857142Y-112871429D02*
X217928570Y-112800000D01*
X218071428Y-112728571D01*
X218285713Y-112728571D01*
X218428570Y-112800000D01*
X218499999Y-112942857D01*
X218499999Y-113728571D01*
X218499999Y-112942857D02*
X218571428Y-112800000D01*
X218714285Y-112728571D01*
X218928570Y-112728571D01*
X219071428Y-112800000D01*
X219142856Y-112942857D01*
X219142856Y-113728571D01*
X175000000Y-111700000D02*
X251000000Y-111700000D01*
X175000000Y-108000000D02*
X175000000Y-114400000D01*
X251000000Y-108000000D02*
X251000000Y-114400000D01*
X251000000Y-111700000D02*
X249873496Y-112286421D01*
X251000000Y-111700000D02*
X249873496Y-111113579D01*
X175000000Y-111700000D02*
X176126504Y-112286421D01*
X175000000Y-111700000D02*
X176126504Y-111113579D01*
X261171429Y-70571430D02*
X261171429Y-69857144D01*
X260457143Y-69785715D01*
X260528571Y-69857144D01*
X260600000Y-70000001D01*
X260600000Y-70357144D01*
X260528571Y-70500001D01*
X260457143Y-70571430D01*
X260314286Y-70642858D01*
X259957143Y-70642858D01*
X259814286Y-70571430D01*
X259742857Y-70500001D01*
X259671429Y-70357144D01*
X259671429Y-70000001D01*
X259742857Y-69857144D01*
X259814286Y-69785715D01*
X261171429Y-71928572D02*
X261171429Y-71642858D01*
X261100000Y-71500001D01*
X261028571Y-71428572D01*
X260814286Y-71285715D01*
X260528571Y-71214286D01*
X259957143Y-71214286D01*
X259814286Y-71285715D01*
X259742857Y-71357143D01*
X259671429Y-71500001D01*
X259671429Y-71785715D01*
X259742857Y-71928572D01*
X259814286Y-72000001D01*
X259957143Y-72071429D01*
X260314286Y-72071429D01*
X260457143Y-72000001D01*
X260528571Y-71928572D01*
X260600000Y-71785715D01*
X260600000Y-71500001D01*
X260528571Y-71357143D01*
X260457143Y-71285715D01*
X260314286Y-71214286D01*
X259814286Y-72714286D02*
X259742857Y-72785714D01*
X259671429Y-72714286D01*
X259742857Y-72642857D01*
X259814286Y-72714286D01*
X259671429Y-72714286D01*
X261171429Y-73714286D02*
X261171429Y-73857143D01*
X261100000Y-74000000D01*
X261028571Y-74071429D01*
X260885714Y-74142858D01*
X260600000Y-74214286D01*
X260242857Y-74214286D01*
X259957143Y-74142858D01*
X259814286Y-74071429D01*
X259742857Y-74000000D01*
X259671429Y-73857143D01*
X259671429Y-73714286D01*
X259742857Y-73571429D01*
X259814286Y-73500000D01*
X259957143Y-73428572D01*
X260242857Y-73357143D01*
X260600000Y-73357143D01*
X260885714Y-73428572D01*
X261028571Y-73500000D01*
X261100000Y-73571429D01*
X261171429Y-73714286D01*
X261171429Y-75142857D02*
X261171429Y-75285714D01*
X261100000Y-75428571D01*
X261028571Y-75500000D01*
X260885714Y-75571429D01*
X260600000Y-75642857D01*
X260242857Y-75642857D01*
X259957143Y-75571429D01*
X259814286Y-75500000D01*
X259742857Y-75428571D01*
X259671429Y-75285714D01*
X259671429Y-75142857D01*
X259742857Y-75000000D01*
X259814286Y-74928571D01*
X259957143Y-74857143D01*
X260242857Y-74785714D01*
X260600000Y-74785714D01*
X260885714Y-74857143D01*
X261028571Y-74928571D01*
X261100000Y-75000000D01*
X261171429Y-75142857D01*
X261171429Y-76571428D02*
X261171429Y-76714285D01*
X261100000Y-76857142D01*
X261028571Y-76928571D01*
X260885714Y-77000000D01*
X260600000Y-77071428D01*
X260242857Y-77071428D01*
X259957143Y-77000000D01*
X259814286Y-76928571D01*
X259742857Y-76857142D01*
X259671429Y-76714285D01*
X259671429Y-76571428D01*
X259742857Y-76428571D01*
X259814286Y-76357142D01*
X259957143Y-76285714D01*
X260242857Y-76214285D01*
X260600000Y-76214285D01*
X260885714Y-76285714D01*
X261028571Y-76357142D01*
X261100000Y-76428571D01*
X261171429Y-76571428D01*
X259671429Y-78857142D02*
X260671429Y-78857142D01*
X260528571Y-78857142D02*
X260600000Y-78928570D01*
X260671429Y-79071428D01*
X260671429Y-79285713D01*
X260600000Y-79428570D01*
X260457143Y-79499999D01*
X259671429Y-79499999D01*
X260457143Y-79499999D02*
X260600000Y-79571428D01*
X260671429Y-79714285D01*
X260671429Y-79928570D01*
X260600000Y-80071428D01*
X260457143Y-80142856D01*
X259671429Y-80142856D01*
X259671429Y-80857142D02*
X260671429Y-80857142D01*
X260528571Y-80857142D02*
X260600000Y-80928570D01*
X260671429Y-81071428D01*
X260671429Y-81285713D01*
X260600000Y-81428570D01*
X260457143Y-81499999D01*
X259671429Y-81499999D01*
X260457143Y-81499999D02*
X260600000Y-81571428D01*
X260671429Y-81714285D01*
X260671429Y-81928570D01*
X260600000Y-82071428D01*
X260457143Y-82142856D01*
X259671429Y-82142856D01*
X259000000Y-48000000D02*
X259000000Y-104000000D01*
X255000000Y-48000000D02*
X261700000Y-48000000D01*
X255000000Y-104000000D02*
X261700000Y-104000000D01*
X259000000Y-104000000D02*
X258413579Y-102873496D01*
X259000000Y-104000000D02*
X259586421Y-102873496D01*
X259000000Y-48000000D02*
X258413579Y-49126504D01*
X259000000Y-48000000D02*
X259586421Y-49126504D01*
X206922100Y-116871822D02*
X207207815Y-116872139D01*
X207350751Y-116800870D01*
X207422258Y-116729520D01*
X207565354Y-116515394D01*
X207637100Y-116229759D01*
X207637735Y-115658331D01*
X207566465Y-115515395D01*
X207495116Y-115443886D01*
X207352338Y-115372299D01*
X207066624Y-115371981D01*
X206923687Y-115443251D01*
X206852180Y-115514601D01*
X206780592Y-115657379D01*
X206780195Y-116014521D01*
X206851465Y-116157458D01*
X206922814Y-116228965D01*
X207065593Y-116300553D01*
X207351306Y-116300870D01*
X207494243Y-116229600D01*
X207565751Y-116158251D01*
X207637338Y-116015474D01*
X208566622Y-115373648D02*
X208709479Y-115373807D01*
X208852257Y-115445394D01*
X208923606Y-115516903D01*
X208994877Y-115659839D01*
X209065987Y-115945632D01*
X209065590Y-116302775D01*
X208993845Y-116588409D01*
X208922257Y-116731187D01*
X208850749Y-116802536D01*
X208707813Y-116873806D01*
X208564956Y-116873647D01*
X208422178Y-116802060D01*
X208350829Y-116730552D01*
X208279559Y-116587616D01*
X208208448Y-116301822D01*
X208208845Y-115944680D01*
X208280591Y-115659045D01*
X208352178Y-115516268D01*
X208423686Y-115444918D01*
X208566622Y-115373648D01*
X209707971Y-116732060D02*
X209779319Y-116803568D01*
X209707812Y-116874917D01*
X209636462Y-116803409D01*
X209707971Y-116732060D01*
X209707812Y-116874917D01*
X210709478Y-115376029D02*
X210852335Y-115376188D01*
X210995113Y-115447775D01*
X211066462Y-115519284D01*
X211137732Y-115662220D01*
X211208843Y-115948013D01*
X211208446Y-116305156D01*
X211136701Y-116590790D01*
X211065113Y-116733568D01*
X210993605Y-116804917D01*
X210850668Y-116876187D01*
X210707811Y-116876028D01*
X210565034Y-116804441D01*
X210493684Y-116732933D01*
X210422415Y-116589997D01*
X210351304Y-116304203D01*
X210351700Y-115947061D01*
X210423447Y-115661426D01*
X210495034Y-115518649D01*
X210566542Y-115447299D01*
X210709478Y-115376029D01*
X212138048Y-115377616D02*
X212280905Y-115377775D01*
X212423683Y-115449363D01*
X212495032Y-115520871D01*
X212566303Y-115663807D01*
X212637413Y-115949600D01*
X212637016Y-116306743D01*
X212565271Y-116592378D01*
X212493683Y-116735155D01*
X212422175Y-116806505D01*
X212279238Y-116877774D01*
X212136382Y-116877615D01*
X211993604Y-116806029D01*
X211922254Y-116734520D01*
X211850985Y-116591584D01*
X211779874Y-116305791D01*
X211780271Y-115948648D01*
X211852017Y-115663013D01*
X211923604Y-115520236D01*
X211995112Y-115448886D01*
X212138048Y-115377616D01*
X213566618Y-115379203D02*
X213709475Y-115379362D01*
X213852253Y-115450950D01*
X213923602Y-115522458D01*
X213994873Y-115665394D01*
X214065983Y-115951188D01*
X214065586Y-116308330D01*
X213993841Y-116593965D01*
X213922253Y-116736742D01*
X213850745Y-116808092D01*
X213707809Y-116879361D01*
X213564952Y-116879203D01*
X213422174Y-116807616D01*
X213350825Y-116736107D01*
X213279555Y-116593171D01*
X213208444Y-116307378D01*
X213208841Y-115950235D01*
X213280587Y-115664601D01*
X213352174Y-115521823D01*
X213423682Y-115450474D01*
X213566618Y-115379203D01*
X215850664Y-116881742D02*
X215851775Y-115881743D01*
X215851617Y-116024601D02*
X215923124Y-115953251D01*
X216066061Y-115881981D01*
X216280346Y-115882219D01*
X216423124Y-115953807D01*
X216494394Y-116096743D01*
X216493521Y-116882456D01*
X216494394Y-116096743D02*
X216565982Y-115953965D01*
X216708918Y-115882695D01*
X216923203Y-115882933D01*
X217065981Y-115954521D01*
X217137250Y-116097457D01*
X217136377Y-116883171D01*
X217850663Y-116883964D02*
X217851774Y-115883965D01*
X217851615Y-116026823D02*
X217923123Y-115955473D01*
X218066060Y-115884203D01*
X218280345Y-115884441D01*
X218423122Y-115956029D01*
X218494393Y-116098965D01*
X218493520Y-116884679D01*
X218494393Y-116098965D02*
X218565980Y-115956188D01*
X218708917Y-115884917D01*
X218923201Y-115885155D01*
X219065980Y-115956743D01*
X219137249Y-116099679D01*
X219136376Y-116885393D01*
X257995778Y-114899998D02*
X167995778Y-114799998D01*
X258000000Y-111100000D02*
X257992778Y-117599996D01*
X168000000Y-111000000D02*
X167992778Y-117499996D01*
X167995778Y-114799998D02*
X169122933Y-114214829D01*
X167995778Y-114799998D02*
X169121629Y-115387670D01*
X257995778Y-114899998D02*
X256869927Y-114312326D01*
X257995778Y-114899998D02*
X256868623Y-115485167D01*
X264171697Y-69714287D02*
X264171697Y-70714287D01*
X262671697Y-70071430D01*
X264171697Y-71571429D02*
X264171697Y-71714286D01*
X264100268Y-71857143D01*
X264028839Y-71928572D01*
X263885982Y-72000001D01*
X263600268Y-72071429D01*
X263243125Y-72071429D01*
X262957411Y-72000001D01*
X262814554Y-71928572D01*
X262743125Y-71857143D01*
X262671697Y-71714286D01*
X262671697Y-71571429D01*
X262743125Y-71428572D01*
X262814554Y-71357143D01*
X262957411Y-71285715D01*
X263243125Y-71214286D01*
X263600268Y-71214286D01*
X263885982Y-71285715D01*
X264028839Y-71357143D01*
X264100268Y-71428572D01*
X264171697Y-71571429D01*
X262814554Y-72714286D02*
X262743125Y-72785714D01*
X262671697Y-72714286D01*
X262743125Y-72642857D01*
X262814554Y-72714286D01*
X262671697Y-72714286D01*
X264171697Y-73714286D02*
X264171697Y-73857143D01*
X264100268Y-74000000D01*
X264028839Y-74071429D01*
X263885982Y-74142858D01*
X263600268Y-74214286D01*
X263243125Y-74214286D01*
X262957411Y-74142858D01*
X262814554Y-74071429D01*
X262743125Y-74000000D01*
X262671697Y-73857143D01*
X262671697Y-73714286D01*
X262743125Y-73571429D01*
X262814554Y-73500000D01*
X262957411Y-73428572D01*
X263243125Y-73357143D01*
X263600268Y-73357143D01*
X263885982Y-73428572D01*
X264028839Y-73500000D01*
X264100268Y-73571429D01*
X264171697Y-73714286D01*
X264171697Y-75142857D02*
X264171697Y-75285714D01*
X264100268Y-75428571D01*
X264028839Y-75500000D01*
X263885982Y-75571429D01*
X263600268Y-75642857D01*
X263243125Y-75642857D01*
X262957411Y-75571429D01*
X262814554Y-75500000D01*
X262743125Y-75428571D01*
X262671697Y-75285714D01*
X262671697Y-75142857D01*
X262743125Y-75000000D01*
X262814554Y-74928571D01*
X262957411Y-74857143D01*
X263243125Y-74785714D01*
X263600268Y-74785714D01*
X263885982Y-74857143D01*
X264028839Y-74928571D01*
X264100268Y-75000000D01*
X264171697Y-75142857D01*
X264171697Y-76571428D02*
X264171697Y-76714285D01*
X264100268Y-76857142D01*
X264028839Y-76928571D01*
X263885982Y-77000000D01*
X263600268Y-77071428D01*
X263243125Y-77071428D01*
X262957411Y-77000000D01*
X262814554Y-76928571D01*
X262743125Y-76857142D01*
X262671697Y-76714285D01*
X262671697Y-76571428D01*
X262743125Y-76428571D01*
X262814554Y-76357142D01*
X262957411Y-76285714D01*
X263243125Y-76214285D01*
X263600268Y-76214285D01*
X263885982Y-76285714D01*
X264028839Y-76357142D01*
X264100268Y-76428571D01*
X264171697Y-76571428D01*
X262671697Y-78857142D02*
X263671697Y-78857142D01*
X263528839Y-78857142D02*
X263600268Y-78928570D01*
X263671697Y-79071428D01*
X263671697Y-79285713D01*
X263600268Y-79428570D01*
X263457411Y-79499999D01*
X262671697Y-79499999D01*
X263457411Y-79499999D02*
X263600268Y-79571428D01*
X263671697Y-79714285D01*
X263671697Y-79928570D01*
X263600268Y-80071428D01*
X263457411Y-80142856D01*
X262671697Y-80142856D01*
X262671697Y-80857142D02*
X263671697Y-80857142D01*
X263528839Y-80857142D02*
X263600268Y-80928570D01*
X263671697Y-81071428D01*
X263671697Y-81285713D01*
X263600268Y-81428570D01*
X263457411Y-81499999D01*
X262671697Y-81499999D01*
X263457411Y-81499999D02*
X263600268Y-81571428D01*
X263671697Y-81714285D01*
X263671697Y-81928570D01*
X263600268Y-82071428D01*
X263457411Y-82142856D01*
X262671697Y-82142856D01*
X262000268Y-41000000D02*
X262000268Y-111000000D01*
X258000000Y-41000000D02*
X264700268Y-41000000D01*
X258000000Y-111000000D02*
X264700268Y-111000000D01*
X262000268Y-111000000D02*
X261413847Y-109873496D01*
X262000268Y-111000000D02*
X262586689Y-109873496D01*
X262000268Y-41000000D02*
X261413847Y-42126504D01*
X262000268Y-41000000D02*
X262586689Y-42126504D01*
M02*
