<?xml version="1.0" standalone="no"?>
 <!DOCTYPE svg PUBLIC "-//W3C//DTD SVG 1.1//EN" 
 "http://www.w3.org/Graphics/SVG/1.1/DTD/svg11.dtd"> 
<svg xmlns="http://www.w3.org/2000/svg" version="1.1" 
    width="29.7002cm" height="21.0007cm" viewBox="0 0 116930 82680 ">
<title>SVG Picture created as power-board-Dwgs.User.svg date 2017/10/07 19:36:04 </title>
  <desc>Picture generated by PCBNEW </desc>
<g style="fill:#000000; fill-opacity:1;stroke:#000000; stroke-opacity:1;
stroke-linecap:round; stroke-linejoin:round; "
 transform="translate(0 0) scale(1 1)">
</g>
<g style="fill:#000000; fill-opacity:0.0; 
stroke:#000000; stroke-width:-0.000393701; stroke-opacity:1; 
stroke-linecap:round; stroke-linejoin:round;">
</g>
<g style="fill:#000000; fill-opacity:0.0; 
stroke:#000000; stroke-width:39.3701; stroke-opacity:1; 
stroke-linecap:round; stroke-linejoin:round;">
</g>
<g style="fill:#000000; fill-opacity:0.0; 
stroke:#000000; stroke-width:59.0551; stroke-opacity:1; 
stroke-linecap:round; stroke-linejoin:round;">
<rect x="69685.9" y="65357.2" width="42519.7" height="12598.4" rx="0" />
</g>
<g style="fill:#000000; fill-opacity:0.0; 
stroke:#000000; stroke-width:39.3701; stroke-opacity:1; 
stroke-linecap:round; stroke-linejoin:round;">
</g>
<g style="fill:#000000; fill-opacity:0.0; 
stroke:#000000; stroke-width:59.0551; stroke-opacity:1; 
stroke-linecap:round; stroke-linejoin:round;">
<rect x="3937.01" y="3937.01" width="109056" height="74806" rx="0" />
</g>
<g style="fill:#000000; fill-opacity:0.0; 
stroke:#000000; stroke-width:39.3701; stroke-opacity:1; 
stroke-linecap:round; stroke-linejoin:round;">
</g>
<g style="fill:#000000; fill-opacity:0.0; 
stroke:#000000; stroke-width:59.0551; stroke-opacity:1; 
stroke-linecap:round; stroke-linejoin:round;">
<rect x="4724.41" y="4724.41" width="107481" height="73231.2" rx="0" />
</g>
<g style="fill:#000000; fill-opacity:0.0; 
stroke:#000000; stroke-width:39.3701; stroke-opacity:1; 
stroke-linecap:round; stroke-linejoin:round;">
</g>
<g style="fill:#000000; fill-opacity:0.0; 
stroke:#000000; stroke-width:59.0551; stroke-opacity:1; 
stroke-linecap:round; stroke-linejoin:round;">
<path d="M23622 4724
L23622 3937
" />
</g>
<g style="fill:#000000; fill-opacity:0.0; 
stroke:#000000; stroke-width:39.3701; stroke-opacity:1; 
stroke-linecap:round; stroke-linejoin:round;">
</g>
<g style="fill:#000000; fill-opacity:0.0; 
stroke:#000000; stroke-width:59.0551; stroke-opacity:1; 
stroke-linecap:round; stroke-linejoin:round;">
<path d="M43307 4724
L43307 3937
" />
</g>
<g style="fill:#000000; fill-opacity:0.0; 
stroke:#000000; stroke-width:39.3701; stroke-opacity:1; 
stroke-linecap:round; stroke-linejoin:round;">
</g>
<g style="fill:#000000; fill-opacity:0.0; 
stroke:#000000; stroke-width:59.0551; stroke-opacity:1; 
stroke-linecap:round; stroke-linejoin:round;">
<path d="M62992 4724
L62992 3937
" />
</g>
<g style="fill:#000000; fill-opacity:0.0; 
stroke:#000000; stroke-width:39.3701; stroke-opacity:1; 
stroke-linecap:round; stroke-linejoin:round;">
</g>
<g style="fill:#000000; fill-opacity:0.0; 
stroke:#000000; stroke-width:59.0551; stroke-opacity:1; 
stroke-linecap:round; stroke-linejoin:round;">
<path d="M82677 4724
L82677 3937
" />
</g>
<g style="fill:#000000; fill-opacity:0.0; 
stroke:#000000; stroke-width:39.3701; stroke-opacity:1; 
stroke-linecap:round; stroke-linejoin:round;">
</g>
<g style="fill:#000000; fill-opacity:0.0; 
stroke:#000000; stroke-width:59.0551; stroke-opacity:1; 
stroke-linecap:round; stroke-linejoin:round;">
<path d="M102362 4724
L102362 3937
" />
</g>
<g style="fill:#000000; fill-opacity:0.0; 
stroke:#000000; stroke-width:39.3701; stroke-opacity:1; 
stroke-linecap:round; stroke-linejoin:round;">
</g>
<g style="fill:#000000; fill-opacity:0.0; 
stroke:#000000; stroke-width:59.0551; stroke-opacity:1; 
stroke-linecap:round; stroke-linejoin:round;">
<path d="M14169 4562
L13877 4562
" />
<path d="M14023 4562
L14023 4050
L13974 4123
L13925 4172
L13877 4196
" />
</g>
<g style="fill:#000000; fill-opacity:0.0; 
stroke:#000000; stroke-width:39.3701; stroke-opacity:1; 
stroke-linecap:round; stroke-linejoin:round;">
</g>
<g style="fill:#000000; fill-opacity:0.0; 
stroke:#000000; stroke-width:59.0551; stroke-opacity:1; 
stroke-linecap:round; stroke-linejoin:round;">
<path d="M33562 4099
L33586 4074
L33635 4050
L33757 4050
L33805 4074
L33830 4099
L33854 4147
L33854 4196
L33830 4269
L33537 4562
L33854 4562
" />
</g>
<g style="fill:#000000; fill-opacity:0.0; 
stroke:#000000; stroke-width:39.3701; stroke-opacity:1; 
stroke-linecap:round; stroke-linejoin:round;">
</g>
<g style="fill:#000000; fill-opacity:0.0; 
stroke:#000000; stroke-width:59.0551; stroke-opacity:1; 
stroke-linecap:round; stroke-linejoin:round;">
<path d="M53222 4050
L53539 4050
L53368 4245
L53442 4245
L53490 4269
L53515 4294
L53539 4342
L53539 4464
L53515 4513
L53490 4537
L53442 4562
L53295 4562
L53247 4537
L53222 4513
" />
</g>
<g style="fill:#000000; fill-opacity:0.0; 
stroke:#000000; stroke-width:39.3701; stroke-opacity:1; 
stroke-linecap:round; stroke-linejoin:round;">
</g>
<g style="fill:#000000; fill-opacity:0.0; 
stroke:#000000; stroke-width:59.0551; stroke-opacity:1; 
stroke-linecap:round; stroke-linejoin:round;">
<path d="M73175 4221
L73175 4562
" />
<path d="M73053 4026
L72932 4391
L73248 4391
" />
</g>
<g style="fill:#000000; fill-opacity:0.0; 
stroke:#000000; stroke-width:39.3701; stroke-opacity:1; 
stroke-linecap:round; stroke-linejoin:round;">
</g>
<g style="fill:#000000; fill-opacity:0.0; 
stroke:#000000; stroke-width:59.0551; stroke-opacity:1; 
stroke-linecap:round; stroke-linejoin:round;">
<path d="M92885 4050
L92641 4050
L92617 4294
L92641 4269
L92690 4245
L92812 4245
L92860 4269
L92885 4294
L92909 4342
L92909 4464
L92885 4513
L92860 4537
L92812 4562
L92690 4562
L92641 4537
L92617 4513
" />
</g>
<g style="fill:#000000; fill-opacity:0.0; 
stroke:#000000; stroke-width:39.3701; stroke-opacity:1; 
stroke-linecap:round; stroke-linejoin:round;">
</g>
<g style="fill:#000000; fill-opacity:0.0; 
stroke:#000000; stroke-width:59.0551; stroke-opacity:1; 
stroke-linecap:round; stroke-linejoin:round;">
<path d="M112545 4050
L112448 4050
L112399 4074
L112375 4099
L112326 4172
L112302 4269
L112302 4464
L112326 4513
L112350 4537
L112399 4562
L112497 4562
L112545 4537
L112570 4513
L112594 4464
L112594 4342
L112570 4294
L112545 4269
L112497 4245
L112399 4245
L112350 4269
L112326 4294
L112302 4342
" />
</g>
<g style="fill:#000000; fill-opacity:0.0; 
stroke:#000000; stroke-width:39.3701; stroke-opacity:1; 
stroke-linecap:round; stroke-linejoin:round;">
</g>
<g style="fill:#000000; fill-opacity:0.0; 
stroke:#000000; stroke-width:59.0551; stroke-opacity:1; 
stroke-linecap:round; stroke-linejoin:round;">
<path d="M23622 77955
L23622 78742
" />
</g>
<g style="fill:#000000; fill-opacity:0.0; 
stroke:#000000; stroke-width:39.3701; stroke-opacity:1; 
stroke-linecap:round; stroke-linejoin:round;">
</g>
<g style="fill:#000000; fill-opacity:0.0; 
stroke:#000000; stroke-width:59.0551; stroke-opacity:1; 
stroke-linecap:round; stroke-linejoin:round;">
<path d="M43307 77955
L43307 78742
" />
</g>
<g style="fill:#000000; fill-opacity:0.0; 
stroke:#000000; stroke-width:39.3701; stroke-opacity:1; 
stroke-linecap:round; stroke-linejoin:round;">
</g>
<g style="fill:#000000; fill-opacity:0.0; 
stroke:#000000; stroke-width:59.0551; stroke-opacity:1; 
stroke-linecap:round; stroke-linejoin:round;">
<path d="M62992 77955
L62992 78742
" />
</g>
<g style="fill:#000000; fill-opacity:0.0; 
stroke:#000000; stroke-width:39.3701; stroke-opacity:1; 
stroke-linecap:round; stroke-linejoin:round;">
</g>
<g style="fill:#000000; fill-opacity:0.0; 
stroke:#000000; stroke-width:59.0551; stroke-opacity:1; 
stroke-linecap:round; stroke-linejoin:round;">
<path d="M82677 77955
L82677 78742
" />
</g>
<g style="fill:#000000; fill-opacity:0.0; 
stroke:#000000; stroke-width:39.3701; stroke-opacity:1; 
stroke-linecap:round; stroke-linejoin:round;">
</g>
<g style="fill:#000000; fill-opacity:0.0; 
stroke:#000000; stroke-width:59.0551; stroke-opacity:1; 
stroke-linecap:round; stroke-linejoin:round;">
<path d="M102362 77955
L102362 78742
" />
</g>
<g style="fill:#000000; fill-opacity:0.0; 
stroke:#000000; stroke-width:39.3701; stroke-opacity:1; 
stroke-linecap:round; stroke-linejoin:round;">
</g>
<g style="fill:#000000; fill-opacity:0.0; 
stroke:#000000; stroke-width:59.0551; stroke-opacity:1; 
stroke-linecap:round; stroke-linejoin:round;">
<path d="M14169 78580
L13877 78580
" />
<path d="M14023 78580
L14023 78069
L13974 78142
L13925 78190
L13877 78215
" />
</g>
<g style="fill:#000000; fill-opacity:0.0; 
stroke:#000000; stroke-width:39.3701; stroke-opacity:1; 
stroke-linecap:round; stroke-linejoin:round;">
</g>
<g style="fill:#000000; fill-opacity:0.0; 
stroke:#000000; stroke-width:59.0551; stroke-opacity:1; 
stroke-linecap:round; stroke-linejoin:round;">
<path d="M33562 78117
L33586 78093
L33635 78069
L33757 78069
L33805 78093
L33830 78117
L33854 78166
L33854 78215
L33830 78288
L33537 78580
L33854 78580
" />
</g>
<g style="fill:#000000; fill-opacity:0.0; 
stroke:#000000; stroke-width:39.3701; stroke-opacity:1; 
stroke-linecap:round; stroke-linejoin:round;">
</g>
<g style="fill:#000000; fill-opacity:0.0; 
stroke:#000000; stroke-width:59.0551; stroke-opacity:1; 
stroke-linecap:round; stroke-linejoin:round;">
<path d="M53222 78069
L53539 78069
L53368 78263
L53442 78263
L53490 78288
L53515 78312
L53539 78361
L53539 78483
L53515 78532
L53490 78556
L53442 78580
L53295 78580
L53247 78556
L53222 78532
" />
</g>
<g style="fill:#000000; fill-opacity:0.0; 
stroke:#000000; stroke-width:39.3701; stroke-opacity:1; 
stroke-linecap:round; stroke-linejoin:round;">
</g>
<g style="fill:#000000; fill-opacity:0.0; 
stroke:#000000; stroke-width:59.0551; stroke-opacity:1; 
stroke-linecap:round; stroke-linejoin:round;">
<path d="M73175 78239
L73175 78580
" />
<path d="M73053 78044
L72932 78410
L73248 78410
" />
</g>
<g style="fill:#000000; fill-opacity:0.0; 
stroke:#000000; stroke-width:39.3701; stroke-opacity:1; 
stroke-linecap:round; stroke-linejoin:round;">
</g>
<g style="fill:#000000; fill-opacity:0.0; 
stroke:#000000; stroke-width:59.0551; stroke-opacity:1; 
stroke-linecap:round; stroke-linejoin:round;">
<path d="M92885 78069
L92641 78069
L92617 78312
L92641 78288
L92690 78263
L92812 78263
L92860 78288
L92885 78312
L92909 78361
L92909 78483
L92885 78532
L92860 78556
L92812 78580
L92690 78580
L92641 78556
L92617 78532
" />
</g>
<g style="fill:#000000; fill-opacity:0.0; 
stroke:#000000; stroke-width:39.3701; stroke-opacity:1; 
stroke-linecap:round; stroke-linejoin:round;">
</g>
<g style="fill:#000000; fill-opacity:0.0; 
stroke:#000000; stroke-width:59.0551; stroke-opacity:1; 
stroke-linecap:round; stroke-linejoin:round;">
<path d="M112545 78069
L112448 78069
L112399 78093
L112375 78117
L112326 78190
L112302 78288
L112302 78483
L112326 78532
L112350 78556
L112399 78580
L112497 78580
L112545 78556
L112570 78532
L112594 78483
L112594 78361
L112570 78312
L112545 78288
L112497 78263
L112399 78263
L112350 78288
L112326 78312
L112302 78361
" />
</g>
<g style="fill:#000000; fill-opacity:0.0; 
stroke:#000000; stroke-width:39.3701; stroke-opacity:1; 
stroke-linecap:round; stroke-linejoin:round;">
</g>
<g style="fill:#000000; fill-opacity:0.0; 
stroke:#000000; stroke-width:59.0551; stroke-opacity:1; 
stroke-linecap:round; stroke-linejoin:round;">
<path d="M3937 23622
L4724 23622
" />
</g>
<g style="fill:#000000; fill-opacity:0.0; 
stroke:#000000; stroke-width:39.3701; stroke-opacity:1; 
stroke-linecap:round; stroke-linejoin:round;">
</g>
<g style="fill:#000000; fill-opacity:0.0; 
stroke:#000000; stroke-width:59.0551; stroke-opacity:1; 
stroke-linecap:round; stroke-linejoin:round;">
<path d="M3937 43307
L4724 43307
" />
</g>
<g style="fill:#000000; fill-opacity:0.0; 
stroke:#000000; stroke-width:39.3701; stroke-opacity:1; 
stroke-linecap:round; stroke-linejoin:round;">
</g>
<g style="fill:#000000; fill-opacity:0.0; 
stroke:#000000; stroke-width:59.0551; stroke-opacity:1; 
stroke-linecap:round; stroke-linejoin:round;">
<path d="M3937 62992
L4724 62992
" />
</g>
<g style="fill:#000000; fill-opacity:0.0; 
stroke:#000000; stroke-width:39.3701; stroke-opacity:1; 
stroke-linecap:round; stroke-linejoin:round;">
</g>
<g style="fill:#000000; fill-opacity:0.0; 
stroke:#000000; stroke-width:59.0551; stroke-opacity:1; 
stroke-linecap:round; stroke-linejoin:round;">
<path d="M4208 13864
L4452 13864
" />
<path d="M4160 14011
L4330 13499
L4501 14011
" />
</g>
<g style="fill:#000000; fill-opacity:0.0; 
stroke:#000000; stroke-width:39.3701; stroke-opacity:1; 
stroke-linecap:round; stroke-linejoin:round;">
</g>
<g style="fill:#000000; fill-opacity:0.0; 
stroke:#000000; stroke-width:59.0551; stroke-opacity:1; 
stroke-linecap:round; stroke-linejoin:round;">
<path d="M4367 33428
L4440 33452
L4464 33476
L4489 33525
L4489 33598
L4464 33647
L4440 33671
L4391 33696
L4196 33696
L4196 33184
L4367 33184
L4416 33208
L4440 33233
L4464 33281
L4464 33330
L4440 33379
L4416 33403
L4367 33428
L4196 33428
" />
</g>
<g style="fill:#000000; fill-opacity:0.0; 
stroke:#000000; stroke-width:39.3701; stroke-opacity:1; 
stroke-linecap:round; stroke-linejoin:round;">
</g>
<g style="fill:#000000; fill-opacity:0.0; 
stroke:#000000; stroke-width:59.0551; stroke-opacity:1; 
stroke-linecap:round; stroke-linejoin:round;">
<path d="M4489 53332
L4464 53356
L4391 53381
L4342 53381
L4269 53356
L4221 53308
L4196 53259
L4172 53161
L4172 53088
L4196 52991
L4221 52942
L4269 52893
L4342 52869
L4391 52869
L4464 52893
L4489 52918
" />
</g>
<g style="fill:#000000; fill-opacity:0.0; 
stroke:#000000; stroke-width:39.3701; stroke-opacity:1; 
stroke-linecap:round; stroke-linejoin:round;">
</g>
<g style="fill:#000000; fill-opacity:0.0; 
stroke:#000000; stroke-width:59.0551; stroke-opacity:1; 
stroke-linecap:round; stroke-linejoin:round;">
<path d="M4196 73066
L4196 72554
L4318 72554
L4391 72578
L4440 72627
L4464 72676
L4489 72773
L4489 72846
L4464 72944
L4440 72993
L4391 73041
L4318 73066
L4196 73066
" />
</g>
<g style="fill:#000000; fill-opacity:0.0; 
stroke:#000000; stroke-width:39.3701; stroke-opacity:1; 
stroke-linecap:round; stroke-linejoin:round;">
</g>
<g style="fill:#000000; fill-opacity:0.0; 
stroke:#000000; stroke-width:59.0551; stroke-opacity:1; 
stroke-linecap:round; stroke-linejoin:round;">
<path d="M112992 23622
L112205 23622
" />
</g>
<g style="fill:#000000; fill-opacity:0.0; 
stroke:#000000; stroke-width:39.3701; stroke-opacity:1; 
stroke-linecap:round; stroke-linejoin:round;">
</g>
<g style="fill:#000000; fill-opacity:0.0; 
stroke:#000000; stroke-width:59.0551; stroke-opacity:1; 
stroke-linecap:round; stroke-linejoin:round;">
<path d="M112992 43307
L112205 43307
" />
</g>
<g style="fill:#000000; fill-opacity:0.0; 
stroke:#000000; stroke-width:39.3701; stroke-opacity:1; 
stroke-linecap:round; stroke-linejoin:round;">
</g>
<g style="fill:#000000; fill-opacity:0.0; 
stroke:#000000; stroke-width:59.0551; stroke-opacity:1; 
stroke-linecap:round; stroke-linejoin:round;">
<path d="M112992 62992
L112205 62992
" />
</g>
<g style="fill:#000000; fill-opacity:0.0; 
stroke:#000000; stroke-width:39.3701; stroke-opacity:1; 
stroke-linecap:round; stroke-linejoin:round;">
</g>
<g style="fill:#000000; fill-opacity:0.0; 
stroke:#000000; stroke-width:59.0551; stroke-opacity:1; 
stroke-linecap:round; stroke-linejoin:round;">
<path d="M112477 13864
L112721 13864
" />
<path d="M112428 14011
L112599 13499
L112769 14011
" />
</g>
<g style="fill:#000000; fill-opacity:0.0; 
stroke:#000000; stroke-width:39.3701; stroke-opacity:1; 
stroke-linecap:round; stroke-linejoin:round;">
</g>
<g style="fill:#000000; fill-opacity:0.0; 
stroke:#000000; stroke-width:59.0551; stroke-opacity:1; 
stroke-linecap:round; stroke-linejoin:round;">
<path d="M112635 33428
L112708 33452
L112733 33476
L112757 33525
L112757 33598
L112733 33647
L112708 33671
L112660 33696
L112465 33696
L112465 33184
L112635 33184
L112684 33208
L112708 33233
L112733 33281
L112733 33330
L112708 33379
L112684 33403
L112635 33428
L112465 33428
" />
</g>
<g style="fill:#000000; fill-opacity:0.0; 
stroke:#000000; stroke-width:39.3701; stroke-opacity:1; 
stroke-linecap:round; stroke-linejoin:round;">
</g>
<g style="fill:#000000; fill-opacity:0.0; 
stroke:#000000; stroke-width:59.0551; stroke-opacity:1; 
stroke-linecap:round; stroke-linejoin:round;">
<path d="M112757 53332
L112733 53356
L112660 53381
L112611 53381
L112538 53356
L112489 53308
L112465 53259
L112440 53161
L112440 53088
L112465 52991
L112489 52942
L112538 52893
L112611 52869
L112660 52869
L112733 52893
L112757 52918
" />
</g>
<g style="fill:#000000; fill-opacity:0.0; 
stroke:#000000; stroke-width:39.3701; stroke-opacity:1; 
stroke-linecap:round; stroke-linejoin:round;">
</g>
<g style="fill:#000000; fill-opacity:0.0; 
stroke:#000000; stroke-width:59.0551; stroke-opacity:1; 
stroke-linecap:round; stroke-linejoin:round;">
<path d="M112465 73066
L112465 72554
L112587 72554
L112660 72578
L112708 72627
L112733 72676
L112757 72773
L112757 72846
L112733 72944
L112708 72993
L112660 73041
L112587 73066
L112465 73066
" />
</g>
<g style="fill:#000000; fill-opacity:0.0; 
stroke:#000000; stroke-width:39.3701; stroke-opacity:1; 
stroke-linecap:round; stroke-linejoin:round;">
</g>
<g style="fill:#000000; fill-opacity:0.0; 
stroke:#000000; stroke-width:59.0551; stroke-opacity:1; 
stroke-linecap:round; stroke-linejoin:round;">
<path d="M78881 76293
L78881 75703
L79022 75703
L79106 75731
L79162 75787
L79190 75843
L79219 75956
L79219 76040
L79190 76153
L79162 76209
L79106 76265
L79022 76293
L78881 76293
" />
<path d="M79725 76293
L79725 75984
L79697 75928
L79640 75899
L79528 75899
L79472 75928
" />
<path d="M79725 76265
L79669 76293
L79528 76293
L79472 76265
L79444 76209
L79444 76153
L79472 76096
L79528 76068
L79669 76068
L79725 76040
" />
<path d="M79922 75899
L80147 75899
" />
<path d="M80006 75703
L80006 76209
L80034 76265
L80090 76293
L80147 76293
" />
<path d="M80568 76265
L80512 76293
L80400 76293
L80343 76265
L80315 76209
L80315 75984
L80343 75928
L80400 75899
L80512 75899
L80568 75928
L80597 75984
L80597 76040
L80315 76096
" />
<path d="M80850 76237
L80878 76265
L80850 76293
L80822 76265
L80850 76237
L80850 76293
" />
<path d="M80850 75928
L80878 75956
L80850 75984
L80822 75956
L80850 75928
L80850 75984
" />
</g>
<g style="fill:#000000; fill-opacity:0.0; 
stroke:#000000; stroke-width:39.3701; stroke-opacity:1; 
stroke-linecap:round; stroke-linejoin:round;">
</g>
<g style="fill:#000000; fill-opacity:0.0; 
stroke:#000000; stroke-width:59.0551; stroke-opacity:1; 
stroke-linecap:round; stroke-linejoin:round;">
<path d="M69685 76577
L112205 76577
" />
</g>
<g style="fill:#000000; fill-opacity:0.0; 
stroke:#000000; stroke-width:39.3701; stroke-opacity:1; 
stroke-linecap:round; stroke-linejoin:round;">
</g>
<g style="fill:#000000; fill-opacity:0.0; 
stroke:#000000; stroke-width:59.0551; stroke-opacity:1; 
stroke-linecap:round; stroke-linejoin:round;">
<path d="M70220 77395
L70220 76805
" />
<path d="M70557 77395
L70304 77058
" />
<path d="M70557 76805
L70220 77142
" />
<path d="M70810 77395
L70810 77002
" />
<path d="M70810 76805
L70782 76833
L70810 76861
L70838 76833
L70810 76805
L70810 76861
" />
<path d="M71429 77339
L71401 77367
L71316 77395
L71260 77395
L71176 77367
L71120 77311
L71091 77255
L71063 77142
L71063 77058
L71091 76946
L71120 76889
L71176 76833
L71260 76805
L71316 76805
L71401 76833
L71429 76861
" />
<path d="M71935 77395
L71935 77086
L71907 77030
L71851 77002
L71738 77002
L71682 77030
" />
<path d="M71935 77367
L71879 77395
L71738 77395
L71682 77367
L71654 77311
L71654 77255
L71682 77199
L71738 77171
L71879 77171
L71935 77142
" />
<path d="M72469 77395
L72469 76805
" />
<path d="M72469 77367
L72413 77395
L72301 77395
L72244 77367
L72216 77339
L72188 77283
L72188 77114
L72216 77058
L72244 77030
L72301 77002
L72413 77002
L72469 77030
" />
<path d="M73201 77086
L73397 77086
" />
<path d="M73482 77395
L73201 77395
L73201 76805
L73482 76805
" />
<path d="M73735 77339
L73763 77367
L73735 77395
L73707 77367
L73735 77339
L73735 77395
" />
<path d="M74016 77395
L74016 76805
L74157 76805
L74241 76833
L74297 76889
L74325 76946
L74354 77058
L74354 77142
L74325 77255
L74297 77311
L74241 77367
L74157 77395
L74016 77395
" />
<path d="M74607 77339
L74635 77367
L74607 77395
L74579 77367
L74607 77339
L74607 77395
" />
<path d="M74860 77227
L75141 77227
" />
<path d="M74804 77395
L75000 76805
L75197 77395
" />
<path d="M75394 77339
L75422 77367
L75394 77395
L75366 77367
L75394 77339
L75394 77395
" />
<path d="M76575 77395
L76575 76805
" />
<path d="M76631 77171
L76800 77395
" />
<path d="M76800 77002
L76575 77227
" />
<path d="M77053 77395
L77053 77002
" />
<path d="M77053 76805
L77025 76833
L77053 76861
L77081 76833
L77053 76805
L77053 76861
" />
<path d="M77588 77367
L77531 77395
L77419 77395
L77363 77367
L77334 77339
L77306 77283
L77306 77114
L77334 77058
L77363 77030
L77419 77002
L77531 77002
L77588 77030
" />
<path d="M78094 77395
L78094 77086
L78066 77030
L78009 77002
L77897 77002
L77841 77030
" />
<path d="M78094 77367
L78037 77395
L77897 77395
L77841 77367
L77813 77311
L77813 77255
L77841 77199
L77897 77171
L78037 77171
L78094 77142
" />
<path d="M78628 77395
L78628 76805
" />
<path d="M78628 77367
L78572 77395
L78459 77395
L78403 77367
L78375 77339
L78347 77283
L78347 77114
L78375 77058
L78403 77030
L78459 77002
L78572 77002
L78628 77030
" />
<path d="M79612 77002
L79612 77395
" />
<path d="M79472 76777
L79331 77199
L79697 77199
" />
<path d="M79922 77339
L79950 77367
L79922 77395
L79894 77367
L79922 77339
L79922 77395
" />
<path d="M80315 76805
L80372 76805
L80428 76833
L80456 76861
L80484 76917
L80512 77030
L80512 77171
L80484 77283
L80456 77339
L80428 77367
L80372 77395
L80315 77395
L80259 77367
L80231 77339
L80203 77283
L80175 77171
L80175 77030
L80203 76917
L80231 76861
L80259 76833
L80315 76805
" />
<path d="M80765 77339
L80793 77367
L80765 77395
L80737 77367
L80765 77339
L80765 77395
" />
<path d="M80990 76805
L81384 76805
L81131 77395
" />
</g>
<g style="fill:#000000; fill-opacity:0.0; 
stroke:#000000; stroke-width:39.3701; stroke-opacity:1; 
stroke-linecap:round; stroke-linejoin:round;">
</g>
<g style="fill:#000000; fill-opacity:0.0; 
stroke:#000000; stroke-width:59.0551; stroke-opacity:1; 
stroke-linecap:round; stroke-linejoin:round;">
<path d="M69685 75396
L112205 75396
" />
</g>
<g style="fill:#000000; fill-opacity:0.0; 
stroke:#000000; stroke-width:39.3701; stroke-opacity:1; 
stroke-linecap:round; stroke-linejoin:round;">
</g>
<g style="fill:#000000; fill-opacity:0.0; 
stroke:#000000; stroke-width:118.11; stroke-opacity:1; 
stroke-linecap:round; stroke-linejoin:round;">
<path d="M104022 76293
L103825 76012
" />
<path d="M103684 76293
L103684 75703
L103909 75703
L103965 75731
L103994 75759
L104022 75815
L104022 75899
L103994 75956
L103965 75984
L103909 76012
L103684 76012
" />
<path d="M104500 76265
L104444 76293
L104331 76293
L104275 76265
L104247 76209
L104247 75984
L104275 75928
L104331 75899
L104444 75899
L104500 75928
L104528 75984
L104528 76040
L104247 76096
" />
<path d="M104725 75899
L104865 76293
L105006 75899
" />
<path d="M105231 76237
L105259 76265
L105231 76293
L105203 76265
L105231 76237
L105231 76293
" />
<path d="M105231 75928
L105259 75956
L105231 75984
L105203 75956
L105231 75928
L105231 75984
" />
</g>
<g style="fill:#000000; fill-opacity:0.0; 
stroke:#000000; stroke-width:39.3701; stroke-opacity:1; 
stroke-linecap:round; stroke-linejoin:round;">
</g>
<g style="fill:#000000; fill-opacity:0.0; 
stroke:#000000; stroke-width:59.0551; stroke-opacity:1; 
stroke-linecap:round; stroke-linejoin:round;">
<path d="M70192 76265
L70276 76293
L70417 76293
L70473 76265
L70501 76237
L70529 76181
L70529 76124
L70501 76068
L70473 76040
L70417 76012
L70304 75984
L70248 75956
L70220 75928
L70192 75871
L70192 75815
L70220 75759
L70248 75731
L70304 75703
L70445 75703
L70529 75731
" />
<path d="M70782 76293
L70782 75899
" />
<path d="M70782 75703
L70754 75731
L70782 75759
L70810 75731
L70782 75703
L70782 75759
" />
<path d="M71007 75899
L71316 75899
L71007 76293
L71316 76293
" />
<path d="M71766 76265
L71710 76293
L71598 76293
L71541 76265
L71513 76209
L71513 75984
L71541 75928
L71598 75899
L71710 75899
L71766 75928
L71795 75984
L71795 76040
L71513 76096
" />
<path d="M72048 76237
L72076 76265
L72048 76293
L72019 76265
L72048 76237
L72048 76293
" />
<path d="M72048 75928
L72076 75956
L72048 75984
L72019 75956
L72048 75928
L72048 75984
" />
<path d="M72751 76124
L73032 76124
" />
<path d="M72694 76293
L72891 75703
L73088 76293
" />
<path d="M73538 75899
L73538 76293
" />
<path d="M73397 75674
L73257 76096
L73622 76096
" />
</g>
<g style="fill:#000000; fill-opacity:0.0; 
stroke:#000000; stroke-width:39.3701; stroke-opacity:1; 
stroke-linecap:round; stroke-linejoin:round;">
</g>
<g style="fill:#000000; fill-opacity:0.0; 
stroke:#000000; stroke-width:59.0551; stroke-opacity:1; 
stroke-linecap:round; stroke-linejoin:round;">
<path d="M103684 77395
L103684 76805
" />
<path d="M104219 77395
L104219 76805
" />
<path d="M104219 77367
L104162 77395
L104050 77395
L103994 77367
L103965 77339
L103937 77283
L103937 77114
L103965 77058
L103994 77030
L104050 77002
L104162 77002
L104219 77030
" />
<path d="M104500 77339
L104528 77367
L104500 77395
L104472 77367
L104500 77339
L104500 77395
" />
<path d="M104500 77030
L104528 77058
L104500 77086
L104472 77058
L104500 77030
L104500 77086
" />
<path d="M105540 77395
L105203 77395
" />
<path d="M105372 77395
L105372 76805
L105315 76889
L105259 76946
L105203 76974
" />
<path d="M106215 76777
L105709 77536
" />
<path d="M106721 77395
L106384 77395
" />
<path d="M106553 77395
L106553 76805
L106496 76889
L106440 76946
L106384 76974
" />
</g>
<g style="fill:#000000; fill-opacity:0.0; 
stroke:#000000; stroke-width:39.3701; stroke-opacity:1; 
stroke-linecap:round; stroke-linejoin:round;">
</g>
<g style="fill:#000000; fill-opacity:0.0; 
stroke:#000000; stroke-width:59.0551; stroke-opacity:1; 
stroke-linecap:round; stroke-linejoin:round;">
<path d="M69685 73821
L112205 73821
" />
</g>
<g style="fill:#000000; fill-opacity:0.0; 
stroke:#000000; stroke-width:39.3701; stroke-opacity:1; 
stroke-linecap:round; stroke-linejoin:round;">
</g>
<g style="fill:#000000; fill-opacity:0.0; 
stroke:#000000; stroke-width:157.48; stroke-opacity:1; 
stroke-linecap:round; stroke-linejoin:round;">
<path d="M70257 74099
L70707 74099
" />
<path d="M70384 74886
L70482 74099
" />
<path d="M70871 74886
L70937 74361
" />
<path d="M70970 74099
L70927 74136
L70960 74174
L71002 74136
L70970 74099
L70960 74174
" />
<path d="M71199 74361
L71499 74361
" />
<path d="M71345 74099
L71260 74774
L71288 74849
L71359 74886
L71434 74886
" />
<path d="M71809 74886
L71738 74849
L71710 74774
L71795 74099
" />
<path d="M72413 74849
L72334 74886
L72184 74886
L72113 74849
L72085 74774
L72123 74474
L72169 74399
L72249 74361
L72399 74361
L72469 74399
L72498 74474
L72488 74549
L72104 74624
" />
<path d="M72793 74811
L72826 74849
L72783 74886
L72751 74849
L72793 74811
L72783 74886
" />
<path d="M72844 74399
L72877 74436
L72835 74474
L72802 74436
L72844 74399
L72835 74474
" />
</g>
<g style="fill:#000000; fill-opacity:0.0; 
stroke:#000000; stroke-width:39.3701; stroke-opacity:1; 
stroke-linecap:round; stroke-linejoin:round;">
</g>
<g style="fill:#000000; fill-opacity:0.0; 
stroke:#000000; stroke-width:59.0551; stroke-opacity:1; 
stroke-linecap:round; stroke-linejoin:round;">
<path d="M70417 73070
L70220 73070
" />
<path d="M70220 73380
L70220 72789
L70501 72789
" />
<path d="M70726 73380
L70726 72986
" />
<path d="M70726 72789
L70698 72817
L70726 72845
L70754 72817
L70726 72789
L70726 72845
" />
<path d="M71091 73380
L71035 73352
L71007 73295
L71007 72789
" />
<path d="M71541 73352
L71485 73380
L71373 73380
L71316 73352
L71288 73295
L71288 73070
L71316 73014
L71373 72986
L71485 72986
L71541 73014
L71570 73070
L71570 73127
L71288 73183
" />
<path d="M71823 73323
L71851 73352
L71823 73380
L71795 73352
L71823 73323
L71823 73380
" />
<path d="M71823 73014
L71851 73042
L71823 73070
L71795 73042
L71823 73014
L71823 73070
" />
<path d="M72554 72986
L72554 73577
" />
<path d="M72554 73014
L72610 72986
L72723 72986
L72779 73014
L72807 73042
L72835 73099
L72835 73267
L72807 73323
L72779 73352
L72723 73380
L72610 73380
L72554 73352
" />
<path d="M73172 73380
L73116 73352
L73088 73323
L73060 73267
L73060 73099
L73088 73042
L73116 73014
L73172 72986
L73257 72986
L73313 73014
L73341 73042
L73369 73099
L73369 73267
L73341 73323
L73313 73352
L73257 73380
L73172 73380
" />
<path d="M73566 72986
L73679 73380
L73791 73099
L73904 73380
L74016 72986
" />
<path d="M74466 73352
L74410 73380
L74297 73380
L74241 73352
L74213 73295
L74213 73070
L74241 73014
L74297 72986
L74410 72986
L74466 73014
L74494 73070
L74494 73127
L74213 73183
" />
<path d="M74747 73380
L74747 72986
" />
<path d="M74747 73099
L74775 73042
L74804 73014
L74860 72986
L74916 72986
" />
<path d="M75113 73155
L75563 73155
" />
<path d="M75844 73380
L75844 72789
" />
<path d="M75844 73014
L75900 72986
L76013 72986
L76069 73014
L76097 73042
L76125 73099
L76125 73267
L76097 73323
L76069 73352
L76013 73380
L75900 73380
L75844 73352
" />
<path d="M76463 73380
L76406 73352
L76378 73323
L76350 73267
L76350 73099
L76378 73042
L76406 73014
L76463 72986
L76547 72986
L76603 73014
L76631 73042
L76660 73099
L76660 73267
L76631 73323
L76603 73352
L76547 73380
L76463 73380
" />
<path d="M77166 73380
L77166 73070
L77138 73014
L77081 72986
L76969 72986
L76913 73014
" />
<path d="M77166 73352
L77109 73380
L76969 73380
L76913 73352
L76885 73295
L76885 73239
L76913 73183
L76969 73155
L77109 73155
L77166 73127
" />
<path d="M77447 73380
L77447 72986
" />
<path d="M77447 73099
L77475 73042
L77503 73014
L77559 72986
L77616 72986
" />
<path d="M78066 73380
L78066 72789
" />
<path d="M78066 73352
L78009 73380
L77897 73380
L77841 73352
L77813 73323
L77784 73267
L77784 73099
L77813 73042
L77841 73014
L77897 72986
L78009 72986
L78066 73014
" />
<path d="M78347 73323
L78375 73352
L78347 73380
L78319 73352
L78347 73323
L78347 73380
" />
<path d="M78628 73380
L78628 72789
" />
<path d="M78684 73155
L78853 73380
" />
<path d="M78853 72986
L78628 73211
" />
<path d="M79106 73380
L79106 72986
" />
<path d="M79106 72789
L79078 72817
L79106 72845
L79134 72817
L79106 72789
L79106 72845
" />
<path d="M79640 73352
L79584 73380
L79472 73380
L79415 73352
L79387 73323
L79359 73267
L79359 73099
L79387 73042
L79415 73014
L79472 72986
L79584 72986
L79640 73014
" />
<path d="M80147 73380
L80147 73070
L80118 73014
L80062 72986
L79950 72986
L79894 73014
" />
<path d="M80147 73352
L80090 73380
L79950 73380
L79894 73352
L79865 73295
L79865 73239
L79894 73183
L79950 73155
L80090 73155
L80147 73127
" />
<path d="M80681 73380
L80681 72789
" />
<path d="M80681 73352
L80625 73380
L80512 73380
L80456 73352
L80428 73323
L80400 73267
L80400 73099
L80428 73042
L80456 73014
L80512 72986
L80625 72986
L80681 73014
" />
<path d="M80822 73436
L81271 73436
" />
<path d="M81412 72986
L81412 73577
" />
<path d="M81412 73014
L81468 72986
L81581 72986
L81637 73014
L81665 73042
L81693 73099
L81693 73267
L81665 73323
L81637 73352
L81581 73380
L81468 73380
L81412 73352
" />
<path d="M82199 73352
L82143 73380
L82031 73380
L81974 73352
L81946 73323
L81918 73267
L81918 73099
L81946 73042
L81974 73014
L82031 72986
L82143 72986
L82199 73014
" />
<path d="M82453 73380
L82453 72789
" />
<path d="M82453 73014
L82509 72986
L82621 72986
L82678 73014
L82706 73042
L82734 73099
L82734 73267
L82706 73323
L82678 73352
L82621 73380
L82509 73380
L82453 73352
" />
</g>
<g style="fill:#000000; fill-opacity:0.0; 
stroke:#000000; stroke-width:39.3701; stroke-opacity:1; 
stroke-linecap:round; stroke-linejoin:round;">
</g>
<g style="fill:#000000; fill-opacity:0.0; 
stroke:#000000; stroke-width:59.0551; stroke-opacity:1; 
stroke-linecap:round; stroke-linejoin:round;">
<path d="M69685 71459
L112205 71459
" />
</g>
<g style="fill:#000000; fill-opacity:0.0; 
stroke:#000000; stroke-width:39.3701; stroke-opacity:1; 
stroke-linecap:round; stroke-linejoin:round;">
</g>
<g style="fill:#000000; fill-opacity:0.0; 
stroke:#000000; stroke-width:59.0551; stroke-opacity:1; 
stroke-linecap:round; stroke-linejoin:round;">
<path d="M70192 72289
L70276 72317
L70417 72317
L70473 72289
L70501 72260
L70529 72204
L70529 72148
L70501 72092
L70473 72064
L70417 72036
L70304 72007
L70248 71979
L70220 71951
L70192 71895
L70192 71839
L70220 71782
L70248 71754
L70304 71726
L70445 71726
L70529 71754
" />
<path d="M70782 72317
L70782 71726
" />
<path d="M71035 72317
L71035 72007
L71007 71951
L70951 71923
L70867 71923
L70810 71951
L70782 71979
" />
<path d="M71541 72289
L71485 72317
L71373 72317
L71316 72289
L71288 72232
L71288 72007
L71316 71951
L71373 71923
L71485 71923
L71541 71951
L71570 72007
L71570 72064
L71288 72120
" />
<path d="M72048 72289
L71991 72317
L71879 72317
L71823 72289
L71795 72232
L71795 72007
L71823 71951
L71879 71923
L71991 71923
L72048 71951
L72076 72007
L72076 72064
L71795 72120
" />
<path d="M72244 71923
L72469 71923
" />
<path d="M72329 71726
L72329 72232
L72357 72289
L72413 72317
L72469 72317
" />
<path d="M72666 72260
L72694 72289
L72666 72317
L72638 72289
L72666 72260
L72666 72317
" />
<path d="M72666 71951
L72694 71979
L72666 72007
L72638 71979
L72666 71951
L72666 72007
" />
</g>
<g style="fill:#000000; fill-opacity:0.0; 
stroke:#000000; stroke-width:39.3701; stroke-opacity:1; 
stroke-linecap:round; stroke-linejoin:round;">
</g>
<g style="fill:#000000; fill-opacity:0.0; 
stroke:#000000; stroke-width:59.0551; stroke-opacity:1; 
stroke-linecap:round; stroke-linejoin:round;">
<path d="M77559 75396
L77559 76577
" />
</g>
<g style="fill:#000000; fill-opacity:0.0; 
stroke:#000000; stroke-width:39.3701; stroke-opacity:1; 
stroke-linecap:round; stroke-linejoin:round;">
</g>
<g style="fill:#000000; fill-opacity:0.0; 
stroke:#000000; stroke-width:59.0551; stroke-opacity:1; 
stroke-linecap:round; stroke-linejoin:round;">
<path d="M102756 75396
L102756 77955
" />
</g>
<g style="fill:#C2C2C2; fill-opacity:0.0; 
stroke:#C2C2C2; stroke-width:59.0551; stroke-opacity:1; 
stroke-linecap:round; stroke-linejoin:round;">
</g>
<g style="fill:#C2C2C2; fill-opacity:0.0; 
stroke:#C2C2C2; stroke-width:118.11; stroke-opacity:1; 
stroke-linecap:round; stroke-linejoin:round;">
<path d="M64988 27755
L64988 27643
L64960 27587
L64932 27559
L64848 27502
L64735 27474
L64510 27474
L64454 27502
L64426 27530
L64398 27587
L64398 27699
L64426 27755
L64454 27784
L64510 27812
L64651 27812
L64707 27784
L64735 27755
L64763 27699
L64763 27587
L64735 27530
L64707 27502
L64651 27474
" />
<path d="M64988 28008
L64988 28374
L64763 28177
L64763 28262
L64735 28318
L64707 28346
L64651 28374
L64510 28374
L64454 28346
L64426 28318
L64398 28262
L64398 28093
L64426 28037
L64454 28008
" />
<path d="M64454 28627
L64426 28655
L64398 28627
L64426 28599
L64454 28627
L64398 28627
" />
<path d="M64988 29021
L64988 29077
L64960 29133
L64932 29161
L64876 29190
L64763 29218
L64623 29218
L64510 29190
L64454 29161
L64426 29133
L64398 29077
L64398 29021
L64426 28965
L64454 28937
L64510 28908
L64623 28880
L64763 28880
L64876 28908
L64932 28937
L64960 28965
L64988 29021
" />
<path d="M64988 29583
L64988 29640
L64960 29696
L64932 29724
L64876 29752
L64763 29780
L64623 29780
L64510 29752
L64454 29724
L64426 29696
L64398 29640
L64398 29583
L64426 29527
L64454 29499
L64510 29471
L64623 29443
L64763 29443
L64876 29471
L64932 29499
L64960 29527
L64988 29583
" />
<path d="M64988 30146
L64988 30202
L64960 30258
L64932 30286
L64876 30314
L64763 30343
L64623 30343
L64510 30314
L64454 30286
L64426 30258
L64398 30202
L64398 30146
L64426 30089
L64454 30061
L64510 30033
L64623 30005
L64763 30005
L64876 30033
L64932 30061
L64960 30089
L64988 30146
" />
<path d="M64398 31046
L64791 31046
" />
<path d="M64735 31046
L64763 31074
L64791 31130
L64791 31214
L64763 31271
L64707 31299
L64398 31299
" />
<path d="M64707 31299
L64763 31327
L64791 31383
L64791 31467
L64763 31524
L64707 31552
L64398 31552
" />
<path d="M64398 31833
L64791 31833
" />
<path d="M64735 31833
L64763 31861
L64791 31917
L64791 32002
L64763 32058
L64707 32086
L64398 32086
" />
<path d="M64707 32086
L64763 32114
L64791 32170
L64791 32255
L64763 32311
L64707 32339
L64398 32339
" />
<path d="M65196 17519
L65196 42322
" />
<path d="M67519 17519
L64133 17519
" />
<path d="M67519 42322
L64133 42322
" />
<path d="M65196 42322
L64965 41879
" />
<path d="M65196 42322
L65427 41879
" />
<path d="M65196 17519
L64965 17963
" />
<path d="M65196 17519
L65427 17963
" />
<path d="M81524 14555
L81467 14527
L81439 14499
L81411 14443
L81411 14415
L81439 14358
L81467 14330
L81524 14302
L81636 14302
L81692 14330
L81721 14358
L81749 14415
L81749 14443
L81721 14499
L81692 14527
L81636 14555
L81524 14555
L81467 14583
L81439 14611
L81411 14668
L81411 14780
L81439 14836
L81467 14865
L81524 14893
L81636 14893
L81692 14865
L81721 14836
L81749 14780
L81749 14668
L81721 14611
L81692 14583
L81636 14555
" />
<path d="M81946 14302
L82311 14302
L82114 14527
L82199 14527
L82255 14555
L82283 14583
L82311 14640
L82311 14780
L82283 14836
L82255 14865
L82199 14893
L82030 14893
L81974 14865
L81946 14836
" />
<path d="M82564 14836
L82592 14865
L82564 14893
L82536 14865
L82564 14836
L82564 14893
" />
<path d="M82958 14302
L83014 14302
L83070 14330
L83098 14358
L83127 14415
L83155 14527
L83155 14668
L83127 14780
L83098 14836
L83070 14865
L83014 14893
L82958 14893
L82902 14865
L82874 14836
L82845 14780
L82817 14668
L82817 14527
L82845 14415
L82874 14358
L82902 14330
L82958 14302
" />
<path d="M83520 14302
L83577 14302
L83633 14330
L83661 14358
L83689 14415
L83717 14527
L83717 14668
L83689 14780
L83661 14836
L83633 14865
L83577 14893
L83520 14893
L83464 14865
L83436 14836
L83408 14780
L83380 14668
L83380 14527
L83408 14415
L83436 14358
L83464 14330
L83520 14302
" />
<path d="M84083 14302
L84139 14302
L84195 14330
L84223 14358
L84251 14415
L84280 14527
L84280 14668
L84251 14780
L84223 14836
L84195 14865
L84139 14893
L84083 14893
L84026 14865
L83998 14836
L83970 14780
L83942 14668
L83942 14527
L83970 14415
L83998 14358
L84026 14330
L84083 14302
" />
<path d="M84983 14893
L84983 14499
" />
<path d="M84983 14555
L85011 14527
L85067 14499
L85151 14499
L85208 14527
L85236 14583
L85236 14893
" />
<path d="M85236 14583
L85264 14527
L85320 14499
L85404 14499
L85461 14527
L85489 14583
L85489 14893
" />
<path d="M85770 14893
L85770 14499
" />
<path d="M85770 14555
L85798 14527
L85854 14499
L85939 14499
L85995 14527
L86023 14583
L86023 14893
" />
<path d="M86023 14583
L86051 14527
L86107 14499
L86192 14499
L86248 14527
L86276 14583
L86276 14893
" />
<path d="M67519 15157
L100196 15157
" />
<path d="M67519 17519
L67519 14094
" />
<path d="M100196 17519
L100196 14094
" />
<path d="M100196 15157
L99753 15388
" />
<path d="M100196 15157
L99753 14926
" />
<path d="M67519 15157
L67963 15388
" />
<path d="M67519 15157
L67963 14926
" />
<path d="M81383 44184
L81777 44184
L81524 44775
" />
<path d="M82255 44184
L82142 44184
L82086 44212
L82058 44240
L82002 44325
L81974 44437
L81974 44662
L82002 44718
L82030 44746
L82086 44775
L82199 44775
L82255 44746
L82283 44718
L82311 44662
L82311 44521
L82283 44465
L82255 44437
L82199 44409
L82086 44409
L82030 44437
L82002 44465
L81974 44521
" />
<path d="M82564 44718
L82592 44746
L82564 44775
L82536 44746
L82564 44718
L82564 44775
" />
<path d="M82958 44184
L83014 44184
L83070 44212
L83098 44240
L83127 44296
L83155 44409
L83155 44550
L83127 44662
L83098 44718
L83070 44746
L83014 44775
L82958 44775
L82902 44746
L82874 44718
L82845 44662
L82817 44550
L82817 44409
L82845 44296
L82874 44240
L82902 44212
L82958 44184
" />
<path d="M83520 44184
L83577 44184
L83633 44212
L83661 44240
L83689 44296
L83717 44409
L83717 44550
L83689 44662
L83661 44718
L83633 44746
L83577 44775
L83520 44775
L83464 44746
L83436 44718
L83408 44662
L83380 44550
L83380 44409
L83408 44296
L83436 44240
L83464 44212
L83520 44184
" />
<path d="M84083 44184
L84139 44184
L84195 44212
L84223 44240
L84251 44296
L84280 44409
L84280 44550
L84251 44662
L84223 44718
L84195 44746
L84139 44775
L84083 44775
L84026 44746
L83998 44718
L83970 44662
L83942 44550
L83942 44409
L83970 44296
L83998 44240
L84026 44212
L84083 44184
" />
<path d="M84983 44775
L84983 44381
" />
<path d="M84983 44437
L85011 44409
L85067 44381
L85151 44381
L85208 44409
L85236 44465
L85236 44775
" />
<path d="M85236 44465
L85264 44409
L85320 44381
L85404 44381
L85461 44409
L85489 44465
L85489 44775
" />
<path d="M85770 44775
L85770 44381
" />
<path d="M85770 44437
L85798 44409
L85854 44381
L85939 44381
L85995 44409
L86023 44465
L86023 44775
" />
<path d="M86023 44465
L86051 44409
L86107 44381
L86192 44381
L86248 44409
L86276 44465
L86276 44775
" />
<path d="M68897 43976
L98818 43976
" />
<path d="M68897 42519
L68897 45039
" />
<path d="M98818 42519
L98818 45039
" />
<path d="M98818 43976
L98375 44207
" />
<path d="M98818 43976
L98375 43745
" />
<path d="M68897 43976
L69341 44207
" />
<path d="M68897 43976
L69341 43745
" />
<path d="M102823 27784
L102823 27502
L102542 27474
L102570 27502
L102598 27559
L102598 27699
L102570 27755
L102542 27784
L102485 27812
L102345 27812
L102289 27784
L102260 27755
L102232 27699
L102232 27559
L102260 27502
L102289 27474
" />
<path d="M102823 28318
L102823 28205
L102795 28149
L102767 28121
L102682 28065
L102570 28037
L102345 28037
L102289 28065
L102260 28093
L102232 28149
L102232 28262
L102260 28318
L102289 28346
L102345 28374
L102485 28374
L102542 28346
L102570 28318
L102598 28262
L102598 28149
L102570 28093
L102542 28065
L102485 28037
" />
<path d="M102289 28627
L102260 28655
L102232 28627
L102260 28599
L102289 28627
L102232 28627
" />
<path d="M102823 29021
L102823 29077
L102795 29133
L102767 29161
L102710 29190
L102598 29218
L102457 29218
L102345 29190
L102289 29161
L102260 29133
L102232 29077
L102232 29021
L102260 28965
L102289 28937
L102345 28908
L102457 28880
L102598 28880
L102710 28908
L102767 28937
L102795 28965
L102823 29021
" />
<path d="M102823 29583
L102823 29640
L102795 29696
L102767 29724
L102710 29752
L102598 29780
L102457 29780
L102345 29752
L102289 29724
L102260 29696
L102232 29640
L102232 29583
L102260 29527
L102289 29499
L102345 29471
L102457 29443
L102598 29443
L102710 29471
L102767 29499
L102795 29527
L102823 29583
" />
<path d="M102823 30146
L102823 30202
L102795 30258
L102767 30286
L102710 30314
L102598 30343
L102457 30343
L102345 30314
L102289 30286
L102260 30258
L102232 30202
L102232 30146
L102260 30089
L102289 30061
L102345 30033
L102457 30005
L102598 30005
L102710 30033
L102767 30061
L102795 30089
L102823 30146
" />
<path d="M102232 31046
L102626 31046
" />
<path d="M102570 31046
L102598 31074
L102626 31130
L102626 31214
L102598 31271
L102542 31299
L102232 31299
" />
<path d="M102542 31299
L102598 31327
L102626 31383
L102626 31467
L102598 31524
L102542 31552
L102232 31552
" />
<path d="M102232 31833
L102626 31833
" />
<path d="M102570 31833
L102598 31861
L102626 31917
L102626 32002
L102598 32058
L102542 32086
L102232 32086
" />
<path d="M102542 32086
L102598 32114
L102626 32170
L102626 32255
L102598 32311
L102542 32339
L102232 32339
" />
<path d="M101968 18897
L101968 40944
" />
<path d="M100393 18897
L103031 18897
" />
<path d="M100393 40944
L103031 40944
" />
<path d="M101968 40944
L101737 40501
" />
<path d="M101968 40944
L102199 40501
" />
<path d="M101968 18897
L101737 19341
" />
<path d="M101968 18897
L102199 19341
" />
</g>
<g style="fill:#C2C200; fill-opacity:0.0; 
stroke:#C2C200; stroke-width:118.11; stroke-opacity:1; 
stroke-linecap:round; stroke-linejoin:round;">
</g>
<g style="fill:#C2C200; fill-opacity:0.0; 
stroke:#C2C200; stroke-width:59.0551; stroke-opacity:1; 
stroke-linecap:round; stroke-linejoin:round;">
<path d="M67519.7 16141.7 A1377.95 1377.95 0.0 0 0 66141.7 17519.7 " />
<path d="M100196 16141
L67519 16141
" />
<path d="M66141 42322
L66141 17519
" />
<path d="M66141.7 42322.8 A1377.95 1377.95 0.0 0 0 67519.7 43700.8 " />
<path d="M100196 43700
L67519 43700
" />
<path d="M101574 17519
L101574 42322
" />
<path d="M101575 17519.7 A1377.95 1377.95 0.0 0 0 100197 16141.7 " />
<path d="M100197 43700.8 A1377.95 1377.95 0.0 0 0 101575 42322.8 " />
</g>
<g style="fill:#C2C2C2; fill-opacity:0.0; 
stroke:#C2C2C2; stroke-width:59.0551; stroke-opacity:1; 
stroke-linecap:round; stroke-linejoin:round;">
</g>
<g style="fill:#C2C2C2; fill-opacity:0.0; 
stroke:#C2C2C2; stroke-width:118.11; stroke-opacity:1; 
stroke-linecap:round; stroke-linejoin:round;">
<path d="M81465 46012
L81577 46012
L81634 45984
L81662 45956
L81718 45872
L81746 45759
L81747 45534
L81719 45478
L81690 45450
L81634 45422
L81522 45422
L81466 45450
L81437 45478
L81409 45534
L81409 45675
L81437 45731
L81465 45759
L81521 45787
L81634 45787
L81690 45759
L81718 45731
L81746 45675
" />
<path d="M82112 45422
L82169 45422
L82225 45450
L82253 45479
L82281 45535
L82309 45647
L82309 45788
L82281 45900
L82252 45957
L82224 45985
L82168 46013
L82112 46013
L82055 45985
L82027 45956
L81999 45900
L81971 45788
L81971 45647
L82000 45535
L82028 45478
L82056 45450
L82112 45422
" />
<path d="M82562 45957
L82590 45985
L82562 46013
L82534 45985
L82562 45957
L82562 46013
" />
<path d="M82956 45423
L83012 45423
L83068 45451
L83097 45480
L83125 45536
L83153 45648
L83152 45789
L83124 45901
L83096 45958
L83068 45986
L83012 46014
L82955 46014
L82899 45986
L82871 45957
L82843 45901
L82815 45789
L82815 45648
L82843 45535
L82872 45479
L82900 45451
L82956 45423
" />
<path d="M83518 45424
L83575 45424
L83631 45452
L83659 45480
L83687 45536
L83715 45649
L83715 45790
L83687 45902
L83658 45958
L83630 45986
L83574 46014
L83518 46014
L83462 45986
L83433 45958
L83405 45902
L83377 45789
L83378 45649
L83406 45536
L83434 45480
L83462 45452
L83518 45424
" />
<path d="M84081 45424
L84137 45424
L84193 45453
L84221 45481
L84249 45537
L84277 45650
L84277 45790
L84249 45903
L84221 45959
L84193 45987
L84136 46015
L84080 46015
L84024 45987
L83996 45959
L83968 45902
L83940 45790
L83940 45649
L83968 45537
L83996 45481
L84025 45452
L84081 45424
" />
<path d="M84980 46016
L84981 45622
" />
<path d="M84980 45678
L85009 45650
L85065 45622
L85149 45622
L85205 45651
L85234 45707
L85233 46016
" />
<path d="M85234 45707
L85262 45651
L85318 45623
L85402 45623
L85459 45651
L85487 45707
L85486 46016
" />
<path d="M85767 46017
L85768 45623
" />
<path d="M85768 45679
L85796 45651
L85852 45623
L85937 45623
L85993 45651
L86021 45708
L86021 46017
" />
<path d="M86021 45708
L86049 45652
L86105 45623
L86190 45624
L86246 45652
L86274 45708
L86274 46017
" />
<path d="M101573 45236
L66140 45196
" />
<path d="M101574 43740
L101571 46299
" />
<path d="M66141 43700
L66138 46259
" />
<path d="M66140 45196
L66583 44966
" />
<path d="M66140 45196
L66583 45428
" />
<path d="M101573 45236
L101129 45004
" />
<path d="M101573 45236
L101129 45466
" />
<path d="M104004 27446
L104004 27840
L103414 27587
" />
<path d="M104004 28177
L104004 28233
L103976 28290
L103948 28318
L103892 28346
L103779 28374
L103639 28374
L103526 28346
L103470 28318
L103442 28290
L103414 28233
L103414 28177
L103442 28121
L103470 28093
L103526 28065
L103639 28037
L103779 28037
L103892 28065
L103948 28093
L103976 28121
L104004 28177
" />
<path d="M103470 28627
L103442 28655
L103414 28627
L103442 28599
L103470 28627
L103414 28627
" />
<path d="M104004 29021
L104004 29077
L103976 29133
L103948 29161
L103892 29190
L103779 29218
L103639 29218
L103526 29190
L103470 29161
L103442 29133
L103414 29077
L103414 29021
L103442 28965
L103470 28937
L103526 28908
L103639 28880
L103779 28880
L103892 28908
L103948 28937
L103976 28965
L104004 29021
" />
<path d="M104004 29583
L104004 29640
L103976 29696
L103948 29724
L103892 29752
L103779 29780
L103639 29780
L103526 29752
L103470 29724
L103442 29696
L103414 29640
L103414 29583
L103442 29527
L103470 29499
L103526 29471
L103639 29443
L103779 29443
L103892 29471
L103948 29499
L103976 29527
L104004 29583
" />
<path d="M104004 30146
L104004 30202
L103976 30258
L103948 30286
L103892 30314
L103779 30343
L103639 30343
L103526 30314
L103470 30286
L103442 30258
L103414 30202
L103414 30146
L103442 30089
L103470 30061
L103526 30033
L103639 30005
L103779 30005
L103892 30033
L103948 30061
L103976 30089
L104004 30146
" />
<path d="M103414 31046
L103807 31046
" />
<path d="M103751 31046
L103779 31074
L103807 31130
L103807 31214
L103779 31271
L103723 31299
L103414 31299
" />
<path d="M103723 31299
L103779 31327
L103807 31383
L103807 31467
L103779 31524
L103723 31552
L103414 31552
" />
<path d="M103414 31833
L103807 31833
" />
<path d="M103751 31833
L103779 31861
L103807 31917
L103807 32002
L103779 32058
L103723 32086
L103414 32086
" />
<path d="M103723 32086
L103779 32114
L103807 32170
L103807 32255
L103779 32311
L103723 32339
L103414 32339
" />
<path d="M103149 16141
L103149 43700
" />
<path d="M101574 16141
L104212 16141
" />
<path d="M101574 43700
L104212 43700
" />
<path d="M103149 43700
L102918 43257
" />
<path d="M103149 43700
L103380 43257
" />
<path d="M103149 16141
L102918 16585
" />
<path d="M103149 16141
L103380 16585
" />
</g> 
</svg>
