G04 #@! TF.FileFunction,Paste,Top*
%FSLAX46Y46*%
G04 Gerber Fmt 4.6, Leading zero omitted, Abs format (unit mm)*
G04 Created by KiCad (PCBNEW 4.0.7) date Monday, September 04, 2017 'PMt' 03:05:56 PM*
%MOMM*%
%LPD*%
G01*
G04 APERTURE LIST*
%ADD10C,0.100000*%
%ADD11R,0.550000X1.500000*%
%ADD12R,1.500000X0.550000*%
%ADD13R,1.000000X2.500000*%
%ADD14R,0.600000X0.900000*%
%ADD15R,0.900000X0.600000*%
%ADD16R,1.050000X0.600000*%
%ADD17R,1.300000X0.700000*%
%ADD18R,0.900000X1.200000*%
%ADD19R,0.750000X0.800000*%
%ADD20R,0.900000X0.500000*%
%ADD21R,1.450000X0.450000*%
%ADD22R,0.800000X0.750000*%
%ADD23R,0.860000X2.410000*%
%ADD24R,9.126000X13.370000*%
%ADD25R,0.700000X1.300000*%
%ADD26R,2.700000X3.750000*%
%ADD27R,1.250000X1.000000*%
%ADD28R,1.000000X1.250000*%
%ADD29R,3.300000X2.500000*%
%ADD30R,2.500000X1.800000*%
%ADD31R,0.800000X0.900000*%
%ADD32R,0.400000X1.650000*%
%ADD33R,1.425000X2.500000*%
%ADD34R,0.900000X1.700000*%
%ADD35R,0.500000X0.900000*%
%ADD36R,2.750000X1.000000*%
%ADD37R,1.400000X0.300000*%
%ADD38R,0.650000X0.400000*%
%ADD39R,0.890000X0.420000*%
%ADD40R,0.504000X0.564000*%
%ADD41R,1.500000X0.600000*%
%ADD42R,0.449580X0.299720*%
G04 APERTURE END LIST*
D10*
D11*
X234960000Y-69270000D03*
X235760000Y-69270000D03*
X236560000Y-69270000D03*
X237360000Y-69270000D03*
X238160000Y-69270000D03*
X238960000Y-69270000D03*
X239760000Y-69270000D03*
X240560000Y-69270000D03*
X241360000Y-69270000D03*
X242160000Y-69270000D03*
X242960000Y-69270000D03*
D12*
X244660000Y-67570000D03*
X244660000Y-66770000D03*
X244660000Y-65970000D03*
X244660000Y-65170000D03*
X244660000Y-64370000D03*
X244660000Y-63570000D03*
X244660000Y-62770000D03*
X244660000Y-61970000D03*
X244660000Y-61170000D03*
X244660000Y-60370000D03*
X244660000Y-59570000D03*
D11*
X242960000Y-57870000D03*
X242160000Y-57870000D03*
X241360000Y-57870000D03*
X240560000Y-57870000D03*
X239760000Y-57870000D03*
X238960000Y-57870000D03*
X238160000Y-57870000D03*
X237360000Y-57870000D03*
X236560000Y-57870000D03*
X235760000Y-57870000D03*
X234960000Y-57870000D03*
D12*
X233260000Y-59570000D03*
X233260000Y-60370000D03*
X233260000Y-61170000D03*
X233260000Y-61970000D03*
X233260000Y-62770000D03*
X233260000Y-63570000D03*
X233260000Y-64370000D03*
X233260000Y-65170000D03*
X233260000Y-65970000D03*
X233260000Y-66770000D03*
X233260000Y-67570000D03*
D13*
X199500000Y-85000000D03*
X202500000Y-85000000D03*
D14*
X185850000Y-78650000D03*
X186700000Y-78650000D03*
X185000000Y-78650000D03*
X185850000Y-76350000D03*
X186700000Y-76350000D03*
X185000000Y-76350000D03*
X185000000Y-77500000D03*
X186700000Y-77500000D03*
D15*
X183150000Y-79375000D03*
X183150000Y-75625000D03*
X183150000Y-78100000D03*
D16*
X188875000Y-78135000D03*
X188875000Y-79405000D03*
X188875000Y-76865000D03*
X188875000Y-75595000D03*
D15*
X183150000Y-76900000D03*
D14*
X185850000Y-77500000D03*
D17*
X210500000Y-95050000D03*
X210500000Y-96950000D03*
X210500000Y-91550000D03*
X210500000Y-93450000D03*
D18*
X210350000Y-99000000D03*
X213650000Y-99000000D03*
D19*
X204500000Y-87000000D03*
X204500000Y-85500000D03*
D17*
X208000000Y-95050000D03*
X208000000Y-96950000D03*
D13*
X199500000Y-78000000D03*
X202500000Y-78000000D03*
X199500000Y-81500000D03*
X202500000Y-81500000D03*
D20*
X210500000Y-64250000D03*
X210500000Y-62750000D03*
X212500000Y-61250000D03*
X212500000Y-59750000D03*
X210500000Y-61250000D03*
X210500000Y-59750000D03*
X212500000Y-64250000D03*
X212500000Y-62750000D03*
D21*
X210800000Y-67525000D03*
X210800000Y-68175000D03*
X210800000Y-68825000D03*
X210800000Y-69475000D03*
X215200000Y-69475000D03*
X215200000Y-68825000D03*
X215200000Y-68175000D03*
X215200000Y-67525000D03*
D20*
X214500000Y-64250000D03*
X214500000Y-62750000D03*
D22*
X213750000Y-66000000D03*
X212250000Y-66000000D03*
D20*
X214500000Y-61250000D03*
X214500000Y-59750000D03*
D23*
X206650000Y-87500000D03*
X207920000Y-87500000D03*
X209190000Y-87500000D03*
X210460000Y-87500000D03*
X211730000Y-87500000D03*
X213000000Y-87500000D03*
X214270000Y-87500000D03*
X215540000Y-87500000D03*
X216810000Y-87500000D03*
X218080000Y-87500000D03*
X219350000Y-87500000D03*
D24*
X213000000Y-78000000D03*
D22*
X218250000Y-96000000D03*
X216750000Y-96000000D03*
D25*
X218450000Y-94000000D03*
X216550000Y-94000000D03*
D22*
X210750000Y-90000000D03*
X212250000Y-90000000D03*
D19*
X215500000Y-90250000D03*
X215500000Y-91750000D03*
D25*
X214950000Y-94000000D03*
X213050000Y-94000000D03*
D26*
X238000000Y-89775000D03*
X238000000Y-82225000D03*
X228000000Y-89775000D03*
X228000000Y-82225000D03*
X233000000Y-89775000D03*
X233000000Y-82225000D03*
D19*
X222000000Y-87000000D03*
X222000000Y-85500000D03*
D26*
X243000000Y-89775000D03*
X243000000Y-82225000D03*
D27*
X224000000Y-87500000D03*
X224000000Y-85500000D03*
X188000000Y-69000000D03*
X188000000Y-71000000D03*
D19*
X177800000Y-88380000D03*
X177800000Y-86880000D03*
X184150000Y-86475000D03*
X184150000Y-84975000D03*
X184150000Y-89650000D03*
X184150000Y-88150000D03*
D22*
X181725000Y-90170000D03*
X180225000Y-90170000D03*
D19*
X200660000Y-53860000D03*
X200660000Y-55360000D03*
D28*
X199755000Y-51435000D03*
X197755000Y-51435000D03*
X192675000Y-51435000D03*
X194675000Y-51435000D03*
D19*
X191770000Y-54495000D03*
X191770000Y-55995000D03*
D28*
X195215000Y-59055000D03*
X197215000Y-59055000D03*
D27*
X223750000Y-68310000D03*
X223750000Y-66310000D03*
D22*
X236250000Y-55500000D03*
X237750000Y-55500000D03*
D19*
X247245000Y-61480000D03*
X247245000Y-62980000D03*
D22*
X241645000Y-71755000D03*
X240145000Y-71755000D03*
D19*
X230735000Y-64250000D03*
X230735000Y-62750000D03*
D27*
X226290000Y-68310000D03*
X226290000Y-66310000D03*
D28*
X229830000Y-59690000D03*
X227830000Y-59690000D03*
X229830000Y-57150000D03*
X227830000Y-57150000D03*
D22*
X205220000Y-48895000D03*
X203720000Y-48895000D03*
D28*
X205470000Y-46990000D03*
X203470000Y-46990000D03*
D22*
X205220000Y-42545000D03*
X203720000Y-42545000D03*
D28*
X205470000Y-44450000D03*
X203470000Y-44450000D03*
D22*
X249250000Y-90500000D03*
X250750000Y-90500000D03*
X254750000Y-90500000D03*
X253250000Y-90500000D03*
D27*
X178000000Y-101000000D03*
X178000000Y-99000000D03*
X193000000Y-101000000D03*
X193000000Y-99000000D03*
X208000000Y-101000000D03*
X208000000Y-99000000D03*
D28*
X224500000Y-102000000D03*
X226500000Y-102000000D03*
X238500000Y-102000000D03*
X240500000Y-102000000D03*
D22*
X244750000Y-51500000D03*
X243250000Y-51500000D03*
D19*
X249500000Y-45750000D03*
X249500000Y-47250000D03*
D29*
X173500000Y-73900000D03*
X173500000Y-67100000D03*
D30*
X177000000Y-60000000D03*
X181000000Y-60000000D03*
D31*
X193355000Y-47260000D03*
X191455000Y-47260000D03*
X192405000Y-49260000D03*
D18*
X173500000Y-58600000D03*
X173500000Y-56400000D03*
D25*
X224070000Y-70485000D03*
X225970000Y-70485000D03*
X246550000Y-49500000D03*
X248450000Y-49500000D03*
D32*
X245300000Y-46500000D03*
X244650000Y-46500000D03*
X244000900Y-46500000D03*
X243350000Y-46500000D03*
X242700000Y-46500000D03*
D33*
X244962500Y-43375000D03*
X243037500Y-43375000D03*
D17*
X185420000Y-56195000D03*
X185420000Y-54295000D03*
D34*
X179950000Y-77500000D03*
X177050000Y-77500000D03*
D35*
X180750000Y-64500000D03*
X182250000Y-64500000D03*
D25*
X180600000Y-67000000D03*
X182500000Y-67000000D03*
X184550000Y-67000000D03*
X186450000Y-67000000D03*
X176850000Y-84455000D03*
X178750000Y-84455000D03*
X180025000Y-84455000D03*
X181925000Y-84455000D03*
D35*
X181725000Y-92075000D03*
X180225000Y-92075000D03*
D20*
X187960000Y-52820000D03*
X187960000Y-51320000D03*
D35*
X203315000Y-51435000D03*
X201815000Y-51435000D03*
D17*
X203200000Y-53660000D03*
X203200000Y-55560000D03*
D20*
X187960000Y-54495000D03*
X187960000Y-55995000D03*
D25*
X202880000Y-57785000D03*
X200980000Y-57785000D03*
D35*
X229250000Y-66500000D03*
X230750000Y-66500000D03*
X229250000Y-68500000D03*
X230750000Y-68500000D03*
D20*
X233000000Y-76250000D03*
X233000000Y-74750000D03*
X232640000Y-55360000D03*
X232640000Y-53860000D03*
X234545000Y-55360000D03*
X234545000Y-53860000D03*
D35*
X209250000Y-66000000D03*
X210750000Y-66000000D03*
X215250000Y-66000000D03*
X216750000Y-66000000D03*
D20*
X234500000Y-73250000D03*
X234500000Y-71750000D03*
X235000000Y-76250000D03*
X235000000Y-74750000D03*
X236500000Y-73250000D03*
X236500000Y-71750000D03*
X237000000Y-76250000D03*
X237000000Y-74750000D03*
X238500000Y-73250000D03*
X238500000Y-71750000D03*
X239000000Y-76250000D03*
X239000000Y-74750000D03*
X243500000Y-73250000D03*
X243500000Y-71750000D03*
X244500000Y-76250000D03*
X244500000Y-74750000D03*
D35*
X248630000Y-69215000D03*
X247130000Y-69215000D03*
X251805000Y-67945000D03*
X250305000Y-67945000D03*
X248630000Y-67310000D03*
X247130000Y-67310000D03*
X251805000Y-66040000D03*
X250305000Y-66040000D03*
X248630000Y-65405000D03*
X247130000Y-65405000D03*
X251805000Y-64135000D03*
X250305000Y-64135000D03*
D20*
X230505000Y-50280000D03*
X230505000Y-48780000D03*
X245500000Y-94250000D03*
X245500000Y-95750000D03*
X243500000Y-94250000D03*
X243500000Y-95750000D03*
X249500000Y-43750000D03*
X249500000Y-42250000D03*
D36*
X237190000Y-42450000D03*
X231440000Y-42450000D03*
X231440000Y-46450000D03*
X237190000Y-46450000D03*
D37*
X181300000Y-69000000D03*
X181300000Y-69500000D03*
X181300000Y-70000000D03*
X181300000Y-70500000D03*
X181300000Y-71000000D03*
X185700000Y-71000000D03*
X185700000Y-70500000D03*
X185700000Y-70000000D03*
X185700000Y-69500000D03*
X185700000Y-69000000D03*
D38*
X181925000Y-88280000D03*
X181925000Y-86980000D03*
X181925000Y-87630000D03*
X180025000Y-86980000D03*
X180025000Y-88280000D03*
D39*
X194110000Y-54270000D03*
X194110000Y-54920000D03*
X194110000Y-55570000D03*
X194110000Y-56220000D03*
X198320000Y-56220000D03*
X198320000Y-55570000D03*
X198320000Y-54920000D03*
X198320000Y-54270000D03*
D40*
X196635000Y-55715000D03*
X196635000Y-54775000D03*
X195795000Y-55715000D03*
X195795000Y-54775000D03*
D41*
X249300000Y-92555000D03*
X249300000Y-93825000D03*
X249300000Y-95095000D03*
X249300000Y-96365000D03*
X249300000Y-97635000D03*
X249300000Y-98905000D03*
X249300000Y-100175000D03*
X249300000Y-101445000D03*
X254700000Y-101445000D03*
X254700000Y-100175000D03*
X254700000Y-98905000D03*
X254700000Y-97635000D03*
X254700000Y-96365000D03*
X254700000Y-95095000D03*
X254700000Y-93825000D03*
X254700000Y-92555000D03*
D42*
X244701040Y-50000380D03*
X244701040Y-48999620D03*
X243298960Y-50000380D03*
X244701040Y-49500000D03*
X243298960Y-48999620D03*
M02*
